<svg width="26" height="32" viewBox="0 0 26 32" fill="none" xmlns="http://www.w3.org/2000/svg">
<path d="M16 0H9.84615C7.23604 0.00406877 4.734 1.04273 2.88837 2.88837C1.04273 4.734 0.00406877 7.23604 0 9.84615V22.1538C0.00406877 24.764 1.04273 27.266 2.88837 29.1116C4.734 30.9573 7.23604 31.9959 9.84615 32H16C18.6101 31.9959 21.1122 30.9573 22.9578 29.1116C24.8034 27.266 25.8421 24.764 25.8462 22.1538V9.84615C25.8421 7.23604 24.8034 4.734 22.9578 2.88837C21.1122 1.04273 18.6101 0.00406877 16 0ZM23.3846 22.1538C23.3846 24.1124 22.6066 25.9907 21.2217 27.3756C19.8368 28.7604 17.9585 29.5385 16 29.5385H9.84615C7.88763 29.5385 6.00933 28.7604 4.62444 27.3756C3.23956 25.9907 2.46154 24.1124 2.46154 22.1538V9.84615C2.46154 7.88763 3.23956 6.00933 4.62444 4.62444C6.00933 3.23956 7.88763 2.46154 9.84615 2.46154H16C17.9585 2.46154 19.8368 3.23956 21.2217 4.62444C22.6066 6.00933 23.3846 7.88763 23.3846 9.84615V22.1538ZM14.1538 7.38462V13.5385C14.1538 13.8649 14.0242 14.1779 13.7934 14.4087C13.5625 14.6396 13.2495 14.7692 12.9231 14.7692C12.5967 14.7692 12.2836 14.6396 12.0528 14.4087C11.822 14.1779 11.6923 13.8649 11.6923 13.5385V7.38462C11.6923 7.0582 11.822 6.74514 12.0528 6.51433C12.2836 6.28352 12.5967 6.15385 12.9231 6.15385C13.2495 6.15385 13.5625 6.28352 13.7934 6.51433C14.0242 6.74514 14.1538 7.0582 14.1538 7.38462Z" fill="white"/>
</svg>
