<svg width="146" height="59" viewBox="0 0 146 59" fill="none" xmlns="http://www.w3.org/2000/svg">
<rect x="0.0288086" y="0.747559" width="145.274" height="57.7887" rx="8.3324" fill="#F5F5F5"/>
<g clip-path="url(#clip0_53_3559)">
<path fill-rule="evenodd" clip-rule="evenodd" d="M102.771 21.8336L103.95 20.742L105.129 21.8336V22.8087L103.95 21.7172L102.771 22.8087V21.8336Z" fill="#D4D4D4"/>
<path fill-rule="evenodd" clip-rule="evenodd" d="M102.771 23.8421L103.95 22.3867L105.129 23.8421V25.1083L103.95 23.6529L102.771 25.1083V23.8421Z" fill="#101041"/>
<path d="M57.2458 31.1046C58.3956 30.0713 61.5393 27.437 63.2276 25.9815H65.8037L60.7825 30.1149L66.3277 36.6498H63.7516L59.298 31.2065L57.2313 32.8075V36.5916H55.1646V20.7857H57.2313L57.2458 31.1046Z" fill="#101041"/>
<path d="M67.9868 28.7614V25.8506H69.9371C69.9371 26.1708 70.0244 27.306 70.0244 28.2811C70.3793 27.4367 70.9835 26.7207 71.7564 26.229C72.5228 25.738 73.4235 25.4989 74.3325 25.5449V27.4952C71.8728 27.4952 69.9662 28.9506 69.9662 32.138V36.6498H68.0014L67.9868 28.7614Z" fill="#101041"/>
<path d="M77.5926 31.5413C77.5885 32.0116 77.6827 32.4776 77.8691 32.9094C78.0464 33.3441 78.3143 33.7361 78.655 34.0591C78.9893 34.3896 79.3878 34.6479 79.8259 34.8182C80.264 34.9884 80.7324 35.0669 81.202 35.0488C81.8435 35.1212 82.492 34.9989 83.063 34.6978C83.6341 34.3967 84.1013 33.9308 84.404 33.3605H86.3979C86.0092 34.4066 85.2869 35.2956 84.3425 35.8901C83.3981 36.4847 82.2842 36.7516 81.1729 36.6498C80.4356 36.692 79.6976 36.5779 79.0075 36.3149C78.3173 36.0519 77.6906 35.646 77.1684 35.1238C76.6461 34.6015 76.2402 33.9748 75.9772 33.2846C75.7142 32.5945 75.6001 31.8565 75.6423 31.1192C75.5993 30.3832 75.7104 29.6464 75.9685 28.9559C76.2265 28.2653 76.6259 27.6363 77.1409 27.1089C77.656 26.5815 78.2755 26.1674 78.9597 25.893C79.644 25.6187 80.378 25.4902 81.1147 25.5158C81.8464 25.4702 82.5793 25.5818 83.2643 25.843C83.9493 26.1042 84.5705 26.5089 85.0861 27.03C85.6017 27.5512 85.9998 28.1766 86.2537 28.8643C86.5076 29.5521 86.6113 30.2862 86.558 31.0173V31.5413H77.5926ZM84.4185 30.0858C84.4182 29.6556 84.3284 29.2301 84.1547 28.8365C83.981 28.4429 83.7273 28.0898 83.4097 27.7995C83.0921 27.5093 82.7175 27.2884 82.3099 27.1508C81.9023 27.0132 81.4704 26.962 81.0419 27.0003C80.6122 26.9666 80.1801 27.0208 79.772 27.1596C79.3639 27.2983 78.9884 27.5188 78.6683 27.8076C78.3482 28.0963 78.0904 28.4472 77.9104 28.8389C77.7305 29.2306 77.6322 29.6549 77.6217 30.0858H84.4185Z" fill="#101041"/>
<path d="M99.2492 20.7857V36.3587H97.3426C97.3426 35.9221 97.3426 35.2817 97.2553 34.7577C96.872 35.4162 96.3031 35.9469 95.6196 36.2835C94.9361 36.6201 94.1685 36.7475 93.413 36.6498C92.7135 36.6561 92.0203 36.5167 91.3777 36.2403C90.7351 35.9639 90.1572 35.5567 89.6806 35.0446C89.2041 34.5325 88.8395 33.9267 88.6101 33.2659C88.3807 32.6051 88.2914 31.9037 88.3481 31.2065C88.3148 30.4849 88.4271 29.7639 88.6783 29.0866C88.9294 28.4093 89.3142 27.7894 89.8099 27.2638C90.3056 26.7383 90.9019 26.3179 91.5634 26.0276C92.2249 25.7373 92.938 25.583 93.6604 25.574C94.3506 25.482 95.0527 25.5845 95.6879 25.8699C96.323 26.1553 96.8658 26.6123 97.2553 27.1895V20.7857H99.2492ZM90.3857 31.2065C90.3438 31.6894 90.4012 32.1758 90.5545 32.6357C90.7077 33.0956 90.9534 33.5193 91.2766 33.8806C91.5997 34.2419 91.9934 34.5333 92.4334 34.7367C92.8734 34.9401 93.3504 35.0513 93.835 35.0634C96.3238 35.0634 97.3572 33.4479 97.3572 31.1192C97.3572 28.7905 96.5421 27.2623 93.9078 27.2623C93.4123 27.2743 92.9246 27.3878 92.4747 27.5957C92.0249 27.8037 91.6224 28.1017 91.2923 28.4714C90.9622 28.8411 90.7114 29.2745 90.5555 29.745C90.3995 30.2154 90.3417 30.7128 90.3857 31.2065Z" fill="#101041"/>
<path d="M104.78 25.7196H103.179V36.6498H104.78V25.7196Z" fill="#101041"/>
<path d="M118.01 40.3903C117.776 40.3909 117.548 40.4619 117.355 40.594C117.165 40.7252 117.022 40.914 116.947 41.1325V41.3945H118.999V40.9724C118.908 40.7909 118.767 40.6394 118.592 40.5358C118.416 40.4316 118.214 40.381 118.01 40.3903ZM116.976 25.836C116.976 26.1853 116.976 26.7093 116.976 27.3933C116.729 26.8112 115.696 25.5304 113.09 25.5304C112.341 25.5396 111.602 25.6985 110.915 25.9978C110.228 26.2971 109.608 26.7308 109.091 27.2732C108.575 27.8157 108.172 28.456 107.906 29.1564C107.641 29.8569 107.518 30.6035 107.545 31.3521C107.497 32.078 107.599 32.806 107.843 33.4912C108.088 34.1763 108.47 34.8042 108.966 35.336C109.463 35.8679 110.063 36.2924 110.729 36.5834C111.396 36.8744 112.115 37.0258 112.843 37.0282C113.638 37.116 114.442 36.9782 115.163 36.6308C115.883 36.2834 116.492 35.7402 116.918 35.0634V40.4776C117.155 40.1792 117.5 39.9859 117.879 39.9391C118.073 39.9349 118.266 39.9695 118.446 40.041C118.625 40.1102 118.788 40.2141 118.927 40.3466V25.8215L116.976 25.836ZM113.221 35.2235C112.721 35.2196 112.228 35.112 111.772 34.9073C111.316 34.7027 110.907 34.4056 110.572 34.0348C110.237 33.664 109.982 33.2276 109.824 32.7533C109.667 32.2789 109.609 31.777 109.656 31.2793C109.594 30.7599 109.646 30.2333 109.808 29.7359C109.97 29.2386 110.238 28.7824 110.594 28.3989C110.95 28.0155 111.384 27.7139 111.868 27.5152C112.352 27.3164 112.873 27.2252 113.396 27.2478C115.943 27.2478 117.005 28.907 117.005 31.2211C116.991 33.8263 115.666 35.2235 113.221 35.2235Z" fill="#101041"/>
<path d="M119.145 41.4964C119.122 41.7851 118.992 42.055 118.781 42.2532C118.573 42.4508 118.297 42.5609 118.01 42.5609C117.723 42.5609 117.447 42.4508 117.238 42.2532C117.027 42.055 116.897 41.7851 116.874 41.4964C116.852 41.3712 116.852 41.2431 116.874 41.118C116.96 40.9011 117.106 40.7139 117.297 40.5795C117.485 40.4519 117.709 40.3858 117.937 40.3903C118.146 40.3916 118.352 40.4468 118.534 40.5503C118.72 40.6547 118.872 40.8116 118.97 41.0015C119.058 41.1545 119.117 41.3222 119.145 41.4964Z" fill="white"/>
<path d="M119.145 41.4964C119.122 41.7851 118.992 42.055 118.781 42.2532C118.573 42.4508 118.297 42.5609 118.01 42.5609C117.723 42.5609 117.447 42.4508 117.238 42.2532C117.027 42.055 116.897 41.7851 116.874 41.4964C116.852 41.3712 116.852 41.2431 116.874 41.118C116.96 40.9011 117.106 40.7139 117.297 40.5795C117.485 40.4519 117.709 40.3858 117.937 40.3903C118.146 40.3916 118.352 40.4468 118.534 40.5503C118.72 40.6547 118.872 40.8116 118.97 41.0015C119.058 41.1545 119.117 41.3222 119.145 41.4964Z" fill="#318FDA"/>
<path d="M39.0675 16.6523H39.2858C42.6327 16.7647 45.805 18.1733 48.1329 20.5807C50.4607 22.9881 51.762 26.2058 51.762 29.5546C51.762 32.9034 50.4607 36.1212 48.1329 38.5286C45.805 40.9359 42.6327 42.3445 39.2858 42.457H39.0675C35.7206 42.3445 32.5484 40.9359 30.2205 38.5286C27.8926 36.1212 26.5913 32.9034 26.5913 29.5546C26.5913 26.2058 27.8926 22.9881 30.2205 20.5807C32.5484 18.1733 35.7206 16.7647 39.0675 16.6523Z" fill="url(#paint0_linear_53_3559)"/>
<path d="M43.3175 21.8627L43.1428 21.7608L42.9536 21.6589C41.7607 21.0095 40.4259 20.6645 39.0676 20.6547V24.759C39.7497 24.7658 40.4196 24.9408 41.0179 25.2684L41.1925 25.3848C41.8015 25.728 42.3048 26.2313 42.648 26.8402L43.201 26.5346L46.1992 24.7881C45.5051 23.5822 44.5128 22.5749 43.3175 21.8627Z" fill="white"/>
<path d="M35.1525 21.6444L34.9196 21.7608L34.7304 21.8627C33.6011 22.5861 32.6665 23.5756 32.0088 24.7444L34.9196 26.4764L35.4873 26.8402C35.8495 26.2461 36.3485 25.747 36.9427 25.3848L37.1319 25.2829C37.7274 24.9483 38.3991 24.7729 39.0821 24.7735V20.6547C37.711 20.6577 36.3615 20.9975 35.1525 21.6444Z" fill="white"/>
<path d="M35.5016 26.8403L34.9194 26.491L32.0086 24.759C31.2835 26 30.9014 27.4114 30.9014 28.8487C30.9014 30.286 31.2835 31.6975 32.0086 32.9385L34.9194 31.2065L35.4579 30.8863C35.1196 30.2647 34.9448 29.5673 34.9499 28.8595C34.955 28.1518 35.1398 27.457 35.4871 26.8403H35.5016Z" fill="white"/>
<path d="M39.0676 33.5789V32.9385C38.3878 32.9418 37.7178 32.7768 37.1173 32.4582L36.9427 32.3418C36.3338 31.9986 35.8304 31.4953 35.4873 30.8863L34.9196 31.2065L32.0088 32.953C32.6871 34.1428 33.6529 35.1436 34.8178 35.8639L35.007 35.9658L35.1816 36.0822C36.3721 36.7041 37.6954 37.0286 39.0385 37.0282C40.3992 37.0303 41.7393 36.6953 42.939 36.0531L43.1282 35.9367L39.0676 33.5789Z" fill="url(#paint1_linear_53_3559)"/>
<path d="M46.1409 24.759L43.1427 26.491L42.5897 26.8403C42.9513 27.4637 43.1418 28.1717 43.1418 28.8924C43.1418 29.6132 42.9513 30.3211 42.5897 30.9446L39.053 28.8342V33.5789L43.1427 35.9367L47.0287 38.178L47.2325 38.2944V28.8487C47.2331 27.4134 46.8567 26.0031 46.1409 24.759Z" fill="white"/>
</g>
<defs>
<linearGradient id="paint0_linear_53_3559" x1="39.1694" y1="16.6523" x2="39.1694" y2="42.4133" gradientUnits="userSpaceOnUse">
<stop stop-color="#2B97DD"/>
<stop offset="1" stop-color="#595EC7"/>
</linearGradient>
<linearGradient id="paint1_linear_53_3559" x1="35.691" y1="33.9573" x2="46.7813" y2="33.9573" gradientUnits="userSpaceOnUse">
<stop stop-color="white"/>
<stop offset="0.41" stop-color="#E6E6E6"/>
<stop offset="0.66" stop-color="#D9D9D9"/>
<stop offset="1" stop-color="#999999"/>
</linearGradient>
<clipPath id="clip0_53_3559">
<rect width="92.9579" height="25.9793" fill="white" transform="translate(26.187 16.6523)"/>
</clipPath>
</defs>
</svg>
