<svg width="146" height="59" viewBox="0 0 146 59" fill="none" xmlns="http://www.w3.org/2000/svg">
<rect x="0.211426" y="0.747559" width="145.274" height="57.7887" rx="8.3324" fill="#F5F5F5"/>
<g clip-path="url(#clip0_53_3529)">
<path d="M96.6241 28.0375C96.4848 27.8991 96.3899 27.7223 96.3513 27.5298C96.3128 27.3372 96.3323 27.1376 96.4075 26.9562C96.4826 26.7748 96.61 26.6198 96.7735 26.5109C96.9369 26.4021 97.1291 26.3443 97.3254 26.3449H100.105C100.236 26.3427 100.366 26.3678 100.487 26.4187C100.607 26.4695 100.716 26.545 100.806 26.6402C100.991 26.825 101.095 27.0752 101.096 27.3364C101.097 27.5976 100.995 27.8486 100.811 28.0348L100.804 28.0411C100.621 28.2206 100.375 28.3211 100.119 28.3211H97.3281C97.1979 28.3225 97.0687 28.2981 96.9479 28.2495C96.827 28.2008 96.717 28.1288 96.6241 28.0375Z" fill="url(#paint0_linear_53_3529)"/>
<path d="M101.573 36.4286C101.533 36.5516 101.47 36.6655 101.386 36.7637C101.301 36.8618 101.199 36.9422 101.083 37.0003C100.743 37.1769 100.383 37.3135 100.011 37.4072C99.6353 37.5019 99.2495 37.5503 98.8621 37.5513H98.7964C97.5252 37.5305 96.3129 37.0115 95.4205 36.106C94.5281 35.2004 94.0268 33.9807 94.0247 32.7093V22.7256C94.0265 22.4636 94.1315 22.2128 94.3168 22.0274C94.5021 21.8421 94.7529 21.7372 95.015 21.7353C95.1443 21.7332 95.2726 21.7583 95.3916 21.809C95.5106 21.8597 95.6175 21.9349 95.7056 22.0297C95.7991 22.1202 95.8732 22.2288 95.9232 22.349C95.9732 22.4691 95.9981 22.5982 95.9964 22.7283V32.7129C95.9965 33.0884 96.0706 33.4601 96.2144 33.8069C96.3582 34.1536 96.569 34.4687 96.8346 34.734C97.1003 34.9993 97.4156 35.2096 97.7625 35.353C98.1095 35.4964 98.4813 35.57 98.8567 35.5697C99.0869 35.5706 99.3164 35.5455 99.5409 35.4949C99.7639 35.4442 99.9785 35.3621 100.178 35.251L100.194 35.2429C100.307 35.1848 100.431 35.1504 100.558 35.1419C100.685 35.1334 100.812 35.1509 100.932 35.1933C101.057 35.2316 101.173 35.2946 101.273 35.3788C101.373 35.463 101.455 35.5665 101.514 35.6831C101.575 35.7967 101.611 35.9215 101.621 36.0497C101.632 36.178 101.615 36.307 101.573 36.4286Z" fill="url(#paint1_linear_53_3529)"/>
<path d="M111.652 27.9907C110.605 26.9402 109.184 26.3487 107.7 26.3464C106.217 26.344 104.793 26.931 103.743 27.9781L103.732 27.9889C102.954 28.7673 102.423 29.7574 102.204 30.8358C101.985 31.9141 102.089 33.033 102.502 34.0529C102.914 35.0729 103.618 35.9488 104.526 36.5713C105.433 37.1939 106.503 37.5357 107.604 37.554H107.694C108.428 37.5542 109.155 37.4098 109.833 37.1291C110.512 36.8483 111.128 36.4367 111.648 35.9177C112.167 35.3987 112.579 34.7825 112.86 34.1042C113.141 33.426 113.286 32.699 113.286 31.9648V31.9522C113.297 31.2156 113.157 30.4846 112.876 29.8036C112.595 29.1226 112.179 28.5058 111.652 27.9907ZM110.25 34.5073C109.83 34.9273 109.313 35.2376 108.745 35.4109C108.177 35.5841 107.574 35.6151 106.991 35.501C106.408 35.3869 105.862 35.1312 105.401 34.7565C104.94 34.3817 104.578 33.8994 104.347 33.352C104.116 32.8045 104.023 32.2087 104.077 31.617C104.13 31.0252 104.328 30.4556 104.653 29.9584C104.978 29.4611 105.421 29.0514 105.942 28.7653C106.462 28.4792 107.045 28.3254 107.64 28.3176H107.697C108.174 28.3116 108.647 28.4036 109.087 28.5877C109.527 28.7718 109.924 29.0442 110.255 29.3881L110.274 29.4079C110.944 30.089 111.317 31.0072 111.312 31.9624C111.308 32.9176 110.926 33.8323 110.25 34.5073Z" fill="url(#paint2_linear_53_3529)"/>
<path d="M92.6275 36.56C92.6257 36.8204 92.5221 37.0697 92.3389 37.2548C92.1557 37.4398 91.9074 37.5459 91.6471 37.5504H83.609V37.5387C83.3934 37.5266 83.1874 37.4452 83.022 37.3064C82.9238 37.2213 82.8441 37.117 82.7878 36.9999C82.7314 36.8829 82.6996 36.7555 82.6943 36.6257C82.6803 36.4974 82.6937 36.3676 82.7336 36.2449C82.7735 36.1221 82.8389 36.0092 82.9256 35.9136L89.48 28.3157H83.6729C83.4777 28.3185 83.2861 28.2631 83.1226 28.1564C82.9591 28.0497 82.8311 27.8967 82.7551 27.7169C82.679 27.5371 82.6583 27.3387 82.6956 27.1471C82.7328 26.9555 82.8264 26.7793 82.9644 26.6411L82.9725 26.633C83.063 26.5392 83.172 26.465 83.2925 26.4151C83.413 26.3652 83.5425 26.3407 83.6729 26.3431H91.6318C91.7623 26.3419 91.8918 26.3671 92.0123 26.4172C92.1328 26.4674 92.242 26.5414 92.3331 26.6348C92.5184 26.8205 92.6225 27.0721 92.6225 27.3344C92.6225 27.5967 92.5184 27.8483 92.3331 28.0339L85.8247 35.5634H91.6336C91.8974 35.5643 92.15 35.6697 92.3363 35.8565C92.5226 36.0433 92.6273 36.2962 92.6275 36.56Z" fill="url(#paint3_linear_53_3529)"/>
<path d="M81.2662 22.9327C81.2651 23.2474 81.1394 23.5488 80.9167 23.7711C80.6941 23.9934 80.3925 24.1186 80.0778 24.1194H80.0589C79.9048 24.1189 79.7523 24.0881 79.6102 24.0286C79.4681 23.9691 79.3391 23.8822 79.2306 23.7727C79.117 23.6639 79.027 23.5329 78.9665 23.3877C78.9059 23.2425 78.876 23.0864 78.8786 22.9291C78.8793 22.6113 79.006 22.3067 79.231 22.0822C79.456 21.8578 79.7609 21.7317 80.0787 21.7317H80.1012C80.2531 21.7329 80.4031 21.7649 80.5424 21.8255C80.6816 21.8861 80.8072 21.9743 80.9115 22.0846C81.0254 22.1943 81.1156 22.3261 81.1766 22.472C81.2376 22.6178 81.2681 22.7746 81.2662 22.9327Z" fill="url(#paint4_linear_53_3529)"/>
<path d="M81.0493 36.5582C81.0475 36.8186 80.9439 37.0679 80.7607 37.253C80.5775 37.438 80.3292 37.5441 80.0688 37.5486H80.0445C79.7844 37.5437 79.5365 37.4374 79.3535 37.2524C79.1706 37.0675 79.067 36.8184 79.065 36.5582V27.3362C79.0638 27.2056 79.0891 27.0761 79.1394 26.9555C79.1897 26.8349 79.2639 26.7259 79.3576 26.6348C79.448 26.5404 79.557 26.4658 79.6777 26.4156C79.7984 26.3654 79.9282 26.3407 80.0589 26.3431C80.3211 26.3448 80.572 26.4497 80.7574 26.635C80.9428 26.8204 81.0476 27.0713 81.0493 27.3335V36.5582Z" fill="url(#paint5_linear_53_3529)"/>
<path d="M76.7223 35.5845C76.9159 35.7628 77.0307 36.0106 77.0415 36.2735C77.0523 36.5364 76.9582 36.7928 76.78 36.9863C76.6017 37.1799 76.3539 37.2947 76.091 37.3055C75.8281 37.3163 75.5717 37.2222 75.3782 37.044L71.1169 33.1086C70.925 32.9294 70.8112 32.6818 70.8001 32.4195C70.789 32.1571 70.8815 31.9008 71.0575 31.7059C71.237 31.5148 71.4843 31.4017 71.7463 31.3908C71.8745 31.385 72.0027 31.4048 72.1233 31.449C72.2438 31.4932 72.3544 31.561 72.4485 31.6483L73.9791 33.0591C74.2467 32.6786 74.4694 32.2683 74.6426 31.8365C74.9238 31.1372 75.0663 30.3898 75.0621 29.6361C75.0625 28.8575 74.9094 28.0864 74.6117 27.3669C74.3139 26.6475 73.8773 25.9938 73.3269 25.4431C72.7764 24.8925 72.1228 24.4557 71.4034 24.1577C70.6841 23.8597 69.913 23.7064 69.1344 23.7065H69.0444C67.4804 23.7334 65.9902 24.3764 64.8977 25.4958C63.8052 26.6152 63.1986 28.1206 63.2097 29.6847C63.2209 31.2489 63.8489 32.7454 64.9573 33.8492C66.0656 34.9529 67.5648 35.5746 69.129 35.5791H69.138C69.5597 35.5788 69.98 35.5317 70.3913 35.4387C70.807 35.3484 71.212 35.2144 71.5995 35.0389C71.7784 34.9598 71.9768 34.9354 72.1696 34.9689C72.3623 35.0024 72.5409 35.0922 72.6827 35.227C72.8244 35.3619 72.9231 35.5357 72.9662 35.7265C73.0093 35.9174 72.9949 36.1167 72.9248 36.2994C72.8321 36.5389 72.6496 36.7327 72.4161 36.8396C71.901 37.0728 71.3638 37.2537 70.8126 37.3798C70.2594 37.4977 69.6955 37.5581 69.1299 37.5599H69.0129C67.4574 37.5387 65.9427 37.0593 64.6584 36.1815C63.374 35.3038 62.3772 34.0667 61.7925 32.6252C61.2078 31.1836 61.0613 29.6016 61.3713 28.0772C61.6813 26.5528 62.434 25.1537 63.5353 24.055C64.641 22.9498 66.0494 22.1971 67.5826 21.8919C69.1158 21.5866 70.7051 21.7425 72.1498 22.3398C73.5945 22.9372 74.8297 23.9492 75.6997 25.2481C76.5696 26.547 77.0351 28.0746 77.0375 29.6379C77.0376 31.3587 76.4754 33.0323 75.4367 34.4042L76.7223 35.5845Z" fill="url(#paint6_linear_53_3529)"/>
<path d="M58.7032 41.4524V43.0378L57.3347 41.6694L58.7032 41.4524Z" fill="#00B9D4"/>
<path d="M58.7069 31.502V41.4524L57.3384 41.6693L54.6122 38.9432C52.3029 41.1383 49.2727 42.4164 46.0889 42.5382L57.8246 30.2667L58.7069 31.502Z" fill="#00C1D6"/>
<path d="M58.7069 28.8685V29.1773L57.8282 30.2667L53.2366 18.7102C54.8616 19.8752 56.1992 21.3959 57.1472 23.1564C58.0952 24.9168 58.6287 26.8706 58.7069 28.8685Z" fill="#62DBC3"/>
<path d="M58.7032 29.1773V31.5011L57.8245 30.2667L58.7032 29.1773Z" fill="#44E4D1"/>
<path d="M49.0536 28.6363L45.3371 42.5463C44.9487 42.5403 44.5649 42.5172 44.1856 42.477L40.2502 37.2641L49.0536 28.6363Z" fill="#00A7CD"/>
<path d="M57.8245 30.2668L46.0852 42.5382C45.9114 42.5454 45.7376 42.5481 45.563 42.5481H45.3379L49.0544 28.6381L57.8245 30.2668Z" fill="#00BAD5"/>
<path d="M57.8244 30.2667L49.0535 28.6362L52.4891 18.2168C52.7412 18.3728 52.9879 18.5373 53.2292 18.7102L57.8244 30.2667Z" fill="#00CDD2"/>
<path d="M42.0868 16.7105L38.7043 24.0986L37.7986 18.7813C39.0894 17.8347 40.5429 17.1329 42.0868 16.7105Z" fill="#7C78C7"/>
<path d="M51.8914 17.8675L38.7043 24.0986L42.0869 16.7106C45.3816 15.8121 48.8963 16.2269 51.8914 17.8675Z" fill="#599ACA"/>
<path d="M40.2457 37.2632L49.0536 28.6362L38.7043 24.0986L40.2457 37.2632Z" fill="#00B2D3"/>
<path d="M52.4892 18.2168L49.0536 28.6362L38.7043 24.0986L51.8914 17.8674C52.0943 17.9785 52.2936 18.0949 52.4892 18.2168Z" fill="#00BAD0"/>
<path d="M40.2501 37.2641L33.7678 35.223C32.8745 33.4111 32.4123 31.4172 32.4173 29.397C32.4173 29.0219 32.4329 28.6506 32.4641 28.2833L38.7087 24.0986L40.2501 37.2641Z" fill="#008FBC"/>
<path d="M38.7044 24.0986L32.4597 28.2833C32.6106 26.4722 33.1374 24.7125 34.0065 23.1163L38.7044 24.0986Z" fill="#007BB4"/>
<path d="M38.7042 24.0986L34.0063 23.1164C34.9367 21.4104 36.2314 19.9303 37.7985 18.7813L38.7042 24.0986Z" fill="#5973C6"/>
<path d="M44.1854 42.4769C42.4684 42.2972 40.8037 41.7806 39.2866 40.9567C37.7696 40.1328 36.4299 39.0178 35.3442 37.6755L40.2501 37.264L44.1854 42.4769Z" fill="#0094B4"/>
<path d="M40.2502 37.2641L35.3488 37.6764C34.7331 36.9193 34.2028 36.0965 33.7678 35.223L40.2502 37.2641Z" fill="#00769E"/>
</g>
<defs>
<linearGradient id="paint0_linear_53_3529" x1="98.8218" y1="26.532" x2="98.8218" y2="28.5063" gradientUnits="userSpaceOnUse">
<stop stop-color="#5067B1"/>
<stop offset="1" stop-color="#37487D"/>
</linearGradient>
<linearGradient id="paint1_linear_53_3529" x1="97.7643" y1="21.8168" x2="97.7643" y2="37.6496" gradientUnits="userSpaceOnUse">
<stop stop-color="#5067B1"/>
<stop offset="1" stop-color="#37487D"/>
</linearGradient>
<linearGradient id="paint2_linear_53_3529" x1="107.763" y1="26.3307" x2="107.763" y2="37.5484" gradientUnits="userSpaceOnUse">
<stop stop-color="#5067B1"/>
<stop offset="1" stop-color="#37487D"/>
</linearGradient>
<linearGradient id="paint3_linear_53_3529" x1="87.6729" y1="26.4507" x2="87.6729" y2="37.6671" gradientUnits="userSpaceOnUse">
<stop stop-color="#5067B1"/>
<stop offset="1" stop-color="#37487D"/>
</linearGradient>
<linearGradient id="paint4_linear_53_3529" x1="80.0167" y1="21.8786" x2="80.0167" y2="24.2684" gradientUnits="userSpaceOnUse">
<stop stop-color="#5067B1"/>
<stop offset="1" stop-color="#37487D"/>
</linearGradient>
<linearGradient id="paint5_linear_53_3529" x1="80.0564" y1="26.4504" x2="80.0564" y2="37.6681" gradientUnits="userSpaceOnUse">
<stop stop-color="#5067B1"/>
<stop offset="1" stop-color="#37487D"/>
</linearGradient>
<linearGradient id="paint6_linear_53_3529" x1="69.0962" y1="21.3366" x2="69.0962" y2="37.1721" gradientUnits="userSpaceOnUse">
<stop stop-color="#5067B1"/>
<stop offset="1" stop-color="#37487D"/>
</linearGradient>
<clipPath id="clip0_53_3529">
<rect width="80.8717" height="26.7919" fill="white" transform="translate(32.4128 16.246)"/>
</clipPath>
</defs>
</svg>
