<svg width="54" height="54" viewBox="0 0 54 54" fill="none" xmlns="http://www.w3.org/2000/svg">
<path d="M33.5 11.1875C34.0802 11.1875 34.6366 11.418 35.0468 11.8282C35.457 12.2384 35.6875 12.7948 35.6875 13.375V39.625C35.6875 40.2052 35.457 40.7616 35.0468 41.1718C34.6366 41.582 34.0802 41.8125 33.5 41.8125H20.375C19.7948 41.8125 19.2384 41.582 18.8282 41.1718C18.418 40.7616 18.1875 40.2052 18.1875 39.625V13.375C18.1875 12.7948 18.418 12.2384 18.8282 11.8282C19.2384 11.418 19.7948 11.1875 20.375 11.1875H33.5ZM20.375 9C19.2147 9 18.1019 9.46094 17.2814 10.2814C16.4609 11.1019 16 12.2147 16 13.375V39.625C16 40.7853 16.4609 41.8981 17.2814 42.7186C18.1019 43.5391 19.2147 44 20.375 44H33.5C34.6603 44 35.7731 43.5391 36.5936 42.7186C37.4141 41.8981 37.875 40.7853 37.875 39.625V13.375C37.875 12.2147 37.4141 11.1019 36.5936 10.2814C35.7731 9.46094 34.6603 9 33.5 9H20.375Z" fill="url(#paint0_linear_80_17)"/>
<path d="M26.9375 39.625C27.5177 39.625 28.0741 39.3945 28.4843 38.9843C28.8945 38.5741 29.125 38.0177 29.125 37.4375C29.125 36.8573 28.8945 36.3009 28.4843 35.8907C28.0741 35.4805 27.5177 35.25 26.9375 35.25C26.3573 35.25 25.8009 35.4805 25.3907 35.8907C24.9805 36.3009 24.75 36.8573 24.75 37.4375C24.75 38.0177 24.9805 38.5741 25.3907 38.9843C25.8009 39.3945 26.3573 39.625 26.9375 39.625Z" fill="url(#paint1_linear_80_17)"/>
<defs>
<linearGradient id="paint0_linear_80_17" x1="32.9346" y1="43.9998" x2="14.3403" y2="43.5273" gradientUnits="userSpaceOnUse">
<stop stop-color="#AD00FF"/>
<stop offset="1" stop-color="#FF7A00"/>
</linearGradient>
<linearGradient id="paint1_linear_80_17" x1="28.1369" y1="39.625" x2="24.4218" y2="39.4739" gradientUnits="userSpaceOnUse">
<stop stop-color="#AD00FF"/>
<stop offset="1" stop-color="#FF7A00"/>
</linearGradient>
</defs>
</svg>
