<svg width="54" height="54" viewBox="0 0 54 54" fill="none" xmlns="http://www.w3.org/2000/svg">
<path d="M24.8405 19.2464C25.2778 19.2464 25.6972 19.0726 26.0065 18.7634C26.3157 18.4542 26.4894 18.0347 26.4894 17.5974C26.4894 17.1601 26.3157 16.7407 26.0065 16.4314C25.6972 16.1222 25.2778 15.9485 24.8405 15.9485C24.4032 15.9485 23.9837 16.1222 23.6745 16.4314C23.3653 16.7407 23.1915 17.1601 23.1915 17.5974C23.1915 18.0347 23.3653 18.4542 23.6745 18.7634C23.9837 19.0726 24.4032 19.2464 24.8405 19.2464ZM25.9502 11.3685C25.6297 11.1293 25.2404 11 24.8405 11C24.4405 11 24.0512 11.1293 23.7307 11.3685L10.5854 21.1814C9.47234 22.0116 10.0602 23.7801 11.4478 23.7801H12.4734V33.6779C11.7333 34.029 11.108 34.5829 10.6701 35.2753C10.2323 35.9676 9.99991 36.77 10 37.5892V40.4748C10 41.0437 10.4617 41.5054 11.0306 41.5054H23.9105C23.5894 40.8563 23.3723 40.1608 23.2674 39.4443H12.0612V37.5892C12.0612 36.9879 12.3001 36.4112 12.7253 35.986C13.1505 35.5608 13.7271 35.3219 14.3285 35.3219H23.9105C24.3724 34.3881 25.0433 33.5734 25.8711 32.9408V23.7793H29.3751V31.625C29.5123 31.6162 29.6498 31.6118 29.7873 31.6118H31.4362V23.7793H35.1464V31.6118H37.2075V23.7793H38.2332C39.6216 23.7793 40.2086 22.0108 39.0964 21.1806L25.9502 11.3685ZM23.8099 33.2607H20.3059V23.7793H23.8099V33.2607ZM18.2447 33.2607H14.5346V23.7793H18.2447V33.2607ZM13.3094 21.7181L24.8405 13.1115L36.3707 21.719H13.3094V21.7181ZM29.9934 33.2607C29.3113 33.2521 28.6342 33.379 28.0015 33.6341C27.3688 33.8891 26.7931 34.2673 26.3077 34.7466C25.8223 35.2259 25.4369 35.7968 25.1738 36.4263C24.9108 37.0557 24.7753 37.7311 24.7753 38.4133C24.7753 39.0954 24.9108 39.7708 25.1738 40.4002C25.4369 41.0297 25.8223 41.6006 26.3077 42.0799C26.7931 42.5592 27.3688 42.9374 28.0015 43.1924C28.6342 43.4475 29.3113 43.5744 29.9934 43.5658H31.2301C31.5035 43.5658 31.7656 43.4572 31.9589 43.2639C32.1521 43.0707 32.2607 42.8085 32.2607 42.5352C32.2607 42.2619 32.1521 41.9997 31.9589 41.8065C31.7656 41.6132 31.5035 41.5046 31.2301 41.5046H29.9934C29.1734 41.5046 28.387 41.1789 27.8072 40.599C27.2274 40.0192 26.9017 39.2328 26.9017 38.4128C26.9017 37.5929 27.2274 36.8065 27.8072 36.2266C28.387 35.6468 29.1734 35.3211 29.9934 35.3211H31.2301C31.5035 35.3211 31.7656 35.2125 31.9589 35.0192C32.1521 34.826 32.2607 34.5638 32.2607 34.2905C32.2607 34.0172 32.1521 33.755 31.9589 33.5617C31.7656 33.3685 31.5035 33.2599 31.2301 33.2599H29.9934V33.2607ZM37.8259 33.2607C38.508 33.2521 39.1851 33.379 39.8178 33.6341C40.4505 33.8891 41.0262 34.2673 41.5116 34.7466C41.997 35.2259 42.3825 35.7968 42.6455 36.4263C42.9086 37.0557 43.044 37.7311 43.044 38.4133C43.044 39.0954 42.9086 39.7708 42.6455 40.4002C42.3825 41.0297 41.997 41.6006 41.5116 42.0799C41.0262 42.5592 40.4505 42.9374 39.8178 43.1924C39.1851 43.4475 38.508 43.5744 37.8259 43.5658H36.5892C36.3159 43.5658 36.0537 43.4572 35.8605 43.2639C35.6672 43.0707 35.5586 42.8085 35.5586 42.5352C35.5586 42.2619 35.6672 41.9997 35.8605 41.8065C36.0537 41.6132 36.3159 41.5046 36.5892 41.5046H37.8259C38.6459 41.5046 39.4323 41.1789 40.0121 40.599C40.5919 40.0192 40.9177 39.2328 40.9177 38.4128C40.9177 37.5929 40.5919 36.8065 40.0121 36.2266C39.4323 35.6468 38.6459 35.3211 37.8259 35.3211H36.5892C36.3159 35.3211 36.0537 35.2125 35.8605 35.0192C35.6672 34.826 35.5586 34.5638 35.5586 34.2905C35.5586 34.0172 35.6672 33.755 35.8605 33.5617C36.0537 33.3685 36.3159 33.2599 36.5892 33.2599H37.8259V33.2607ZM28.9628 38.4137C28.9628 37.844 29.4245 37.3831 29.9934 37.3831H37.8259C38.0992 37.3831 38.3614 37.4917 38.5546 37.6849C38.7479 37.8782 38.8565 38.1403 38.8565 38.4137C38.8565 38.687 38.7479 38.9491 38.5546 39.1424C38.3614 39.3357 38.0992 39.4443 37.8259 39.4443H29.9934C29.4245 39.4443 28.9628 38.9825 28.9628 38.4137Z" fill="black"/>
</svg>
