<svg width="54" height="54" viewBox="0 0 54 54" fill="none" xmlns="http://www.w3.org/2000/svg">
<path d="M31.9674 43.682L23.5055 45.9613C22.9026 46.1236 22.2773 45.7607 22.1157 45.1546C21.9542 44.5487 22.3153 43.92 22.9181 43.7577L31.38 41.4784C31.9829 41.3161 32.6082 41.6789 32.7698 42.285C32.9314 42.891 32.5702 43.5196 31.9674 43.682ZM28.0495 17.5414C27.9737 18.5783 27.3902 19.1628 26.4843 19.148C25.5824 19.1334 24.926 18.512 24.9476 17.5658C24.9686 16.6451 25.5429 16.0404 26.5197 16.0511C27.4959 16.0617 27.9798 16.6415 28.0495 17.5414ZM38.8978 14.0468C35.5315 8.45784 28.8642 5.74238 22.6701 7.56156C17.2494 9.1537 13.715 12.7516 12.4299 18.285C11.1579 23.7618 12.7412 28.4725 16.7483 32.4175C17.688 33.3428 18.5521 34.4635 19.0818 35.6594C19.613 36.8581 19.7832 37.2329 21.0769 36.9182C22.8736 36.4812 24.6462 35.9444 26.4426 35.5058C27.3634 35.2809 27.7133 34.764 27.7072 33.8308C27.6826 30.0644 27.6909 26.2978 27.7045 22.5313C27.7075 21.6787 27.4409 20.9767 26.5284 20.9554C25.6046 20.9339 25.3218 21.6124 25.3296 22.4816C25.3509 24.9235 25.336 27.3656 25.3359 29.8076C25.3358 33.736 25.3359 33.736 21.4933 34.3005C20.0325 32.6179 18.7022 31.1053 17.3933 29.5743C12.6955 24.0795 13.5546 15.9567 19.4178 11.7496C23.6301 8.72705 28.1552 8.55886 32.6667 11.1109C36.8556 13.4807 39.1346 18.3629 38.5305 23.0858C38.127 26.2408 36.6283 28.7593 34.4054 30.9243C33.0639 32.2308 31.8414 33.6376 31.4014 35.5268C31.1955 36.4104 30.7027 36.8487 29.8511 37.0597C30.0102 36.911 20.6726 39.5411 20.6726 39.5411C20.0819 39.7001 19.7281 40.3162 19.8864 40.91L19.9108 41.0018C20.0691 41.5955 20.6819 41.9512 21.2726 41.7922C21.2726 41.7922 31.9866 38.898 32.1271 38.858C33.1193 38.5827 33.6593 37.8727 33.6819 36.8592C33.7157 35.3462 34.3697 34.1687 35.4339 33.1634C36.0036 32.6252 36.5709 32.0822 37.107 31.5108C41.5324 26.7926 42.2627 19.6337 38.8978 14.0467V14.0468Z" fill="black"/>
</svg>
