<svg width="226" height="603" viewBox="0 0 226 603" fill="none" xmlns="http://www.w3.org/2000/svg">
<rect x="0.1" y="0.1" width="225.8" height="602.8" fill="#F8F8F8" stroke="#CECECE" stroke-width="0.2"/>
<path d="M27.475 532.375C27.475 526.068 28.685 521.1 31.105 517.47C33.5617 513.84 37.5033 512.025 42.93 512.025C48.3567 512.025 52.28 513.84 54.7 517.47C57.1567 521.1 58.385 526.068 58.385 532.375C58.385 538.755 57.1567 543.76 54.7 547.39C52.28 551.02 48.3567 552.835 42.93 552.835C37.5033 552.835 33.5617 551.02 31.105 547.39C28.685 543.76 27.475 538.755 27.475 532.375ZM49.145 532.375C49.145 528.672 48.7417 525.83 47.935 523.85C47.1283 521.833 45.46 520.825 42.93 520.825C40.4 520.825 38.7317 521.833 37.925 523.85C37.1183 525.83 36.715 528.672 36.715 532.375C36.715 534.868 36.8617 536.94 37.155 538.59C37.4483 540.203 38.035 541.523 38.915 542.55C39.8317 543.54 41.17 544.035 42.93 544.035C44.69 544.035 46.01 543.54 46.89 542.55C47.8067 541.523 48.4117 540.203 48.705 538.59C48.9983 536.94 49.145 534.868 49.145 532.375ZM62.4739 545.85V538.26L79.8539 513.4H90.3589V537.71H94.8689V545.85H90.3589V553H80.9539V545.85H62.4739ZM81.6139 523.74L72.3739 537.71H81.6139V523.74Z" fill="#D3D3D3" fill-opacity="0.31"/>
</svg>
