<svg width="16" height="16" viewBox="0 0 16 16" fill="none" xmlns="http://www.w3.org/2000/svg">
<path d="M7.40023 7.84212C8.88 10.0416 10.4249 10.4661 12.0349 9.11559L14.9262 4.68483C15.2264 4.22565 14.5312 3.77216 14.2317 4.23135L12.4114 7.02071C12.2353 7.29095 11.8267 7.02071 12.0028 6.75404L14.6752 2.65912C14.9412 2.25127 14.3152 1.69297 13.9808 2.20564L10.1775 8.0325C10.0113 8.28705 9.57282 8.06601 9.76891 7.76583L13.061 2.72116C13.359 2.26482 12.6638 1.81134 12.3658 2.26839L9.88869 6.06383C9.71258 6.33407 9.3033 6.0674 9.48013 5.79716L10.9511 3.54328C11.2506 3.08409 10.5561 2.6306 10.2559 3.08979L7.27759 7.65531L7.39951 7.84212H7.40023Z" fill="url(#paint0_linear_5540_354)"/>
<path d="M7.43316 7.30811L5.38178 4.16508C5.03267 3.64103 4.49095 3.27582 3.87422 3.14872C3.2575 3.02162 2.61552 3.14288 2.08765 3.48619C1.55978 3.8295 1.18861 4.36715 1.05471 4.98243C0.920802 5.59772 1.03497 6.24099 1.37243 6.77262L1.37671 6.77904L5.3226 12.8255C6.21888 14.1988 7.8346 14.6708 9.0881 13.5093C9.50665 13.1214 10.06 12.1496 10.3644 11.684L12.229 8.82686C10.6185 10.1773 9.0736 9.75284 7.59431 7.55339L7.47238 7.36586L7.43316 7.30811ZM7.59288 7.55339L7.47095 7.36586C7.51159 7.42932 7.55295 7.49135 7.59359 7.55268L7.59288 7.55339Z" fill="url(#paint1_linear_5540_354)"/>
<defs>
<linearGradient id="paint0_linear_5540_354" x1="13.6348" y1="1.23308" x2="9.17141" y2="8.88141" gradientUnits="userSpaceOnUse">
<stop stop-color="#EC3939"/>
<stop offset="0.6" stop-color="#C83443"/>
<stop offset="1" stop-color="#00157D"/>
</linearGradient>
<linearGradient id="paint1_linear_5540_354" x1="4.00052" y1="3.08744" x2="9.72728" y2="13.0258" gradientUnits="userSpaceOnUse">
<stop stop-color="#1C9EDC"/>
<stop offset="1" stop-color="#0E3C91"/>
</linearGradient>
</defs>
</svg>
