<svg width="58" height="58" viewBox="0 0 58 58" fill="none" xmlns="http://www.w3.org/2000/svg">
<circle cx="29" cy="29" r="27.5" stroke="#EC3939" stroke-width="3"/>
<path d="M25.004 35.8571H32.9962V37.5714H25.004V35.8571ZM26.6024 39.2857H31.3977V41H26.6024V39.2857ZM29.0001 17C26.8804 17 24.8476 17.9031 23.3488 19.5105C21.85 21.118 21.0079 23.2981 21.0079 25.5714C20.9539 26.8171 21.1764 28.0588 21.6571 29.1943C22.1379 30.3298 22.8631 31.3267 23.7732 32.1029C24.5724 32.9 25.004 33.3543 25.004 34.1429H26.6024C26.6024 32.5657 25.7153 31.6829 24.8522 30.8343C24.1052 30.2208 23.5099 29.4202 23.1183 28.5027C22.7268 27.5852 22.551 26.5787 22.6064 25.5714C22.6064 23.7528 23.28 22.0087 24.479 20.7227C25.6781 19.4367 27.3044 18.7143 29.0001 18.7143C30.6958 18.7143 32.3221 19.4367 33.5211 20.7227C34.7202 22.0087 35.3938 23.7528 35.3938 25.5714C35.4482 26.5795 35.2712 27.5864 34.8783 28.504C34.4853 29.4216 33.8885 30.2217 33.14 30.8343C32.2849 31.6914 31.3977 32.5486 31.3977 34.1429H32.9962C32.9962 33.3543 33.4197 32.9 34.227 32.0943C35.1364 31.3194 35.8613 30.324 36.3421 29.19C36.8228 28.056 37.0457 26.8158 36.9922 25.5714C36.9922 24.4458 36.7855 23.3312 36.3839 22.2913C35.9822 21.2514 35.3935 20.3064 34.6514 19.5105C33.9093 18.7146 33.0282 18.0832 32.0585 17.6525C31.0889 17.2217 30.0496 17 29.0001 17Z" fill="#EC3939"/>
</svg>
