<svg width="70" height="61" viewBox="0 0 70 61" fill="none" xmlns="http://www.w3.org/2000/svg">
<path d="M32.0016 29.2108C39.4005 40.2081 47.125 42.3305 55.1752 35.5781L69.6319 13.4242C71.1328 11.1283 67.6568 8.86085 66.1594 11.1568L57.0576 25.1037C56.177 26.4549 54.1341 25.1037 55.0147 23.7703L68.3769 3.29564C69.7067 1.25637 66.5765 -1.53515 64.9045 1.0282L45.8879 30.1627C45.0572 31.4354 42.8647 30.3302 43.8451 28.8293L60.3054 3.6058C61.7956 1.3241 58.3196 -0.943329 56.8294 1.34194L44.444 20.3193C43.5634 21.6705 41.517 20.3371 42.4012 18.9859L49.7561 7.71643C51.2535 5.42047 47.781 3.15303 46.2801 5.44899L31.3884 28.2767L31.9981 29.2108H32.0016Z" fill="url(#paint0_linear_1_399)"/>
<path d="M32.166 26.5408L21.909 10.8256C20.1634 8.2053 17.4549 6.37925 14.3712 5.74373C11.2875 5.10822 8.07767 5.71453 5.43829 7.43109C2.79892 9.14764 0.94306 11.8359 0.273534 14.9123C-0.395992 17.9888 0.174849 21.2052 1.86215 23.8633L1.88355 23.8954L21.6131 54.128C26.0945 60.9945 34.1732 63.3546 40.4407 57.5469C42.5335 55.6075 45.3 50.7482 46.8224 48.4202L56.1452 34.1346C48.0927 40.887 40.3682 38.7645 32.9717 27.7672L32.3621 26.8296L32.166 26.5408ZM32.9646 27.7672L32.3549 26.8296C32.5582 27.1469 32.7649 27.457 32.9681 27.7636L32.9646 27.7672Z" fill="url(#paint1_linear_1_399)"/>
<defs>
<linearGradient id="paint0_linear_1_399" x1="63.1745" y1="-3.83461" x2="40.8576" y2="34.4072" gradientUnits="userSpaceOnUse">
<stop stop-color="#EC3939"/>
<stop offset="0.6" stop-color="#C83443"/>
<stop offset="1" stop-color="#00157D"/>
</linearGradient>
<linearGradient id="paint1_linear_1_399" x1="15.0027" y1="5.43733" x2="43.6367" y2="55.1293" gradientUnits="userSpaceOnUse">
<stop stop-color="#1C9EDC"/>
<stop offset="1" stop-color="#0E3C91"/>
</linearGradient>
</defs>
</svg>
