<svg width="54" height="54" viewBox="0 0 54 54" fill="none" xmlns="http://www.w3.org/2000/svg">
<path d="M45.4968 28.5713C45.2807 28.7378 45.0147 28.8265 44.7419 28.8229C44.5466 28.8229 44.354 28.7774 44.1793 28.6901C44.0046 28.6027 43.8527 28.4759 43.7355 28.3197C42.9772 27.3004 41.9902 26.4735 40.854 25.9053C39.7177 25.3372 38.4639 25.0438 37.1936 25.0487C36.8599 25.0487 36.5399 24.9162 36.304 24.6802C36.068 24.4443 35.9355 24.1243 35.9355 23.7907C35.9355 23.457 36.068 23.137 36.304 22.9011C36.5399 22.6651 36.8599 22.5326 37.1936 22.5326C37.9096 22.5318 38.6106 22.3274 39.2148 21.9432C39.819 21.559 40.3014 21.0108 40.6057 20.3627C40.9101 19.7146 41.0238 18.9933 40.9337 18.283C40.8435 17.5727 40.5531 16.9027 40.0964 16.3513C39.6398 15.7998 39.0357 15.3896 38.3546 15.1685C37.6736 14.9475 36.9437 14.9248 36.2503 15.1029C35.5568 15.2811 34.9283 15.6529 34.4382 16.1749C33.9481 16.6968 33.6165 17.3474 33.4823 18.0507C33.4578 18.2189 33.3996 18.3804 33.3111 18.5254C33.2225 18.6705 33.1055 18.7961 32.9671 18.8947C32.8287 18.9933 32.6717 19.0628 32.5057 19.0991C32.3397 19.1353 32.168 19.1376 32.0011 19.1057C31.8342 19.0738 31.6755 19.0084 31.5345 18.9135C31.3936 18.8186 31.2733 18.6961 31.181 18.5534C31.0887 18.4107 31.0262 18.2508 30.9974 18.0833C30.9686 17.9159 30.974 17.7443 31.0133 17.579C31.1999 16.6005 31.6163 15.6804 32.228 14.8944C32.8398 14.1083 33.6294 13.4787 34.532 13.0575C35.4346 12.6362 36.4244 12.4354 37.4198 12.4714C38.4152 12.5074 39.3878 12.7794 40.2576 13.2648C41.1274 13.7502 41.8695 14.4352 42.4228 15.2634C42.9761 16.0917 43.3248 17.0395 43.4402 18.0288C43.5556 19.0182 43.4344 20.0208 43.0866 20.9542C42.7387 21.8875 42.1742 22.725 41.4395 23.3975C43.1494 24.1389 44.635 25.3155 45.7484 26.81C45.8475 26.9422 45.9196 27.0926 45.9606 27.2526C46.0016 27.4127 46.0107 27.5792 45.9874 27.7428C45.964 27.9063 45.9086 28.0637 45.8245 28.2058C45.7403 28.348 45.6289 28.4722 45.4968 28.5713V28.5713ZM36.6903 38.9661C36.8323 39.267 36.8509 39.6115 36.7422 39.9259C36.6335 40.2404 36.406 40.4998 36.1085 40.6487C35.9349 40.726 35.748 40.7687 35.5581 40.7745C35.3223 40.7729 35.0917 40.7059 34.8918 40.5809C34.6919 40.456 34.5306 40.278 34.4258 40.0669C33.7004 38.5829 32.5729 37.3324 31.1716 36.4577C29.7704 35.583 28.1518 35.1193 26.5 35.1193C24.8482 35.1193 23.2296 35.583 21.8284 36.4577C20.4271 37.3324 19.2996 38.5829 18.5742 40.0669C18.502 40.2156 18.4012 40.3487 18.2775 40.4585C18.1539 40.5683 18.0098 40.6526 17.8535 40.7066C17.6972 40.7607 17.5318 40.7834 17.3667 40.7734C17.2017 40.7635 17.0402 40.7211 16.8915 40.6487C16.594 40.4998 16.3665 40.2404 16.2578 39.9259C16.1491 39.6115 16.1677 39.267 16.3097 38.9661C17.4789 36.5586 19.462 34.6424 21.9081 33.5564C20.656 32.5967 19.7361 31.2689 19.2775 29.7595C18.819 28.25 18.8449 26.6349 19.3516 25.1409C19.8582 23.647 20.8202 22.3493 22.1024 21.4303C23.3846 20.5112 24.9225 20.017 26.5 20.017C28.0775 20.017 29.6154 20.5112 30.8976 21.4303C32.1798 22.3493 33.1418 23.647 33.6485 25.1409C34.1551 26.6349 34.181 28.25 33.7225 29.7595C33.2639 31.2689 32.344 32.5967 31.0919 33.5564C33.538 34.6424 35.5211 36.5586 36.6903 38.9661V38.9661ZM26.5 32.5971C27.4953 32.5971 28.4682 32.302 29.2958 31.749C30.1233 31.1961 30.7683 30.4101 31.1492 29.4906C31.5301 28.5711 31.6297 27.5593 31.4356 26.5831C31.2414 25.6069 30.7621 24.7103 30.0583 24.0065C29.3546 23.3027 28.4579 22.8235 27.4817 22.6293C26.5056 22.4351 25.4938 22.5348 24.5742 22.9156C23.6547 23.2965 22.8688 23.9415 22.3158 24.7691C21.7629 25.5966 21.4677 26.5696 21.4677 27.5648C21.4719 28.8982 22.0034 30.1758 22.9462 31.1186C23.8891 32.0614 25.1666 32.593 26.5 32.5971V32.5971ZM17.0645 23.7907C17.0645 23.457 16.932 23.137 16.696 22.9011C16.4601 22.6651 16.1401 22.5326 15.8065 22.5326C15.0905 22.5318 14.3894 22.3274 13.7852 21.9432C13.1811 21.559 12.6986 21.0108 12.3943 20.3627C12.0899 19.7146 11.9762 18.9933 12.0664 18.283C12.1565 17.5727 12.4469 16.9027 12.9036 16.3513C13.3602 15.7998 13.9643 15.3896 14.6454 15.1685C15.3264 14.9475 16.0563 14.9248 16.7497 15.1029C17.4432 15.2811 18.0717 15.6529 18.5618 16.1749C19.052 16.6968 19.3835 17.3474 19.5177 18.0507C19.5422 18.2189 19.6004 18.3804 19.6889 18.5254C19.7775 18.6705 19.8945 18.7961 20.0329 18.8947C20.1713 18.9933 20.3283 19.0628 20.4943 19.0991C20.6603 19.1353 20.832 19.1376 20.9989 19.1057C21.1658 19.0738 21.3245 19.0084 21.4655 18.9135C21.6064 18.8186 21.7267 18.6961 21.819 18.5534C21.9113 18.4107 21.9738 18.2508 22.0026 18.0833C22.0314 17.9159 22.026 17.7443 21.9867 17.579C21.8001 16.6005 21.3837 15.6804 20.772 14.8944C20.1603 14.1083 19.3706 13.4787 18.468 13.0575C17.5654 12.6362 16.5756 12.4354 15.5802 12.4714C14.5848 12.5074 13.6122 12.7794 12.7424 13.2648C11.8726 13.7502 11.1305 14.4352 10.5772 15.2634C10.0239 16.0917 9.67523 17.0395 9.55982 18.0288C9.44442 19.0182 9.56562 20.0208 9.91345 20.9542C10.2613 21.8875 10.8258 22.725 11.5605 23.3975C9.85064 24.1389 8.36498 25.3155 7.25162 26.81C7.05142 27.0769 6.96546 27.4125 7.01265 27.7428C7.05984 28.0731 7.2363 28.3711 7.50323 28.5713C7.71932 28.7378 7.9853 28.8265 8.25807 28.8229C8.45338 28.8229 8.646 28.7774 8.82069 28.6901C8.99538 28.6027 9.14734 28.4759 9.26452 28.3197C10.0228 27.3004 11.0098 26.4735 12.1461 25.9053C13.2823 25.3372 14.5361 25.0438 15.8065 25.0487C16.1401 25.0487 16.4601 24.9162 16.696 24.6802C16.932 24.4443 17.0645 24.1243 17.0645 23.7907Z" fill="url(#paint0_linear_82_20)"/>
<defs>
<linearGradient id="paint0_linear_82_20" x1="37.192" y1="40.7755" x2="4.12336" y2="38.9231" gradientUnits="userSpaceOnUse">
<stop stop-color="#AD00FF"/>
<stop offset="1" stop-color="#FF7A00"/>
</linearGradient>
</defs>
</svg>
