<svg width="21" height="17" viewBox="0 0 21 17" fill="none" xmlns="http://www.w3.org/2000/svg">
<path d="M20.4342 2.35326C19.6828 2.68625 18.8755 2.91123 18.0269 3.01293C18.9025 2.48897 19.5576 1.66432 19.87 0.692861C19.0473 1.18152 18.1469 1.52549 17.2079 1.7098C16.5765 1.03562 15.7401 0.588761 14.8287 0.438602C13.9173 0.288444 12.9818 0.443388 12.1675 0.879378C11.3532 1.31537 10.7056 2.00801 10.3252 2.84977C9.9449 3.69153 9.85311 4.63531 10.0641 5.53458C8.39713 5.45088 6.76637 5.01761 5.27768 4.26287C3.78898 3.50813 2.47561 2.4488 1.42282 1.15363C1.06284 1.7746 0.855851 2.49456 0.855851 3.26131C0.855449 3.95157 1.02543 4.63125 1.35071 5.24006C1.676 5.84886 2.14652 6.36797 2.72054 6.75131C2.05483 6.73013 1.4038 6.55025 0.821653 6.22664V6.28064C0.821585 7.24875 1.15646 8.18707 1.76946 8.93638C2.38246 9.68569 3.23583 10.1998 4.18476 10.3916C3.5672 10.5587 2.91974 10.5834 2.29127 10.4636C2.559 11.2966 3.08052 12.025 3.78281 12.5469C4.48511 13.0688 5.33302 13.358 6.20784 13.374C4.72278 14.5398 2.88873 15.1722 1.00074 15.1694C0.666304 15.1695 0.332149 15.15 0 15.1109C1.91642 16.3431 4.14727 16.9971 6.42563 16.9945C14.1382 16.9945 18.3544 10.6067 18.3544 5.06661C18.3544 4.88662 18.3499 4.70483 18.3418 4.52484C19.162 3.93175 19.8699 3.19732 20.4324 2.35597L20.4342 2.35326Z" fill="white"/>
</svg>
