<svg width="54" height="54" viewBox="0 0 54 54" fill="none" xmlns="http://www.w3.org/2000/svg">
<path d="M10.8753 26.6548C11.1483 27.0549 11.417 27.2787 11.4184 27.5026C11.4184 27.6918 11.1093 27.8825 10.936 28.0804C10.7237 27.8709 10.4261 27.6918 10.3308 27.4376C10.2817 27.3004 10.5951 27.0361 10.8753 26.6548Z" fill="white"/>
<path d="M14.3766 23.6894C13.4681 24.6138 12.5466 25.5267 11.6641 26.4741C11.5197 26.6287 11.4821 26.9465 11.5052 27.179C11.6208 28.3489 10.9463 29.2343 9.86445 29.282C9.61768 29.2989 9.37013 29.2632 9.13821 29.1772C8.90629 29.0913 8.69531 28.9569 8.51925 28.7832C8.34319 28.6095 8.20609 28.4003 8.11703 28.1695C8.02797 27.9388 7.98899 27.6917 8.00267 27.4448C8.046 26.3456 8.9805 25.6509 10.1692 25.7838C10.4303 25.8056 10.6896 25.7242 10.8914 25.557C12.5278 23.9595 14.134 22.3303 15.7632 20.7256C16.0362 20.4555 16.1199 20.2533 15.9481 19.859C15.4137 18.6443 15.6592 17.4036 16.5662 16.537C17.5137 15.6415 18.623 15.4162 19.8276 15.9448C20.1959 16.108 20.4053 16.0762 20.6942 15.7859C22.296 14.1538 23.9267 12.5491 25.5256 10.9141C25.6988 10.715 25.786 10.4553 25.7682 10.192C25.6325 8.98881 26.307 8.05864 27.4047 8.00376C27.6516 7.98752 27.8991 8.02403 28.1307 8.11084C28.3624 8.19765 28.573 8.33278 28.7484 8.50725C28.9238 8.68171 29.0601 8.89153 29.1482 9.12273C29.2362 9.35393 29.2741 9.60123 29.2592 9.8482C29.2202 10.9315 28.3493 11.6074 27.1664 11.5005C26.9511 11.4803 26.6507 11.4904 26.5164 11.619C25.566 12.5361 24.6489 13.4865 23.5844 14.564C29.6766 12.292 35.249 12.9882 40.6696 16.7551C40.8718 16.4749 41.0928 16.1254 41.3571 15.8148C41.6561 15.4624 42.0071 15.4234 42.3537 15.7686C43.1549 16.5668 43.955 17.367 44.7542 18.1691C45.0648 18.4825 45.0604 18.809 44.7542 19.1195C43.957 19.9226 43.1799 20.7487 42.3335 21.4969C42.1559 21.6558 41.5969 21.6529 41.4163 21.4969C40.5685 20.7502 39.79 19.9269 38.9898 19.1253C38.6793 18.8147 38.6836 18.4825 38.9898 18.1749C39.192 17.9741 39.4231 17.8022 39.6485 17.6087C34.7709 13.6353 26.6854 13.2756 21.3052 17.2577C21.8237 18.5418 21.7385 19.7651 20.6971 20.769C19.7077 21.7237 18.5306 21.8161 17.2913 21.3048C13.7801 25.7361 13.1027 33.7999 17.4733 39.5557C17.5195 39.5441 17.5787 39.547 17.6076 39.5181C18.6981 38.4565 18.6707 38.5186 19.7539 39.6207C20.2941 40.1695 20.83 40.7241 21.3875 41.2557C21.8208 41.6716 21.8584 42.0457 21.4092 42.479C20.687 43.1795 19.9648 43.8902 19.2643 44.6239C18.805 45.1063 18.4295 45.0572 17.9933 44.595C17.3192 43.8786 16.6211 43.181 15.899 42.5021C15.4151 42.0457 15.4324 41.6456 15.9264 41.2398C16.1878 41.026 16.4594 40.8252 16.7453 40.6043C14.8677 38.0593 13.7685 35.3728 13.3887 32.4104C13.0159 29.4838 13.4096 26.5106 14.5312 23.7819L14.3766 23.6894ZM20.4429 18.6342C20.4377 18.1623 20.2485 17.7111 19.9156 17.3766C19.5827 17.0421 19.1324 16.8507 18.6606 16.8432C18.1747 16.847 17.71 17.0427 17.3677 17.3877C17.0255 17.7326 16.8334 18.1988 16.8335 18.6847C16.8383 18.9243 16.8907 19.1605 16.9875 19.3797C17.0843 19.5988 17.2237 19.7966 17.3976 19.9614C17.5715 20.1263 17.7763 20.255 18.0003 20.3401C18.2243 20.4251 18.463 20.4649 18.7024 20.457C18.9363 20.4525 19.167 20.4017 19.3811 20.3077C19.5953 20.2136 19.7887 20.0781 19.9502 19.9089C20.1118 19.7397 20.2382 19.5402 20.3223 19.322C20.4063 19.1037 20.4463 18.8709 20.44 18.6371L20.4429 18.6342ZM18.6678 40.2648L17.079 41.7843L18.6793 43.4251L20.3201 41.8767L18.6678 40.2648ZM41.9508 17.0339L40.2392 18.6443L41.8583 20.2966L43.5395 18.6313L41.9508 17.0339ZM28.3652 9.7572C27.9608 9.48711 27.6892 9.17946 27.5188 9.22279C27.2805 9.28923 27.1172 9.62432 26.9208 9.84386C27.1317 10.0215 27.3339 10.3277 27.5534 10.3407C27.773 10.3537 27.981 10.0504 28.3652 9.7572ZM9.78356 26.6691C9.5048 27.0504 9.19138 27.3148 9.24049 27.4448C9.33581 27.699 9.63191 27.8781 9.84567 28.0875C10.0175 27.8968 10.3281 27.7062 10.3266 27.5097C10.3266 27.2916 10.0565 27.0692 9.78356 26.6691Z" fill="url(#paint0_linear_80_63)"/>
<path d="M22.9788 20.3819C23.2677 20.4859 23.4483 20.5465 23.6274 20.6173C28.3128 22.4892 33.0002 24.3596 37.6896 26.2286C37.9143 26.3041 38.1183 26.431 38.2853 26.5993C38.4523 26.7675 38.5777 26.9725 38.6515 27.1978C39.3053 28.9801 39.9875 30.7514 40.6982 32.5115C40.8399 32.8293 41.0799 33.093 41.3828 33.2641C42.3938 33.8172 43.4439 34.2997 44.4694 34.8283C45.115 35.1619 45.1786 35.4912 44.6774 35.9953C41.7887 38.8937 38.8947 41.7872 35.9954 44.6759C35.4855 45.1829 35.1576 45.1265 34.8254 44.4881C34.3156 43.5074 33.8144 42.5224 33.3435 41.5214C33.2568 41.3143 33.1265 41.1283 32.9616 40.976C32.7966 40.8238 32.6007 40.7088 32.3874 40.6389C30.6281 39.9947 28.8747 39.3289 27.1444 38.6168C26.7636 38.4488 26.456 38.1494 26.2777 37.7733C24.3582 33.0546 22.4849 28.3186 20.5798 23.5941C20.3602 23.0496 20.3934 22.6582 20.8528 22.2566C21.3958 21.7843 21.8638 21.234 22.3982 20.7415C22.5771 20.5995 22.772 20.4788 22.9788 20.3819ZM22.8012 21.7713L30.3393 29.3166C32.175 28.45 33.8462 28.7389 34.9049 30.1601C35.3767 30.7783 35.6201 31.5406 35.5937 32.3178C35.5674 33.095 35.273 33.8391 34.7604 34.4239C33.7162 35.64 31.9324 36.0127 30.5805 35.1562C29.9507 34.7301 29.4353 34.1557 29.0798 33.4836C28.4919 32.3888 28.7909 31.2535 29.2343 30.4765L21.7526 22.9976C21.7604 23.2059 21.7934 23.4125 21.8508 23.6129C23.636 28.101 25.4309 32.5852 27.2353 37.0656C27.3527 37.3176 27.5582 37.518 27.8131 37.6289C29.4625 38.2918 31.1351 38.9057 32.7846 39.5629C33.1514 39.7073 33.3868 39.6784 33.6714 39.3896C35.5649 37.4715 37.4845 35.5779 39.3694 33.6511C39.4581 33.5418 39.521 33.4138 39.5533 33.2767C39.5856 33.1397 39.5864 32.9971 39.5557 32.8596C38.9433 31.164 38.289 29.4842 37.6217 27.8116C37.525 27.5755 37.3459 27.3825 37.1176 27.2685C32.592 25.439 28.062 23.6273 23.5277 21.8334C23.3399 21.7612 23.1132 21.7959 22.8012 21.7713ZM34.1827 40.6389C34.6391 41.5445 35.1013 42.4574 35.4927 43.2315C38.0771 40.649 40.6515 38.0762 43.2157 35.5129L40.6158 34.213L34.1827 40.6389ZM29.9551 32.2371C29.9583 32.5325 30.0198 32.8243 30.1362 33.0958C30.2525 33.3673 30.4214 33.6132 30.633 33.8192C30.8447 34.0252 31.095 34.1874 31.3695 34.2964C31.6441 34.4053 31.9375 34.459 32.2328 34.4542C32.8169 34.4364 33.3717 34.1941 33.7817 33.7776C34.1917 33.3612 34.4254 32.8027 34.434 32.2183C34.4334 31.923 34.3746 31.6307 34.261 31.3582C34.1473 31.0856 33.981 30.8381 33.7716 30.6299C33.5622 30.4217 33.3137 30.2569 33.0405 30.1448C32.7673 30.0327 32.4747 29.9756 32.1794 29.9767C31.8845 29.9755 31.5923 30.0332 31.32 30.1464C31.0477 30.2595 30.8008 30.4259 30.5936 30.6358C30.3865 30.8456 30.2233 31.0947 30.1136 31.3685C30.004 31.6422 29.9501 31.9351 29.9551 32.2299V32.2371Z" fill="url(#paint1_linear_80_63)"/>
<defs>
<linearGradient id="paint0_linear_80_63" x1="36.6325" y1="44.9641" x2="5.22552" y2="43.6863" gradientUnits="userSpaceOnUse">
<stop stop-color="#AD00FF"/>
<stop offset="1" stop-color="#FF7A00"/>
</linearGradient>
<linearGradient id="paint1_linear_80_63" x1="39.4625" y1="45.0163" x2="18.6058" y2="44.1708" gradientUnits="userSpaceOnUse">
<stop stop-color="#AD00FF"/>
<stop offset="1" stop-color="#FF7A00"/>
</linearGradient>
</defs>
</svg>
