<svg width="54" height="54" viewBox="0 0 54 54" fill="none" xmlns="http://www.w3.org/2000/svg">
<rect x="12.5" y="24.5" width="5" height="5" rx="1.5" fill="url(#paint0_linear_80_37)" stroke="url(#paint1_linear_80_37)"/>
<rect x="24.5" y="24.5" width="5" height="5" rx="1.5" fill="url(#paint2_linear_80_37)" stroke="url(#paint3_linear_80_37)"/>
<rect x="12.5" y="12.5" width="5" height="5" rx="1.5" fill="url(#paint4_linear_80_37)" stroke="url(#paint5_linear_80_37)"/>
<rect x="24.5" y="36.5" width="5" height="5" rx="1.5" fill="url(#paint6_linear_80_37)" stroke="url(#paint7_linear_80_37)"/>
<rect x="36.5" y="36.5" width="5" height="5" rx="1.5" stroke="url(#paint8_linear_80_37)"/>
<rect x="12.5" y="36.5" width="5" height="5" rx="1.5" stroke="url(#paint9_linear_80_37)"/>
<defs>
<linearGradient id="paint0_linear_80_37" x1="16.6449" y1="30" x2="11.5499" y2="29.7928" gradientUnits="userSpaceOnUse">
<stop stop-color="#AD00FF"/>
<stop offset="1" stop-color="#FF7A00"/>
</linearGradient>
<linearGradient id="paint1_linear_80_37" x1="16.6449" y1="30" x2="11.5499" y2="29.7928" gradientUnits="userSpaceOnUse">
<stop stop-color="#AD00FF"/>
<stop offset="1" stop-color="#FF7A00"/>
</linearGradient>
<linearGradient id="paint2_linear_80_37" x1="28.6449" y1="30" x2="23.5499" y2="29.7928" gradientUnits="userSpaceOnUse">
<stop stop-color="#AD00FF"/>
<stop offset="1" stop-color="#FF7A00"/>
</linearGradient>
<linearGradient id="paint3_linear_80_37" x1="28.6449" y1="30" x2="23.5499" y2="29.7928" gradientUnits="userSpaceOnUse">
<stop stop-color="#AD00FF"/>
<stop offset="1" stop-color="#FF7A00"/>
</linearGradient>
<linearGradient id="paint4_linear_80_37" x1="16.6449" y1="18" x2="11.5499" y2="17.7928" gradientUnits="userSpaceOnUse">
<stop stop-color="#AD00FF"/>
<stop offset="1" stop-color="#FF7A00"/>
</linearGradient>
<linearGradient id="paint5_linear_80_37" x1="16.6449" y1="18" x2="11.5499" y2="17.7928" gradientUnits="userSpaceOnUse">
<stop stop-color="#AD00FF"/>
<stop offset="1" stop-color="#FF7A00"/>
</linearGradient>
<linearGradient id="paint6_linear_80_37" x1="28.6449" y1="42" x2="23.5499" y2="41.7928" gradientUnits="userSpaceOnUse">
<stop stop-color="#AD00FF"/>
<stop offset="1" stop-color="#FF7A00"/>
</linearGradient>
<linearGradient id="paint7_linear_80_37" x1="28.6449" y1="42" x2="23.5499" y2="41.7928" gradientUnits="userSpaceOnUse">
<stop stop-color="#AD00FF"/>
<stop offset="1" stop-color="#FF7A00"/>
</linearGradient>
<linearGradient id="paint8_linear_80_37" x1="40.6449" y1="42" x2="35.5499" y2="41.7928" gradientUnits="userSpaceOnUse">
<stop stop-color="#AD00FF"/>
<stop offset="1" stop-color="#FF7A00"/>
</linearGradient>
<linearGradient id="paint9_linear_80_37" x1="16.6449" y1="42" x2="11.5499" y2="41.7928" gradientUnits="userSpaceOnUse">
<stop stop-color="#AD00FF"/>
<stop offset="1" stop-color="#FF7A00"/>
</linearGradient>
</defs>
</svg>
