<svg width="226" height="603" viewBox="0 0 226 603" fill="none" xmlns="http://www.w3.org/2000/svg">
<rect x="0.1" y="0.1" width="225.8" height="602.8" fill="#F8F8F8" stroke="#CECECE" stroke-width="0.2"/>
<path d="M27.475 532.375C27.475 526.068 28.685 521.1 31.105 517.47C33.5617 513.84 37.5033 512.025 42.93 512.025C48.3567 512.025 52.28 513.84 54.7 517.47C57.1567 521.1 58.385 526.068 58.385 532.375C58.385 538.755 57.1567 543.76 54.7 547.39C52.28 551.02 48.3567 552.835 42.93 552.835C37.5033 552.835 33.5617 551.02 31.105 547.39C28.685 543.76 27.475 538.755 27.475 532.375ZM49.145 532.375C49.145 528.672 48.7417 525.83 47.935 523.85C47.1283 521.833 45.46 520.825 42.93 520.825C40.4 520.825 38.7317 521.833 37.925 523.85C37.1183 525.83 36.715 528.672 36.715 532.375C36.715 534.868 36.8617 536.94 37.155 538.59C37.4483 540.203 38.035 541.523 38.915 542.55C39.8317 543.54 41.17 544.035 42.93 544.035C44.69 544.035 46.01 543.54 46.89 542.55C47.8067 541.523 48.4117 540.203 48.705 538.59C48.9983 536.94 49.145 534.868 49.145 532.375ZM62.5839 524.18C62.7306 520.257 64.0139 517.232 66.4339 515.105C68.8539 512.978 72.1356 511.915 76.2789 511.915C79.0289 511.915 81.3756 512.392 83.3189 513.345C85.2989 514.298 86.7839 515.6 87.7739 517.25C88.8006 518.9 89.3139 520.752 89.3139 522.805C89.3139 525.225 88.7089 527.205 87.4989 528.745C86.2889 530.248 84.8772 531.275 83.2639 531.825V532.045C85.3539 532.742 87.0039 533.897 88.2139 535.51C89.4239 537.123 90.0289 539.195 90.0289 541.725C90.0289 543.998 89.4972 546.015 88.4339 547.775C87.4072 549.498 85.8856 550.855 83.8689 551.845C81.8889 552.835 79.5239 553.33 76.7739 553.33C72.3739 553.33 68.8539 552.248 66.2139 550.085C63.6106 547.922 62.2356 544.658 62.0889 540.295H71.2189C71.2556 541.908 71.7139 543.192 72.5939 544.145C73.4739 545.062 74.7572 545.52 76.4439 545.52C77.8739 545.52 78.9739 545.117 79.7439 544.31C80.5506 543.467 80.9539 542.367 80.9539 541.01C80.9539 539.25 80.3856 537.985 79.2489 537.215C78.1489 536.408 76.3706 536.005 73.9139 536.005H72.1539V528.36H73.9139C75.7839 528.36 77.2872 528.048 78.4239 527.425C79.5972 526.765 80.1839 525.61 80.1839 523.96C80.1839 522.64 79.8172 521.613 79.0839 520.88C78.3506 520.147 77.3422 519.78 76.0589 519.78C74.6656 519.78 73.6206 520.202 72.9239 521.045C72.2639 521.888 71.8789 522.933 71.7689 524.18H62.5839Z" fill="#D3D3D3" fill-opacity="0.31"/>
</svg>
