<svg width="54" height="54" viewBox="0 0 54 54" fill="none" xmlns="http://www.w3.org/2000/svg">
<path d="M32.5319 20.0687L32.5347 20.0689C34.3525 20.2074 35.7401 20.8021 36.7572 21.8225C35.9766 22.4279 35.3396 23.1238 34.8662 23.9225C34.2137 25.0236 33.9038 26.267 33.9091 27.6363C33.9086 27.6134 33.9061 27.7796 33.9078 27.8797C33.9103 28.0296 33.9197 28.2323 33.9464 28.4756C33.9996 28.9609 34.1221 29.6144 34.4002 30.3368C34.8969 31.627 35.8786 33.102 37.7589 34.215C37.3117 35.3236 36.5904 36.7614 35.6936 38.0108C35.1299 38.7961 34.5227 39.4706 33.9026 39.9431C33.284 40.4146 32.7121 40.6412 32.1926 40.6505C31.4812 40.649 30.9143 40.4308 30.1266 40.1276L30.1194 40.1248C29.3406 39.825 28.3901 39.4656 27.1355 39.4656C25.8609 39.4656 24.8824 39.8068 24.0825 40.1072C24.03 40.1269 23.9787 40.1462 23.9285 40.1651C23.1841 40.4455 22.6759 40.637 22.0865 40.6508L22.0865 40.6508L22.0799 40.651C21.603 40.6654 21.0369 40.4542 20.3858 39.9473C19.7406 39.4449 19.0963 38.7162 18.4918 37.8681C17.2826 36.1717 16.3464 34.1601 15.9487 33.0214C15.3455 31.2651 15.0508 29.5804 15.0508 27.9662C15.0508 22.6363 18.5349 20.1888 21.6856 20.1361C22.384 20.1379 23.2444 20.4007 24.1737 20.7313C24.2952 20.7746 24.4196 20.8195 24.5445 20.8647C24.8649 20.9806 25.189 21.0978 25.4777 21.1904C25.8609 21.3134 26.3223 21.4424 26.7428 21.4424C27.1747 21.4424 27.6701 21.2807 28.0554 21.1465C28.2533 21.0775 28.4662 20.9989 28.6807 20.9197C28.7003 20.9124 28.72 20.9052 28.7397 20.8979C28.9777 20.81 29.2222 20.7202 29.4756 20.6323C30.5122 20.2729 31.576 19.9933 32.5319 20.0687ZM28.9986 14.9296L28.9986 14.9297L29.0072 14.9197C29.67 14.1491 30.7202 13.4843 31.7474 13.1596C31.6577 13.9419 31.3443 14.9877 30.3956 16.1153C29.5041 17.1552 28.545 17.7819 27.5664 17.9802C27.6958 16.8533 28.2073 15.8256 28.9986 14.9296Z" stroke="url(#paint0_linear_80_26)" stroke-width="2"/>
<defs>
<linearGradient id="paint0_linear_80_26" x1="33.3649" y1="41.6515" x2="12.1689" y2="40.9275" gradientUnits="userSpaceOnUse">
<stop stop-color="#AD00FF"/>
<stop offset="1" stop-color="#FF7A00"/>
</linearGradient>
</defs>
</svg>
