<svg width="226" height="603" viewBox="0 0 226 603" fill="none" xmlns="http://www.w3.org/2000/svg">
<rect x="0.1" y="0.1" width="225.8" height="602.8" fill="#F8F8F8" stroke="#CECECE" stroke-width="0.2"/>
<path d="M27.475 532.375C27.475 526.068 28.685 521.1 31.105 517.47C33.5617 513.84 37.5033 512.025 42.93 512.025C48.3567 512.025 52.28 513.84 54.7 517.47C57.1567 521.1 58.385 526.068 58.385 532.375C58.385 538.755 57.1567 543.76 54.7 547.39C52.28 551.02 48.3567 552.835 42.93 552.835C37.5033 552.835 33.5617 551.02 31.105 547.39C28.685 543.76 27.475 538.755 27.475 532.375ZM49.145 532.375C49.145 528.672 48.7417 525.83 47.935 523.85C47.1283 521.833 45.46 520.825 42.93 520.825C40.4 520.825 38.7317 521.833 37.925 523.85C37.1183 525.83 36.715 528.672 36.715 532.375C36.715 534.868 36.8617 536.94 37.155 538.59C37.4483 540.203 38.035 541.523 38.915 542.55C39.8317 543.54 41.17 544.035 42.93 544.035C44.69 544.035 46.01 543.54 46.89 542.55C47.8067 541.523 48.4117 540.203 48.705 538.59C48.9983 536.94 49.145 534.868 49.145 532.375ZM61.9239 545.465C63.1706 544.475 63.7389 544.017 63.6289 544.09C67.2222 541.12 70.0456 538.682 72.0989 536.775C74.1889 534.868 75.9489 532.87 77.3789 530.78C78.8089 528.69 79.5239 526.655 79.5239 524.675C79.5239 523.172 79.1756 521.998 78.4789 521.155C77.7822 520.312 76.7372 519.89 75.3439 519.89C73.9506 519.89 72.8506 520.422 72.0439 521.485C71.2739 522.512 70.8889 523.978 70.8889 525.885H61.8139C61.8872 522.768 62.5472 520.165 63.7939 518.075C65.0772 515.985 66.7456 514.445 68.7989 513.455C70.8889 512.465 73.1989 511.97 75.7289 511.97C80.0922 511.97 83.3739 513.088 85.5739 515.325C87.8106 517.562 88.9289 520.477 88.9289 524.07C88.9289 527.993 87.5906 531.642 84.9139 535.015C82.2372 538.352 78.8272 541.615 74.6839 544.805H89.5339V552.45H61.9239V545.465Z" fill="#D3D3D3" fill-opacity="0.31"/>
</svg>
