<svg width="139" height="35" viewBox="0 0 139 35" fill="none" xmlns="http://www.w3.org/2000/svg">
<path d="M18.3908 16.7867C22.6427 23.1066 27.0818 24.3263 31.708 20.4459L40.0159 7.71458C40.8785 6.39515 38.8809 5.09211 38.0204 6.41155L32.7898 14.4265C32.2837 15.203 31.1098 14.4265 31.6158 13.6602L39.2947 1.89392C40.0589 0.722003 38.2601 -0.882211 37.2992 0.590882L26.3709 17.3337C25.8935 18.0652 24.6335 17.43 25.1969 16.5675L34.6562 2.07217C35.5126 0.760929 33.5151 -0.542108 32.6587 0.771178L25.5411 11.677C25.035 12.4535 23.859 11.6872 24.3671 10.9107L28.5938 4.43444C29.4543 3.11501 27.4588 1.81197 26.5962 3.1314L18.0384 16.2499L18.3887 16.7867H18.3908Z" fill="url(#paint0_linear_901_121)"/>
<path d="M18.485 15.2522L12.5906 6.221C11.5874 4.71521 10.0309 3.66582 8.25878 3.3006C6.48667 2.93539 4.64204 3.28382 3.12525 4.27029C1.60847 5.25675 0.541953 6.80162 0.157193 8.56958C-0.227567 10.3375 0.100481 12.1859 1.07013 13.7135L1.08243 13.7319L12.4205 31.1058C14.9959 35.0518 19.6385 36.4081 23.2403 33.0706C24.4429 31.9561 26.0328 29.1636 26.9077 27.8257L32.2653 19.6161C27.6377 23.4966 23.1986 22.2768 18.948 15.9569L18.5977 15.4181L18.485 15.2522ZM18.9439 15.9569L18.5936 15.4181C18.7104 15.6005 18.8292 15.7787 18.946 15.9549L18.9439 15.9569Z" fill="url(#paint1_linear_901_121)"/>
<path d="M52.8681 32.8002C51.7945 32.8002 51.0023 32.2245 50.4915 31.073L44.0849 16.1905C43.7775 15.4994 43.7646 14.8847 44.0459 14.3466C44.3287 13.8077 44.9023 13.5393 45.7731 13.5393C46.1784 13.5232 46.5772 13.6453 46.904 13.8856C47.2625 14.2089 47.5331 14.6177 47.6908 15.0739L52.946 28.0388L58.3159 15.0739C58.474 14.6179 58.7446 14.2092 59.1026 13.8856C59.4674 13.6341 59.906 13.5122 60.3483 13.5393C61.0387 13.5393 61.512 13.8098 61.7681 14.3466C62.0242 14.8834 62.0099 15.4837 61.7292 16.1495L55.2468 31.0689C54.7673 32.2231 53.9745 32.8002 52.8681 32.8002ZM73.0448 32.876C69.9756 32.876 67.5594 32.0135 65.7961 30.2884C64.0327 28.5633 63.1531 26.2058 63.1572 23.2159C63.1572 21.3036 63.5472 19.61 64.3271 18.1348C65.0642 16.709 66.1873 15.5191 67.5683 14.701C69.0121 13.8647 70.6574 13.4396 72.3256 13.4717C74.9085 13.4717 76.9416 14.2967 78.4249 15.9467C79.9083 17.5967 80.6499 19.8661 80.6499 22.7549C80.6499 23.6236 80.1384 24.0579 79.1154 24.0579H66.9168C67.1968 27.9438 69.2552 29.8875 73.0919 29.8888C73.9059 29.8826 74.7166 29.7864 75.5095 29.602C76.3848 29.397 77.2171 29.0391 77.968 28.5448C78.5048 28.2395 78.9699 28.135 79.3674 28.2191C79.5515 28.255 79.7249 28.3325 79.8744 28.4458C80.024 28.5591 80.1455 28.7051 80.2299 28.8726C80.4103 29.2286 80.4448 29.6409 80.3262 30.022C80.1765 30.4884 79.854 30.8799 79.4247 31.1161C78.4909 31.7301 77.4572 32.1766 76.37 32.4355C75.2868 32.7191 74.1726 32.8671 73.053 32.876H73.0448ZM72.469 16.1905C70.8587 16.1905 69.5802 16.689 68.6337 17.6861C67.6871 18.6832 67.1121 20.0129 66.9086 21.6752H77.38C77.3049 19.9378 76.8446 18.589 75.9991 17.6288C75.1537 16.6686 73.977 16.1905 72.469 16.1946V16.1905ZM85.8191 32.8002C84.5406 32.8002 83.9014 32.148 83.9014 30.8436V15.5001C83.9014 14.197 84.5276 13.5448 85.7802 13.5434C87.0327 13.5421 87.6596 14.1943 87.661 15.5001V16.9199C88.2675 15.8259 89.1804 14.9329 90.2875 14.3507C91.4427 13.7525 92.7279 13.4491 94.0287 13.4676C98.4513 13.4676 100.663 15.974 100.663 20.9868V30.8436C100.663 32.1466 100.023 32.7988 98.745 32.8002C97.442 32.8002 96.7904 32.148 96.7904 30.8436V21.2142C96.7904 19.6011 96.477 18.4244 95.85 17.6841C95.2231 16.9438 94.2445 16.5729 92.9141 16.5716C91.3556 16.5716 90.1093 17.064 89.175 18.0488C88.2408 19.0336 87.7736 20.3311 87.7736 21.9415V30.8415C87.7791 32.1487 87.1303 32.8016 85.8273 32.8002H85.8191ZM105.764 32.5318C105.203 32.5318 104.788 32.3652 104.519 32.0319C104.245 31.684 104.121 31.242 104.172 30.8026C104.233 30.2687 104.47 29.77 104.844 29.3848L114.511 16.8031H105.543C104.546 16.8031 104.047 16.3046 104.047 15.3075C104.047 14.3104 104.546 13.8118 105.543 13.8118H117.127C117.766 13.8118 118.239 13.9778 118.545 14.3097C118.697 14.4694 118.812 14.6603 118.883 14.869C118.953 15.0777 118.978 15.2993 118.954 15.5185C118.895 16.0404 118.674 16.5305 118.321 16.9199L108.534 29.5774H117.971C118.994 29.5774 119.505 30.0637 119.504 31.0362C119.504 32.0319 118.993 32.5304 117.971 32.5318H105.764ZM129.776 32.876C127.886 32.876 126.247 32.4799 124.859 31.6877C123.494 30.9048 122.387 29.7406 121.673 28.3379C120.917 26.8928 120.539 25.1732 120.54 23.179C120.542 21.1848 120.919 19.4652 121.673 18.0201C122.39 16.6128 123.503 15.4462 124.876 14.6641C126.256 13.8706 127.895 13.4745 129.793 13.4758C131.635 13.4758 133.246 13.8719 134.626 14.6641C136.001 15.4493 137.12 16.6146 137.849 18.0201C138.615 19.4638 138.999 21.1834 139 23.179C139.001 25.1745 138.615 26.8942 137.84 28.3379C137.109 29.741 135.99 30.9039 134.616 31.6877C133.235 32.4799 131.624 32.876 129.782 32.876H129.776ZM129.776 29.8847C131.362 29.8847 132.641 29.3097 133.614 28.1596C134.586 27.0096 135.072 25.3473 135.07 23.1728C135.07 20.9997 134.585 19.3436 133.614 18.2045C132.643 17.0653 131.363 16.4965 129.776 16.4978C128.166 16.4978 126.874 17.0667 125.902 18.2045C124.929 19.3422 124.444 20.9984 124.445 23.1728C124.445 25.3446 124.931 27.0062 125.902 28.1576C126.873 29.309 128.165 29.8847 129.776 29.8847Z" fill="url(#paint2_linear_901_121)"/>
<defs>
<linearGradient id="paint0_linear_901_121" x1="36.3051" y1="-2.20365" x2="23.48" y2="19.773" gradientUnits="userSpaceOnUse">
<stop stop-color="#EC3939"/>
<stop offset="0.6" stop-color="#C83443"/>
<stop offset="1" stop-color="#00157D"/>
</linearGradient>
<linearGradient id="paint1_linear_901_121" x1="8.62167" y1="3.12452" x2="25.0769" y2="31.6813" gradientUnits="userSpaceOnUse">
<stop stop-color="#1C9EDC"/>
<stop offset="1" stop-color="#0E3C91"/>
</linearGradient>
<linearGradient id="paint2_linear_901_121" x1="43.9087" y1="23.3568" x2="139.047" y2="23.3568" gradientUnits="userSpaceOnUse">
<stop stop-color="#0E4698"/>
<stop offset="1" stop-color="#E0373C"/>
</linearGradient>
</defs>
</svg>
