<svg width="140" height="35" viewBox="0 0 140 35" fill="none" xmlns="http://www.w3.org/2000/svg">
<path d="M18.4124 16.8066C22.6694 23.134 27.1137 24.3552 31.7454 20.4701L40.0632 7.72373C40.9268 6.40274 38.9268 5.09815 38.0653 6.41915L32.8285 14.4436C32.3218 15.221 31.1465 14.4436 31.6531 13.6764L39.3412 1.89617C40.1063 0.722859 38.3053 -0.883257 37.3433 0.591583L26.402 17.3543C25.924 18.0866 24.6625 17.4507 25.2266 16.5871L34.6972 2.07462C35.5546 0.761831 33.5546 -0.542751 32.6972 0.772093L25.5712 11.6908C25.0645 12.4682 23.8871 11.7011 24.3958 10.9237L28.6275 4.4397C29.4891 3.1187 27.4912 1.81412 26.6276 3.13512L18.0596 16.2692L18.4103 16.8066H18.4124Z" fill="white"/>
<path d="M18.5069 15.2702L12.6055 6.22834C11.6012 4.72076 10.0428 3.67013 8.26857 3.30448C6.49436 2.93883 4.64754 3.28768 3.12896 4.27531C1.61038 5.26294 0.542596 6.80965 0.15738 8.5797C-0.227836 10.3498 0.100601 12.2003 1.0714 13.7297L1.08371 13.7482L12.4353 31.1427C15.0137 35.0934 19.6618 36.4513 23.2678 33.1098C24.4719 31.9939 26.0637 29.1981 26.9396 27.8586L32.3035 19.6393C27.6705 23.5244 23.2261 22.3032 18.9705 15.9758L18.6197 15.4364L18.5069 15.2702ZM18.9664 15.9758L18.6156 15.4364C18.7326 15.6189 18.8515 15.7974 18.9685 15.9738L18.9664 15.9758Z" fill="white"/>
<path d="M52.9308 32.8392C51.856 32.8392 51.0628 32.2628 50.5514 31.11L44.1372 16.2098C43.8295 15.5179 43.8165 14.9025 44.0982 14.3637C44.3813 13.8242 44.9556 13.5555 45.8274 13.5555C46.2332 13.5393 46.6325 13.6616 46.9597 13.9022C47.3186 14.2258 47.5896 14.6351 47.7474 15.0919L53.0088 28.0721L58.3851 15.0919C58.5434 14.6354 58.8143 14.2262 59.1727 13.9022C59.538 13.6504 59.9771 13.5283 60.4199 13.5555C61.1112 13.5555 61.585 13.8263 61.8414 14.3637C62.0978 14.9011 62.0835 15.5021 61.8024 16.1688L55.3123 31.1059C54.8323 32.2614 54.0385 32.8392 52.9308 32.8392ZM73.1314 32.9151C70.0587 32.9151 67.6396 32.0515 65.8741 30.3244C64.1087 28.5972 63.228 26.2369 63.2321 23.2435C63.2321 21.329 63.6226 19.6333 64.4034 18.1564C65.1414 16.7289 66.2658 15.5376 67.6485 14.7186C69.094 13.8812 70.7412 13.4556 72.4114 13.4878C74.9974 13.4878 77.0329 14.3138 78.518 15.9657C80.0031 17.6176 80.7456 19.8897 80.7456 22.782C80.7456 23.6517 80.2335 24.0866 79.2092 24.0866H66.9962C67.2765 27.9771 69.3373 29.923 73.1786 29.9244C73.9935 29.9181 74.8053 29.8218 75.5991 29.6372C76.4754 29.4319 77.3087 29.0736 78.0605 28.5788C78.598 28.2731 79.0636 28.1685 79.4615 28.2526C79.6459 28.2886 79.8195 28.3662 79.9692 28.4797C80.1189 28.5931 80.2406 28.7392 80.3251 28.907C80.5057 29.2634 80.5402 29.6762 80.4215 30.0577C80.2716 30.5247 79.9487 30.9166 79.519 31.1531C78.584 31.7678 77.5491 32.2148 76.4606 32.4741C75.3761 32.758 74.2606 32.9061 73.1396 32.9151H73.1314ZM72.555 16.2098C70.9427 16.2098 69.6628 16.7089 68.7151 17.7072C67.7674 18.7055 67.1917 20.0367 66.988 21.701H77.4718C77.3966 19.9615 76.9358 18.6111 76.0893 17.6498C75.2428 16.6884 74.0647 16.2098 72.555 16.2139V16.2098ZM85.9209 32.8392C84.6409 32.8392 84.0009 32.1862 84.0009 30.8803V15.5185C84.0009 14.214 84.6279 13.561 85.8819 13.5596C87.1359 13.5582 87.7636 14.2112 87.7649 15.5185V16.9401C88.3722 15.8448 89.2862 14.9508 90.3946 14.3678C91.5512 13.7689 92.8379 13.4652 94.1402 13.4837C98.5681 13.4837 100.782 15.9931 100.782 21.0118V30.8803C100.782 32.1848 100.142 32.8378 98.8621 32.8392C97.5576 32.8392 96.9053 32.1862 96.9053 30.8803V21.2394C96.9053 19.6244 96.5914 18.4463 95.9637 17.7052C95.3361 16.964 94.3563 16.5927 93.0243 16.5913C91.464 16.5913 90.2162 17.0843 89.2808 18.0703C88.3455 19.0562 87.8778 20.3554 87.8778 21.9676V30.8782C87.8832 32.1869 87.2337 32.8406 85.9291 32.8392H85.9209ZM105.89 32.5705C105.328 32.5705 104.912 32.4036 104.643 32.07C104.369 31.7217 104.244 31.2792 104.296 30.8392C104.357 30.3047 104.593 29.8054 104.969 29.4198L114.646 16.8231H105.668C104.67 16.8231 104.171 16.324 104.171 15.3257C104.171 14.3275 104.67 13.8283 105.668 13.8283H117.266C117.906 13.8283 118.379 13.9945 118.685 14.3268C118.837 14.4867 118.953 14.6778 119.024 14.8867C119.094 15.0957 119.119 15.3176 119.096 15.537C119.036 16.0595 118.815 16.5502 118.462 16.9401L108.663 29.6126H118.111C119.135 29.6126 119.647 30.0994 119.645 31.0731C119.645 32.07 119.134 32.5691 118.111 32.5705H105.89ZM129.93 32.9151C128.038 32.9151 126.397 32.5185 125.007 31.7254C123.64 30.9415 122.532 29.776 121.818 28.3716C121.06 26.9248 120.682 25.2031 120.683 23.2066C120.685 21.21 121.063 19.4884 121.818 18.0416C122.535 16.6326 123.65 15.4646 125.024 14.6816C126.406 13.8871 128.047 13.4906 129.947 13.4919C131.791 13.4919 133.404 13.8885 134.785 14.6816C136.162 15.4678 137.282 16.6344 138.012 18.0416C138.779 19.487 139.163 21.2087 139.165 23.2066C139.166 25.2045 138.779 26.9262 138.004 28.3716C137.272 29.7763 136.151 30.9406 134.775 31.7254C133.393 32.5185 131.78 32.9151 129.936 32.9151H129.93ZM129.93 29.9203C131.518 29.9203 132.798 29.3446 133.772 28.1931C134.746 27.0417 135.232 25.3775 135.231 23.2004C135.231 21.0247 134.744 19.3667 133.772 18.2262C132.8 17.0857 131.519 16.5161 129.93 16.5175C128.318 16.5175 127.025 17.087 126.051 18.2262C125.078 19.3653 124.591 21.0234 124.593 23.2004C124.593 25.3747 125.079 27.0383 126.051 28.1911C127.024 29.3439 128.317 29.9203 129.93 29.9203Z" fill="white"/>
</svg>
