<svg width="54" height="54" viewBox="0 0 54 54" fill="none" xmlns="http://www.w3.org/2000/svg">
<path d="M8 17.625C8 17.625 8 13 12.625 13H40.375C40.375 13 45 13 45 17.625V31.5C45 31.5 45 36.125 40.375 36.125H31.125C31.125 37.6674 31.3169 38.8237 31.7031 39.5938H33.4375C33.7442 39.5938 34.0383 39.7156 34.2551 39.9324C34.4719 40.1492 34.5938 40.4433 34.5938 40.75C34.5938 41.0567 34.4719 41.3508 34.2551 41.5676C34.0383 41.7844 33.7442 41.9062 33.4375 41.9062H19.5625C19.2558 41.9062 18.9617 41.7844 18.7449 41.5676C18.5281 41.3508 18.4062 41.0567 18.4062 40.75C18.4062 40.4433 18.5281 40.1492 18.7449 39.9324C18.9617 39.7156 19.2558 39.5938 19.5625 39.5938H21.2969C21.6831 38.8237 21.875 37.6674 21.875 36.125H12.625C12.625 36.125 8 36.125 8 31.5V17.625ZM11.2329 15.6478C10.9789 15.8247 10.7762 16.0656 10.6455 16.3462C10.4484 16.7535 10.3351 17.1962 10.3125 17.6481V31.5C10.3125 32.2516 10.4929 32.6609 10.6478 32.8921C10.8097 33.1349 11.0409 33.3269 11.3462 33.4795C11.7359 33.6683 12.1583 33.7805 12.5903 33.8102L12.6481 33.8125H40.375C41.1266 33.8125 41.5359 33.6321 41.7671 33.4772C42.0211 33.3003 42.2238 33.0594 42.3545 32.7788C42.5433 32.3891 42.6555 31.9667 42.6852 31.5347L42.6875 31.4769V17.625C42.6875 16.8734 42.5071 16.4641 42.3522 16.2329C42.1754 15.9788 41.9344 15.7761 41.6538 15.6455C41.2465 15.4484 40.8038 15.3351 40.3519 15.3125H12.625C11.8734 15.3125 11.4641 15.4929 11.2329 15.6478Z" fill="black"/>
</svg>
