<svg width="1080" height="524" viewBox="0 0 1080 524" fill="none" xmlns="http://www.w3.org/2000/svg">
<g clip-path="url(#clip0_53_2640)">
<path d="M761.322 425.127C766.604 432.978 772.118 434.493 777.865 429.673L788.186 413.857C789.257 412.218 786.776 410.6 785.707 412.239L779.209 422.195C778.58 423.16 777.122 422.195 777.751 421.243L787.29 406.627C788.239 405.171 786.004 403.178 784.811 405.008L771.235 425.807C770.642 426.715 769.077 425.926 769.777 424.855L781.527 406.848C782.591 405.219 780.11 403.6 779.046 405.232L770.204 418.78C769.576 419.744 768.115 418.792 768.746 417.828L773.996 409.783C775.065 408.144 772.586 406.525 771.515 408.164L760.884 424.46L761.319 425.127H761.322Z" fill="url(#paint0_linear_53_2640)"/>
<path d="M761.439 423.221L754.116 412.002C752.87 410.132 750.937 408.828 748.735 408.374C746.534 407.921 744.242 408.354 742.358 409.579C740.474 410.804 739.149 412.723 738.671 414.92C738.193 417.116 738.601 419.412 739.805 421.31L739.82 421.333L753.905 442.915C757.104 447.817 762.872 449.502 767.346 445.356C768.84 443.972 770.815 440.503 771.902 438.841L778.557 428.642C772.809 433.463 767.294 431.948 762.014 424.097L761.579 423.427L761.439 423.221ZM762.009 424.097L761.574 423.427C761.719 423.654 761.866 423.875 762.011 424.094L762.009 424.097Z" fill="url(#paint1_linear_53_2640)"/>
<path d="M804.151 445.02C802.818 445.02 801.834 444.305 801.199 442.874L793.24 424.386C792.859 423.528 792.842 422.764 793.192 422.096C793.543 421.426 794.256 421.093 795.338 421.093C795.841 421.073 796.336 421.225 796.742 421.523C797.188 421.925 797.524 422.433 797.72 422.999L804.248 439.105L810.919 422.999C811.115 422.433 811.451 421.925 811.896 421.523C812.349 421.211 812.894 421.059 813.444 421.093C814.301 421.093 814.889 421.429 815.207 422.096C815.526 422.763 815.508 423.508 815.159 424.336L807.106 442.869C806.511 444.303 805.526 445.02 804.151 445.02ZM829.216 445.114C825.403 445.114 822.402 444.042 820.211 441.899C818.021 439.756 816.928 436.828 816.933 433.114C816.933 430.738 817.417 428.634 818.386 426.802C819.302 425.03 820.697 423.552 822.413 422.536C824.206 421.497 826.25 420.969 828.322 421.009C831.531 421.009 834.057 422.034 835.899 424.084C837.742 426.133 838.663 428.952 838.663 432.541C838.663 433.62 838.028 434.16 836.757 434.16H821.603C821.951 438.987 824.508 441.401 829.274 441.403C830.286 441.395 831.293 441.276 832.278 441.047C833.365 440.792 834.399 440.348 835.332 439.734C835.999 439.354 836.576 439.225 837.07 439.329C837.299 439.373 837.514 439.47 837.7 439.611C837.886 439.751 838.037 439.933 838.142 440.141C838.366 440.583 838.409 441.095 838.261 441.569C838.075 442.148 837.675 442.634 837.141 442.928C835.981 443.69 834.697 444.245 833.347 444.567C832.001 444.919 830.617 445.103 829.226 445.114H829.216ZM828.501 424.386C826.5 424.386 824.912 425.006 823.736 426.244C822.56 427.483 821.846 429.135 821.593 431.2H834.601C834.508 429.041 833.936 427.366 832.886 426.173C831.836 424.98 830.374 424.386 828.501 424.391V424.386ZM845.085 445.02C843.497 445.02 842.702 444.21 842.702 442.589V423.529C842.702 421.91 843.48 421.1 845.036 421.098C846.592 421.096 847.371 421.907 847.373 423.529V425.292C848.126 423.934 849.26 422.824 850.636 422.101C852.071 421.358 853.667 420.981 855.283 421.004C860.777 421.004 863.524 424.117 863.524 430.345V442.589C863.524 444.208 862.73 445.018 861.142 445.02C859.523 445.02 858.714 444.21 858.714 442.589V430.627C858.714 428.623 858.324 427.161 857.546 426.242C856.767 425.322 855.551 424.861 853.898 424.86C851.963 424.86 850.414 425.471 849.254 426.695C848.093 427.918 847.513 429.53 847.513 431.531V442.587C847.52 444.21 846.714 445.022 845.095 445.02H845.085ZM869.862 444.686C869.164 444.686 868.648 444.479 868.314 444.065C867.975 443.633 867.82 443.084 867.884 442.538C867.96 441.875 868.253 441.256 868.719 440.777L880.727 425.147H869.587C868.348 425.147 867.729 424.528 867.729 423.289C867.729 422.051 868.348 421.432 869.587 421.432H883.977C884.771 421.432 885.358 421.638 885.738 422.05C885.927 422.248 886.07 422.485 886.158 422.745C886.246 423.004 886.276 423.279 886.247 423.552C886.174 424.2 885.899 424.809 885.461 425.292L873.303 441.016H885.025C886.296 441.016 886.931 441.62 886.929 442.828C886.929 444.065 886.295 444.685 885.025 444.686H869.862ZM899.691 445.114C897.342 445.114 895.306 444.622 893.582 443.638C891.886 442.665 890.511 441.219 889.625 439.476C888.685 437.681 888.215 435.545 888.217 433.068C888.219 430.591 888.688 428.454 889.625 426.659C890.515 424.911 891.898 423.462 893.603 422.49C895.318 421.504 897.354 421.012 899.711 421.014C902 421.014 904.001 421.506 905.715 422.49C907.423 423.466 908.813 424.913 909.718 426.659C910.67 428.453 911.147 430.589 911.149 433.068C911.15 435.547 910.67 437.683 909.708 439.476C908.8 441.219 907.409 442.664 905.702 443.638C903.987 444.622 901.985 445.114 899.698 445.114H899.691ZM899.691 441.398C901.66 441.398 903.249 440.684 904.458 439.255C905.666 437.826 906.269 435.761 906.267 433.06C906.267 430.361 905.664 428.303 904.458 426.888C903.251 425.473 901.662 424.766 899.691 424.768C897.69 424.768 896.086 425.475 894.878 426.888C893.67 428.302 893.066 430.359 893.068 433.06C893.068 435.758 893.671 437.822 894.878 439.253C896.084 440.683 897.688 441.398 899.691 441.398Z" fill="url(#paint2_linear_53_2640)"/>
</g>
<g clip-path="url(#clip1_53_2640)">
<path d="M984.178 218.146L939.519 254.895L978.31 211.996L984.178 218.146Z" fill="url(#paint3_linear_53_2640)"/>
<path d="M950.935 191.507L916.649 248.408L942.537 187.231L950.935 191.507Z" fill="#1FA4D3"/>
<path d="M910.399 177.2L897.415 237.814L900.914 175.923L910.399 177.2Z" fill="#FEC300"/>
<path d="M867.307 177.105L871.412 220.458L857.998 179.02L867.307 177.105Z" fill="url(#paint4_linear_53_2640)"/>
<path d="M1005.85 253.59L959.119 269.653L1001.95 245L1005.85 253.59Z" fill="#1FA4D3"/>
<path d="M1015.2 295.698L953.197 296.277L1014.37 286.163L1015.2 295.698Z" fill="#FEC300"/>
<path d="M1010.09 338.421L969.326 323.079L1012.44 329.212L1010.09 338.421Z" fill="url(#paint5_linear_53_2640)"/>
</g>
<path d="M397.335 352.215L361.305 261.775H399.337L416.988 318.004L434.275 261.775H474.309L436.459 352.215V386.971H397.335V352.215ZM485.101 261.775H572.993V289.434H529.32V312.181H569.171V335.109H529.32V359.311H572.993V386.971H485.101V261.775ZM616.98 261.775H672.299L708.512 386.971H665.748L661.017 362.951H628.626L623.349 386.971H582.405L616.98 261.775ZM656.65 340.568L644.822 285.795L632.448 340.568H656.65ZM815.369 389.883C792.561 389.883 778.61 379.328 773.515 358.22L768.966 339.477H760.413V386.971H720.561V261.775H775.699C786.132 261.775 795.291 263.352 803.176 266.506C811.183 269.539 817.37 273.846 821.738 279.426C826.105 285.006 828.288 291.436 828.288 298.715C828.288 306.843 826.287 313.697 822.283 319.278C818.401 324.737 812.336 329.226 804.086 332.744C804.936 337.354 805.906 341.539 806.998 345.3C808.454 349.91 810.455 353.124 813.003 354.944C815.55 356.764 819.251 357.674 824.103 357.674C825.802 357.674 828.47 357.431 832.11 356.946V386.607C826.408 388.791 820.828 389.883 815.369 389.883ZM767.328 314.001C776.305 314.001 782.614 313.03 786.253 311.089C790.014 309.027 791.894 305.569 791.894 300.717C791.894 296.592 790.378 293.62 787.345 291.8C784.312 289.859 779.52 288.889 772.969 288.889H760.413V314.001H767.328ZM886.381 389.883C869.276 389.883 854.84 386.728 843.072 380.42L852.171 352.215C864.666 356.703 875.827 358.947 885.654 358.947C890.991 358.947 894.873 358.341 897.3 357.128C899.847 355.793 901.121 353.852 901.121 351.305C901.121 349.606 900.454 348.151 899.119 346.937C897.785 345.603 895.116 344.147 891.113 342.57C887.109 340.993 881.104 339.052 873.097 336.747C863.271 333.835 855.628 329.104 850.169 322.553C844.71 315.881 841.98 308.238 841.98 299.625C841.98 286.28 846.348 276.211 855.082 269.418C863.938 262.503 875.827 259.045 890.749 259.045C898.513 259.045 906.156 259.894 913.677 261.593C921.199 263.17 927.871 265.536 933.694 268.69L923.867 296.167C917.074 293.862 911.129 292.225 906.034 291.254C901.06 290.162 896.208 289.616 891.477 289.616C883.47 289.616 879.466 291.8 879.466 296.167C879.466 298.351 880.74 300.231 883.288 301.808C885.957 303.264 891.355 305.145 899.483 307.45C912.221 310.846 921.866 316.063 928.417 323.099C934.968 330.014 938.243 338.324 938.243 348.029C938.243 361.495 933.876 371.867 925.141 379.146C916.407 386.304 903.487 389.883 886.381 389.883Z" fill="black"/>
<path opacity="0.4" d="M567.785 218.818L833.546 218.818" stroke="black" stroke-width="2.88986" stroke-linecap="round"/>
<path opacity="0.4" d="M361.851 432.657L708.773 432.657" stroke="black" stroke-width="2.88986" stroke-linecap="round"/>
<g clip-path="url(#clip2_53_2640)">
<path d="M174.733 153.163H32.885C36.7085 147.547 40.7246 142.049 44.9334 136.669C47.7492 133.053 50.654 129.511 53.6476 126.043C58.5381 120.352 63.636 114.854 68.9415 109.549C78.385 100.108 88.4479 91.3077 99.0629 83.2065C111.166 104.745 127.863 123.355 147.968 137.714C156.387 143.69 165.348 148.862 174.733 153.163Z" fill="#00CFFF"/>
<path d="M254.249 213.117C265.464 224.339 275.656 236.54 284.703 249.574L265.919 294.033C262.096 290.106 258.391 286.075 254.804 281.94C226.287 249.018 205.539 210.105 194.095 168.079C201.297 172.014 208.322 176.304 215.102 180.884C229.15 190.354 242.259 201.147 254.249 213.117Z" fill="#00CFFF"/>
<path d="M328.874 145.027L289.283 238.703C270.45 212.841 247.259 190.455 220.748 172.548C216.48 169.658 212.138 166.901 207.722 164.278C218.202 166.617 228.886 167.928 239.621 168.19C241.111 168.19 242.578 168.19 244.067 168.19C273.888 168.204 303.162 160.179 328.807 144.96L328.874 145.027Z" fill="#F2C900"/>
<path d="M102.508 68.1792C104.065 67.0899 105.621 65.9562 107.199 64.9559C123.641 53.8442 141.121 44.3522 159.394 36.613C161.617 35.7016 163.84 34.7902 166.063 33.9232H91.1491C93.2076 43.8301 96.2381 53.5098 100.197 62.8218C100.93 64.7114 101.797 66.4453 102.508 68.1792Z" fill="#F2C900"/>
<path d="M122.693 440.816C107.923 434.57 92.0467 431.364 76.0107 431.39C74.2768 431.39 72.565 431.39 70.8311 431.502L44.9334 489.966H179.112C165.984 468.022 146.229 450.812 122.693 440.816Z" fill="#F9436D"/>
<path d="M94.2834 74.1813C73.9236 89.4785 55.5401 107.242 39.5539 127.066C36.6196 130.711 33.7741 134.402 31.0176 138.181C28.6613 141.382 26.3717 144.627 24.1487 147.917C23.8597 148.317 23.593 148.74 23.3262 149.14V34.0122H80.8345C83.0227 45.305 86.3828 56.3387 90.8601 66.9344C91.9716 69.35 93.1127 71.7657 94.2834 74.1813Z" fill="#F9436D"/>
<path d="M245.201 301.213C217.002 305.746 191.615 320.918 174.266 343.605C170.296 348.777 166.779 354.281 163.751 360.055C143.819 355.448 123.147 355.024 103.042 358.81L143.722 267.002H145.145C181.371 266.933 216.581 278.975 245.179 301.213H245.201Z" fill="#F2C900"/>
<path d="M163.284 45.8605C145.647 53.3391 128.778 62.511 112.912 73.2475C110.978 74.5369 109.088 75.8706 107.177 77.2044C123.292 106.444 148.29 129.8 178.556 143.894C177.578 138.358 176.756 132.779 176.089 127.177C172.596 98.1909 173.345 68.8508 178.312 40.0808C173.243 41.8592 168.234 43.7858 163.284 45.8605Z" fill="#00DB8C"/>
<path d="M260.05 34.0122C260.673 35.5831 261.317 37.1614 261.984 38.7471C276.384 72.7308 301.843 100.853 334.231 118.552V34.0122H260.05Z" fill="#806AF6"/>
<path d="M159.439 369.347C149.941 367.311 140.254 366.283 130.54 366.28C119.597 366.271 108.693 367.577 98.0625 370.17L75.2993 421.476H75.9884C105.875 421.435 134.855 431.731 158.016 450.619C148.319 424.31 148.826 395.323 159.439 369.37V369.347Z" fill="#00CFFF"/>
<path d="M169.264 371.904C167.292 376.517 165.672 381.273 164.418 386.131C157.747 411.856 161.343 439.167 174.444 462.29C178.062 468.671 182.371 474.635 187.293 480.074L220.904 400.558C209.825 390.734 197.218 382.783 183.58 377.017C178.905 375.053 174.126 373.346 169.264 371.904Z" fill="#00DB8C"/>
<path d="M258.139 312.395L224.994 390.821C213.733 381.283 201.088 373.51 187.493 367.769C182.981 365.858 178.373 364.181 173.688 362.745C181.391 348.679 192.305 336.628 205.543 327.574C218.78 318.52 233.967 312.718 249.869 310.639C251.803 310.394 253.715 310.194 255.649 310.038L258.139 312.395Z" fill="#F9436D"/>
<path d="M257.183 52.2405C254.952 65.2248 251.222 77.9065 246.068 90.031C237.4 110.638 224.807 129.363 208.989 145.161C206.499 147.65 203.943 150.059 201.32 152.385C213.902 155.948 226.882 157.919 239.955 158.254H244.134C276.361 158.26 307.792 148.247 334.075 129.6C300.816 112.721 273.86 85.6019 257.183 52.2405Z" fill="#F9436D"/>
<path d="M251.937 293.744C222.271 270.507 185.824 257.603 148.146 256.998L185.203 173.348C197.16 215.815 218.345 255.119 247.246 288.453C248.802 290.232 250.358 292.01 251.937 293.744Z" fill="#00DB8C"/>
<path d="M249.291 34.0121C246.607 73.2847 229.74 110.243 201.831 138.003C198.081 141.782 194.169 145.346 190.093 148.695L189.449 148.451C187.967 141.041 186.774 133.542 185.87 125.954C182.247 96.1145 183.274 65.8932 188.915 36.3685L189.36 33.9232L249.291 34.0121Z" fill="#00CFFF"/>
</g>
<path d="M372.974 230.715C369.213 230.715 366.039 230.021 363.451 228.634L365.452 222.432C368.199 223.419 370.654 223.912 372.814 223.912C373.988 223.912 374.842 223.779 375.375 223.512C375.935 223.219 376.215 222.792 376.215 222.232C376.215 221.858 376.069 221.538 375.775 221.271C375.482 220.978 374.895 220.658 374.015 220.311C373.134 219.964 371.814 219.537 370.053 219.031C367.893 218.39 366.212 217.35 365.012 215.91C363.811 214.442 363.211 212.762 363.211 210.868C363.211 207.934 364.171 205.719 366.092 204.226C368.039 202.705 370.654 201.945 373.935 201.945C375.642 201.945 377.322 202.132 378.976 202.505C380.63 202.852 382.097 203.372 383.378 204.066L381.217 210.108C379.723 209.601 378.416 209.241 377.296 209.027C376.202 208.787 375.135 208.667 374.095 208.667C372.334 208.667 371.454 209.147 371.454 210.108C371.454 210.588 371.734 211.001 372.294 211.348C372.881 211.668 374.068 212.082 375.855 212.588C378.656 213.335 380.777 214.482 382.217 216.03C383.658 217.55 384.378 219.377 384.378 221.511C384.378 224.472 383.418 226.753 381.497 228.354C379.577 229.928 376.736 230.715 372.974 230.715ZM387.531 210.308H395.974V213.789C397.254 211.095 399.428 209.747 402.496 209.747C404.283 209.747 405.924 210.201 407.418 211.108C408.938 211.988 410.125 213.215 410.979 214.789C411.859 216.363 412.299 218.124 412.299 220.071C412.299 222.018 411.846 223.779 410.939 225.353C410.059 226.927 408.858 228.167 407.338 229.074C405.844 229.954 404.243 230.394 402.536 230.394C399.495 230.394 397.308 229.047 395.974 226.353V235.276L387.531 236.877V210.308ZM399.975 224.072C401.069 224.072 402.003 223.672 402.776 222.872C403.55 222.072 403.937 221.138 403.937 220.071C403.937 218.951 403.537 218.004 402.736 217.23C401.963 216.456 401.042 216.07 399.975 216.07C398.882 216.07 397.948 216.456 397.174 217.23C396.401 217.977 396.014 218.871 396.014 219.911V220.071C396.014 221.191 396.401 222.138 397.174 222.912C397.975 223.686 398.908 224.072 399.975 224.072ZM422.395 230.394C420.128 230.394 418.367 229.688 417.114 228.274C415.886 226.833 415.273 224.873 415.273 222.392V203.705L423.716 202.465V221.792C423.716 222.538 423.889 223.085 424.236 223.432C424.609 223.752 425.25 223.912 426.157 223.912C426.824 223.912 427.477 223.752 428.117 223.432L428.397 229.034C426.61 229.941 424.609 230.394 422.395 230.394ZM440.839 230.394C438.625 230.394 436.651 229.954 434.917 229.074C433.21 228.167 431.876 226.94 430.915 225.393C429.955 223.819 429.475 222.045 429.475 220.071C429.475 218.044 429.968 216.243 430.955 214.669C431.942 213.095 433.276 211.882 434.957 211.028C436.637 210.174 438.505 209.747 440.559 209.747C442.533 209.747 444.213 210.188 445.6 211.068C447.014 211.922 448.068 213.095 448.761 214.589C449.455 216.056 449.802 217.71 449.802 219.551C449.802 220.031 449.775 220.378 449.722 220.591L437.718 222.152C438.038 223.085 438.558 223.766 439.278 224.192C439.998 224.592 440.945 224.793 442.119 224.793C443.933 224.793 445.894 224.326 448.001 223.392L449.002 228.754C446.521 229.848 443.8 230.394 440.839 230.394ZM443.6 217.11C443.173 215.429 442.159 214.589 440.559 214.589C439.598 214.589 438.838 214.949 438.278 215.669C437.718 216.39 437.424 217.323 437.398 218.47L443.6 217.11ZM452.709 210.308H460.752V214.389C462.299 211.295 464.753 209.747 468.115 209.747C470.675 209.747 472.676 210.668 474.117 212.508C475.584 214.322 476.317 216.843 476.317 220.071V230.074H467.914V219.231C467.914 218.084 467.661 217.203 467.154 216.59C466.674 215.976 465.994 215.669 465.114 215.669C464.473 215.669 463.846 215.883 463.233 216.31C462.619 216.71 462.112 217.297 461.712 218.07C461.339 218.844 461.152 219.724 461.152 220.711V230.074H452.709V210.308ZM488.942 230.394C487.129 230.394 485.475 229.914 483.981 228.954C482.514 227.994 481.353 226.727 480.5 225.153C479.646 223.552 479.219 221.858 479.219 220.071C479.219 218.177 479.659 216.443 480.54 214.869C481.447 213.269 482.647 212.015 484.141 211.108C485.661 210.201 487.275 209.747 488.982 209.747C490.53 209.747 491.837 210.068 492.904 210.708C493.998 211.348 494.878 212.375 495.545 213.789V203.705L503.988 202.465V230.074H495.545V226.353C494.291 229.047 492.09 230.394 488.942 230.394ZM491.583 224.072C492.704 224.072 493.637 223.672 494.384 222.872C495.158 222.072 495.545 221.138 495.545 220.071V219.911C495.545 218.871 495.145 217.977 494.344 217.23C493.544 216.456 492.624 216.07 491.583 216.07C490.463 216.07 489.516 216.47 488.742 217.27C487.995 218.044 487.622 218.977 487.622 220.071C487.622 221.191 488.009 222.138 488.782 222.912C489.583 223.686 490.516 224.072 491.583 224.072ZM515.122 230.394C512.881 230.394 511.134 229.674 509.88 228.234C508.626 226.793 508 224.833 508 222.352V210.028H516.482V221.992C516.482 222.605 516.642 223.085 516.963 223.432C517.309 223.752 517.749 223.912 518.283 223.912C518.816 223.912 519.363 223.752 519.924 223.432L520.364 228.994C519.777 229.447 519.003 229.794 518.043 230.034C517.109 230.274 516.136 230.394 515.122 230.394ZM512.241 207.027C510.987 207.027 509.92 206.64 509.04 205.866C508.186 205.066 507.759 204.092 507.759 202.945C507.759 201.798 508.213 200.838 509.12 200.064C510.027 199.291 511.067 198.904 512.241 198.904C513.468 198.904 514.522 199.304 515.402 200.104C516.309 200.905 516.762 201.851 516.762 202.945C516.762 204.119 516.309 205.093 515.402 205.866C514.495 206.64 513.441 207.027 512.241 207.027ZM531.457 230.394C529.643 230.394 527.989 229.914 526.495 228.954C525.028 227.994 523.868 226.727 523.014 225.153C522.16 223.552 521.734 221.858 521.734 220.071C521.734 218.177 522.174 216.443 523.054 214.869C523.961 213.269 525.161 212.015 526.655 211.108C528.176 210.201 529.79 209.747 531.497 209.747C533.044 209.747 534.351 210.068 535.418 210.708C536.512 211.348 537.392 212.375 538.059 213.789V203.705L546.502 202.465V230.074H538.059V226.353C536.805 229.047 534.605 230.394 531.457 230.394ZM534.098 224.072C535.218 224.072 536.152 223.672 536.899 222.872C537.672 222.072 538.059 221.138 538.059 220.071V219.911C538.059 218.871 537.659 217.977 536.859 217.23C536.058 216.456 535.138 216.07 534.098 216.07C532.977 216.07 532.03 216.47 531.257 217.27C530.51 218.044 530.136 218.977 530.136 220.071C530.136 221.191 530.523 222.138 531.297 222.912C532.097 223.686 533.031 224.072 534.098 224.072Z" fill="black"/>
<defs>
<linearGradient id="paint0_linear_53_2640" x1="783.576" y1="401.536" x2="767.644" y2="428.837" gradientUnits="userSpaceOnUse">
<stop stop-color="#EC3939"/>
<stop offset="0.6" stop-color="#C83443"/>
<stop offset="1" stop-color="#00157D"/>
</linearGradient>
<linearGradient id="paint1_linear_53_2640" x1="749.186" y1="408.156" x2="769.628" y2="443.63" gradientUnits="userSpaceOnUse">
<stop stop-color="#1C9EDC"/>
<stop offset="1" stop-color="#0E3C91"/>
</linearGradient>
<linearGradient id="paint2_linear_53_2640" x1="793.022" y1="433.289" x2="911.207" y2="433.289" gradientUnits="userSpaceOnUse">
<stop stop-color="#0E4698"/>
<stop offset="1" stop-color="#E0373C"/>
</linearGradient>
<linearGradient id="paint3_linear_53_2640" x1="982.995" y1="213.462" x2="928.001" y2="263.751" gradientUnits="userSpaceOnUse">
<stop stop-color="#A2C037"/>
<stop offset="1" stop-color="#4C8025"/>
</linearGradient>
<linearGradient id="paint4_linear_53_2640" x1="854.082" y1="182.757" x2="881.17" y2="211.147" gradientUnits="userSpaceOnUse">
<stop stop-color="#E31158"/>
<stop offset="0.23" stop-color="#DE1158"/>
<stop offset="0.48" stop-color="#D11257"/>
<stop offset="0.75" stop-color="#BA1357"/>
<stop offset="1" stop-color="#9E1556"/>
</linearGradient>
<linearGradient id="paint5_linear_53_2640" x1="979.085" y1="313.768" x2="1006.16" y2="342.145" gradientUnits="userSpaceOnUse">
<stop stop-color="#E31158"/>
<stop offset="0.23" stop-color="#DE1158"/>
<stop offset="0.48" stop-color="#D11257"/>
<stop offset="0.75" stop-color="#BA1357"/>
<stop offset="1" stop-color="#9E1556"/>
</linearGradient>
<clipPath id="clip0_53_2640">
<rect width="172.713" height="43.4276" fill="white" transform="translate(738.423 404.275)"/>
</clipPath>
<clipPath id="clip1_53_2640">
<rect width="220.301" height="83.1829" fill="white" transform="translate(904.506 134.645) rotate(46.3443)"/>
</clipPath>
<clipPath id="clip2_53_2640">
<rect width="310.838" height="456.154" fill="white" transform="translate(23.4151 33.9232)"/>
</clipPath>
</defs>
</svg>
