<svg width="62" height="62" viewBox="0 0 62 62" fill="none" xmlns="http://www.w3.org/2000/svg">
<g filter="url(#filter0_d_277_1224)">
<rect x="6" y="5" width="50" height="50" rx="8" fill="white"/>
<path d="M21.446 13H40.554C44.6664 13 48 16.3336 48 20.446V39.554C48 43.6664 44.6664 47 40.554 47H21.446C17.3336 47 14 43.6664 14 39.554V20.446C14 16.3336 17.3336 13 21.446 13Z" fill="url(#paint0_linear_277_1224)"/>
<path d="M24.8962 37.6779L24.8994 37.679L23.7369 39.6924C23.3126 40.4274 22.3728 40.6792 21.6378 40.2549C20.9029 39.8305 20.651 38.8907 21.0753 38.1558L21.9317 36.6725L22.0139 36.5301C22.1607 36.3192 22.5229 35.9551 23.2473 36.0236C23.2473 36.0236 24.9523 36.2086 25.0756 37.0947C25.0756 37.0947 25.0924 37.3862 24.8962 37.6779ZM41.384 32.5354H37.759C37.5121 32.5188 37.4044 32.4306 37.3619 32.3793L37.3592 32.3747L33.4788 25.6536L33.4738 25.6569L33.2411 25.3233C32.8596 24.74 32.254 26.2317 32.254 26.2317C31.5309 27.894 32.3567 29.7838 32.6445 30.355L38.0343 39.6904C38.4585 40.4253 39.3983 40.6772 40.1334 40.2527C40.8682 39.8284 41.1202 38.8886 40.6957 38.1536L39.3481 35.8193C39.3219 35.7627 39.2765 35.6092 39.5529 35.6085H41.384C42.2326 35.6085 42.9206 34.9206 42.9206 34.0719C42.9206 33.2232 42.2326 32.5353 41.384 32.5353V32.5354ZM34.343 34.6243C34.343 34.6243 34.5365 35.6085 33.7879 35.6085H20.3872C19.5386 35.6085 18.8506 34.9206 18.8506 34.0719C18.8506 33.2232 19.5386 32.5353 20.3872 32.5353H23.8324C24.3886 32.5031 24.5204 32.182 24.5204 32.182L24.5235 32.1836L29.0206 24.3944L29.0192 24.3941C29.1012 24.2436 29.0329 24.1014 29.0211 24.079L27.5359 21.5065C27.1115 20.7717 27.3633 19.8317 28.0983 19.4075C28.8333 18.9832 29.7731 19.2349 30.1974 19.9699L30.8862 21.1629L31.5738 19.972C31.9981 19.2371 32.9379 18.9852 33.6729 19.4097C34.4078 19.834 34.6597 20.7737 34.2353 21.5086L27.9775 32.3475C27.9501 32.4135 27.9417 32.5171 28.1453 32.5353H31.8859L31.8867 32.5718C31.8867 32.5718 34.0486 32.6054 34.343 34.6243Z" fill="white"/>
</g>
<defs>
<filter id="filter0_d_277_1224" x="0" y="0" width="62" height="62" filterUnits="userSpaceOnUse" color-interpolation-filters="sRGB">
<feFlood flood-opacity="0" result="BackgroundImageFix"/>
<feColorMatrix in="SourceAlpha" type="matrix" values="0 0 0 0 0 0 0 0 0 0 0 0 0 0 0 0 0 0 127 0" result="hardAlpha"/>
<feOffset dy="1"/>
<feGaussianBlur stdDeviation="3"/>
<feComposite in2="hardAlpha" operator="out"/>
<feColorMatrix type="matrix" values="0 0 0 0 0 0 0 0 0 0 0 0 0 0 0 0 0 0 0.12 0"/>
<feBlend mode="normal" in2="BackgroundImageFix" result="effect1_dropShadow_277_1224"/>
<feBlend mode="normal" in="SourceGraphic" in2="effect1_dropShadow_277_1224" result="shape"/>
</filter>
<linearGradient id="paint0_linear_277_1224" x1="31" y1="13" x2="31" y2="47" gradientUnits="userSpaceOnUse">
<stop stop-color="#17C9FB"/>
<stop offset="1" stop-color="#1A74E8"/>
</linearGradient>
</defs>
</svg>
