<svg width="62" height="62" viewBox="0 0 62 62" fill="none" xmlns="http://www.w3.org/2000/svg">
<g filter="url(#filter0_d_277_1173)">
<rect x="6" y="5" width="50" height="50" rx="8" fill="white"/>
<path d="M45.7083 27.0623H44.5V27H31V33H39.4773C38.2405 36.4928 34.9172 39 31 39C26.0297 39 22 34.9702 22 30C22 25.0297 26.0297 21 31 21C33.2943 21 35.3815 21.8655 36.9708 23.2792L41.2135 19.0365C38.5345 16.5397 34.951 15 31 15C22.7162 15 16 21.7162 16 30C16 38.2838 22.7162 45 31 45C39.2838 45 46 38.2838 46 30C46 28.9943 45.8965 28.0125 45.7083 27.0623Z" fill="#FFC107"/>
<path d="M17.7295 23.0182L22.6577 26.6325C23.9912 23.331 27.2207 21 31 21C33.2942 21 35.3815 21.8655 36.9707 23.2792L41.2135 19.0365C38.5345 16.5397 34.951 15 31 15C25.2385 15 20.242 18.2527 17.7295 23.0182Z" fill="#FF3D00"/>
<path d="M31.0002 45C34.8747 45 38.3952 43.5173 41.057 41.106L36.4145 37.1775C34.8579 38.3613 32.9558 39.0016 31.0002 39C27.0987 39 23.786 36.5123 22.538 33.0405L17.6465 36.8093C20.129 41.667 25.1705 45 31.0002 45Z" fill="#4CAF50"/>
<path d="M45.7083 27.0623H44.5V27H31V33H39.4773C38.8857 34.6623 37.82 36.1149 36.412 37.1782L36.4142 37.1768L41.0568 41.1052C40.7283 41.4037 46 37.5 46 30C46 28.9943 45.8965 28.0125 45.7083 27.0623Z" fill="#1976D2"/>
</g>
<defs>
<filter id="filter0_d_277_1173" x="0" y="0" width="62" height="62" filterUnits="userSpaceOnUse" color-interpolation-filters="sRGB">
<feFlood flood-opacity="0" result="BackgroundImageFix"/>
<feColorMatrix in="SourceAlpha" type="matrix" values="0 0 0 0 0 0 0 0 0 0 0 0 0 0 0 0 0 0 127 0" result="hardAlpha"/>
<feOffset dy="1"/>
<feGaussianBlur stdDeviation="3"/>
<feComposite in2="hardAlpha" operator="out"/>
<feColorMatrix type="matrix" values="0 0 0 0 0 0 0 0 0 0 0 0 0 0 0 0 0 0 0.12 0"/>
<feBlend mode="normal" in2="BackgroundImageFix" result="effect1_dropShadow_277_1173"/>
<feBlend mode="normal" in="SourceGraphic" in2="effect1_dropShadow_277_1173" result="shape"/>
</filter>
</defs>
</svg>
