<svg width="62" height="62" viewBox="0 0 62 62" fill="none" xmlns="http://www.w3.org/2000/svg">
<g filter="url(#filter0_d_277_1215)">
<rect x="6" y="5" width="50" height="50" rx="8" fill="white"/>
<path d="M28.6463 18.7195C28.9423 18.7195 29.2261 18.8371 29.4354 19.0463C29.6446 19.2556 29.7622 19.5394 29.7622 19.8354V31.7378H41.6646C41.9343 31.7378 42.1948 31.8355 42.398 32.0127C42.6012 32.1899 42.7334 32.4348 42.7701 32.7019L42.7805 32.8537C42.7805 40.248 36.7846 45.5 29.3902 45.5C25.8389 45.5 22.4331 44.0892 19.9219 41.5781C17.4108 39.0669 16 35.6611 16 32.1098C16 24.7154 21.252 18.7195 28.6463 18.7195ZM33.1098 15C36.6611 15 40.0669 16.4108 42.5781 18.9219C45.0892 21.4331 46.5 24.8389 46.5 28.3902C46.5 28.6862 46.3824 28.97 46.1732 29.1793C45.9639 29.3885 45.6801 29.5061 45.3841 29.5061H33.1098C32.8138 29.5061 32.53 29.3885 32.3207 29.1793C32.1115 28.97 31.9939 28.6862 31.9939 28.3902V16.1159C31.9939 15.8199 32.1115 15.5361 32.3207 15.3268C32.53 15.1176 32.8138 15 33.1098 15Z" fill="#1670B9"/>
</g>
<defs>
<filter id="filter0_d_277_1215" x="0" y="0" width="62" height="62" filterUnits="userSpaceOnUse" color-interpolation-filters="sRGB">
<feFlood flood-opacity="0" result="BackgroundImageFix"/>
<feColorMatrix in="SourceAlpha" type="matrix" values="0 0 0 0 0 0 0 0 0 0 0 0 0 0 0 0 0 0 127 0" result="hardAlpha"/>
<feOffset dy="1"/>
<feGaussianBlur stdDeviation="3"/>
<feComposite in2="hardAlpha" operator="out"/>
<feColorMatrix type="matrix" values="0 0 0 0 0 0 0 0 0 0 0 0 0 0 0 0 0 0 0.12 0"/>
<feBlend mode="normal" in2="BackgroundImageFix" result="effect1_dropShadow_277_1215"/>
<feBlend mode="normal" in="SourceGraphic" in2="effect1_dropShadow_277_1215" result="shape"/>
</filter>
</defs>
</svg>
