<svg width="62" height="62" viewBox="0 0 62 62" fill="none" xmlns="http://www.w3.org/2000/svg">
<g filter="url(#filter0_d_277_1233)">
<rect x="6" y="5" width="50" height="50" rx="8" fill="white"/>
<path d="M30.8265 15.6046H16.6523V44.1349H30.8265C37.9154 44.1349 45.0005 37.7477 45.0005 29.8717C45.0005 21.9956 37.9154 15.6046 30.8265 15.6046ZM30.8265 36.3518C27.2467 36.3505 24.3455 33.4472 24.347 29.8673C24.3484 26.2873 27.2515 23.3863 30.8317 23.3876C34.4116 23.3888 37.3127 26.2919 37.3116 29.8719C37.3116 30.7233 37.1438 31.5663 36.8178 32.3528C36.4919 33.1394 36.0141 33.8539 35.4119 34.4557C34.8097 35.0576 34.0947 35.5348 33.308 35.8602C32.5212 36.1856 31.6781 36.3528 30.8267 36.3521L30.8265 36.3518Z" fill="url(#paint0_linear_277_1233)"/>
</g>
<defs>
<filter id="filter0_d_277_1233" x="0" y="0" width="62" height="62" filterUnits="userSpaceOnUse" color-interpolation-filters="sRGB">
<feFlood flood-opacity="0" result="BackgroundImageFix"/>
<feColorMatrix in="SourceAlpha" type="matrix" values="0 0 0 0 0 0 0 0 0 0 0 0 0 0 0 0 0 0 127 0" result="hardAlpha"/>
<feOffset dy="1"/>
<feGaussianBlur stdDeviation="3"/>
<feComposite in2="hardAlpha" operator="out"/>
<feColorMatrix type="matrix" values="0 0 0 0 0 0 0 0 0 0 0 0 0 0 0 0 0 0 0.12 0"/>
<feBlend mode="normal" in2="BackgroundImageFix" result="effect1_dropShadow_277_1233"/>
<feBlend mode="normal" in="SourceGraphic" in2="effect1_dropShadow_277_1233" result="shape"/>
</filter>
<linearGradient id="paint0_linear_277_1233" x1="16.6523" y1="29.8695" x2="45.0005" y2="29.8695" gradientUnits="userSpaceOnUse">
<stop stop-color="#FF593D"/>
<stop offset="1" stop-color="#FF7751"/>
</linearGradient>
</defs>
</svg>
