<svg width="62" height="62" viewBox="0 0 62 62" fill="none" xmlns="http://www.w3.org/2000/svg">
<g filter="url(#filter0_d_277_1183)">
<rect x="6" y="5" width="50" height="50" rx="8" fill="white"/>
<path fill-rule="evenodd" clip-rule="evenodd" d="M24.8159 15.09C26.4155 15.0164 26.9255 15 31 15C35.0745 15 35.5845 15.0177 37.1827 15.09C38.7809 15.1623 39.8718 15.4173 40.8264 15.7868C41.8259 16.1645 42.7327 16.755 43.4827 17.5186C44.2464 18.2673 44.8355 19.1727 45.2118 20.1736C45.5827 21.1282 45.8364 22.2191 45.91 23.8145C45.9836 25.4168 46 25.9268 46 30C46 34.0745 45.9823 34.5845 45.91 36.1841C45.8377 37.7795 45.5827 38.8705 45.2118 39.825C44.8354 40.826 44.2454 41.733 43.4827 42.4827C42.7327 43.2464 41.8259 43.8355 40.8264 44.2118C39.8718 44.5827 38.7809 44.8364 37.1855 44.91C35.5845 44.9836 35.0745 45 31 45C26.9255 45 26.4155 44.9823 24.8159 44.91C23.2205 44.8377 22.1295 44.5827 21.175 44.2118C20.174 43.8354 19.267 43.2453 18.5173 42.4827C17.7542 41.7336 17.1636 40.8271 16.7868 39.8264C16.4173 38.8718 16.1636 37.7809 16.09 36.1855C16.0164 34.5832 16 34.0732 16 30C16 25.9255 16.0177 25.4155 16.09 23.8173C16.1623 22.2191 16.4173 21.1282 16.7868 20.1736C17.1642 19.1728 17.7552 18.2663 18.5186 17.5173C19.2673 16.7543 20.1734 16.1638 21.1736 15.7868C22.1282 15.4173 23.2191 15.1636 24.8145 15.09H24.8159ZM37.0614 17.79C35.4795 17.7177 35.005 17.7027 31 17.7027C26.995 17.7027 26.5205 17.7177 24.9386 17.79C23.4755 17.8568 22.6818 18.1009 22.1527 18.3068C21.4532 18.5795 20.9527 18.9027 20.4277 19.4277C19.9301 19.9119 19.5471 20.5013 19.3068 21.1527C19.1009 21.6818 18.8568 22.4755 18.79 23.9386C18.7177 25.5205 18.7027 25.995 18.7027 30C18.7027 34.005 18.7177 34.4795 18.79 36.0614C18.8568 37.5245 19.1009 38.3182 19.3068 38.8473C19.5468 39.4977 19.93 40.0882 20.4277 40.5723C20.9118 41.07 21.5023 41.4532 22.1527 41.6932C22.6818 41.8991 23.4755 42.1432 24.9386 42.21C26.5205 42.2823 26.9936 42.2973 31 42.2973C35.0064 42.2973 35.4795 42.2823 37.0614 42.21C38.5245 42.1432 39.3182 41.8991 39.8473 41.6932C40.5468 41.4205 41.0473 41.0973 41.5723 40.5723C42.07 40.0882 42.4532 39.4977 42.6932 38.8473C42.8991 38.3182 43.1432 37.5245 43.21 36.0614C43.2823 34.4795 43.2973 34.005 43.2973 30C43.2973 25.995 43.2823 25.5205 43.21 23.9386C43.1432 22.4755 42.8991 21.6818 42.6932 21.1527C42.4205 20.4532 42.0973 19.9527 41.5723 19.4277C41.0881 18.9301 40.4987 18.5471 39.8473 18.3068C39.3182 18.1009 38.5245 17.8568 37.0614 17.79ZM29.0841 34.6241C30.1541 35.0695 31.3455 35.1296 32.4549 34.7942C33.5643 34.4587 34.5228 33.7485 35.1667 32.7849C35.8107 31.8212 36.1001 30.6639 35.9855 29.5106C35.871 28.3573 35.3596 27.2795 34.5386 26.4614C34.0153 25.9384 33.3826 25.5379 32.6859 25.2888C31.9893 25.0397 31.246 24.9482 30.5098 25.0208C29.7735 25.0935 29.0625 25.3284 28.4279 25.7088C27.7933 26.0892 27.251 26.6056 26.84 27.2207C26.4289 27.8359 26.1593 28.5345 26.0507 29.2663C25.9421 29.9981 25.997 30.7449 26.2116 31.453C26.4263 32.161 26.7952 32.8127 27.2919 33.361C27.7886 33.9093 28.4007 34.3407 29.0841 34.6241ZM25.5482 24.5482C26.2641 23.8322 27.1141 23.2643 28.0495 22.8769C28.9849 22.4894 29.9875 22.29 31 22.29C32.0125 22.29 33.0151 22.4894 33.9505 22.8769C34.8859 23.2643 35.7359 23.8322 36.4518 24.5482C37.1678 25.2641 37.7357 26.1141 38.1231 27.0495C38.5106 27.9849 38.71 28.9875 38.71 30C38.71 31.0125 38.5106 32.0151 38.1231 32.9505C37.7357 33.8859 37.1678 34.7359 36.4518 35.4518C35.0059 36.8977 33.0448 37.71 31 37.71C28.9552 37.71 26.9941 36.8977 25.5482 35.4518C24.1023 34.0059 23.29 32.0448 23.29 30C23.29 27.9552 24.1023 25.9941 25.5482 24.5482ZM40.42 23.4382C40.5974 23.2708 40.7394 23.0696 40.8377 22.8463C40.9359 22.6231 40.9884 22.3824 40.9919 22.1385C40.9955 21.8947 40.9501 21.6526 40.8584 21.4266C40.7667 21.2006 40.6306 20.9952 40.4581 20.8228C40.2857 20.6503 40.0804 20.5142 39.8544 20.4225C39.6283 20.3308 39.3862 20.2854 39.1424 20.289C38.8985 20.2925 38.6578 20.345 38.4346 20.4432C38.2113 20.5415 38.0101 20.6835 37.8427 20.8609C37.5172 21.2059 37.339 21.6643 37.346 22.1385C37.3529 22.6128 37.5444 23.0657 37.8798 23.4011C38.2152 23.7366 38.6681 23.928 39.1424 23.935C39.6167 23.9419 40.075 23.7637 40.42 23.4382Z" fill="url(#paint0_linear_277_1183)"/>
</g>
<defs>
<filter id="filter0_d_277_1183" x="0" y="0" width="62" height="62" filterUnits="userSpaceOnUse" color-interpolation-filters="sRGB">
<feFlood flood-opacity="0" result="BackgroundImageFix"/>
<feColorMatrix in="SourceAlpha" type="matrix" values="0 0 0 0 0 0 0 0 0 0 0 0 0 0 0 0 0 0 127 0" result="hardAlpha"/>
<feOffset dy="1"/>
<feGaussianBlur stdDeviation="3"/>
<feComposite in2="hardAlpha" operator="out"/>
<feColorMatrix type="matrix" values="0 0 0 0 0 0 0 0 0 0 0 0 0 0 0 0 0 0 0.12 0"/>
<feBlend mode="normal" in2="BackgroundImageFix" result="effect1_dropShadow_277_1183"/>
<feBlend mode="normal" in="SourceGraphic" in2="effect1_dropShadow_277_1183" result="shape"/>
</filter>
<linearGradient id="paint0_linear_277_1183" x1="33.0455" y1="19.0909" x2="20.0909" y2="43.6364" gradientUnits="userSpaceOnUse">
<stop stop-color="#B532A5"/>
<stop offset="1" stop-color="#FCA747"/>
</linearGradient>
</defs>
</svg>
