<svg width="62" height="62" viewBox="0 0 62 62" fill="none" xmlns="http://www.w3.org/2000/svg">
<g filter="url(#filter0_d_277_1231)">
<rect x="6" y="5" width="50" height="50" rx="8" fill="white"/>
<path d="M19.7571 17.1286C19.7571 16.6966 19.5856 16.2824 19.2801 15.977C18.9747 15.6716 18.5605 15.5 18.1286 15.5C17.6966 15.5 17.2824 15.6716 16.977 15.977C16.6716 16.2824 16.5 16.6966 16.5 17.1286V39.9286C16.5 41.0084 16.929 42.044 17.6925 42.8075C18.456 43.571 19.4916 44 20.5714 44H43.3714C43.8034 44 44.2176 43.8284 44.523 43.523C44.8284 43.2176 45 42.8034 45 42.3714C45 41.9395 44.8284 41.5253 44.523 41.2199C44.2176 40.9144 43.8034 40.7429 43.3714 40.7429H20.5714C20.3555 40.7429 20.1484 40.6571 19.9956 40.5044C19.8429 40.3517 19.7571 40.1445 19.7571 39.9286V17.1286ZM34.0071 21.6071C34.0071 21.1752 34.1787 20.761 34.4841 20.4556C34.7896 20.1502 35.2038 19.9786 35.6357 19.9786H42.9675C43.3995 19.9786 43.8137 20.1502 44.1191 20.4556C44.4245 20.761 44.5961 21.1752 44.5961 21.6071L44.5929 28.9357C44.5929 29.3676 44.4213 29.7819 44.1159 30.0873C43.8104 30.3927 43.3962 30.5643 42.9643 30.5643C42.5324 30.5643 42.1181 30.3927 41.8127 30.0873C41.5073 29.7819 41.3357 29.3676 41.3357 28.9357V25.5385L33.9371 32.9371C33.6317 33.2424 33.2176 33.4139 32.7857 33.4139C32.3539 33.4139 31.9397 33.2424 31.6343 32.9371L28.7143 30.0171L24.5728 34.1585C24.2657 34.4552 23.8543 34.6194 23.4273 34.6156C23.0003 34.6119 22.5918 34.4407 22.2899 34.1387C21.9879 33.8368 21.8166 33.4283 21.8129 33.0013C21.8092 32.5743 21.9734 32.1629 22.27 31.8557L27.5629 26.5629C27.8683 26.2576 28.2824 26.0861 28.7143 26.0861C29.1461 26.0861 29.5603 26.2576 29.8657 26.5629L32.7857 29.4829L39.0329 23.2357H35.6357C35.2038 23.2357 34.7896 23.0641 34.4841 22.7587C34.1787 22.4533 34.0071 22.0391 34.0071 21.6071Z" fill="#EC3939"/>
</g>
<defs>
<filter id="filter0_d_277_1231" x="0" y="0" width="62" height="62" filterUnits="userSpaceOnUse" color-interpolation-filters="sRGB">
<feFlood flood-opacity="0" result="BackgroundImageFix"/>
<feColorMatrix in="SourceAlpha" type="matrix" values="0 0 0 0 0 0 0 0 0 0 0 0 0 0 0 0 0 0 127 0" result="hardAlpha"/>
<feOffset dy="1"/>
<feGaussianBlur stdDeviation="3"/>
<feComposite in2="hardAlpha" operator="out"/>
<feColorMatrix type="matrix" values="0 0 0 0 0 0 0 0 0 0 0 0 0 0 0 0 0 0 0.12 0"/>
<feBlend mode="normal" in2="BackgroundImageFix" result="effect1_dropShadow_277_1231"/>
<feBlend mode="normal" in="SourceGraphic" in2="effect1_dropShadow_277_1231" result="shape"/>
</filter>
</defs>
</svg>
