<svg width="62" height="62" viewBox="0 0 62 62" fill="none" xmlns="http://www.w3.org/2000/svg">
<g filter="url(#filter0_d_277_1219)">
<rect x="6" y="5" width="50" height="50" rx="8" fill="white"/>
<path d="M14.8022 36.6768L26.3845 16.8481C27.8557 17.7143 35.2745 21.82 36.4727 22.6009L24.8904 42.4306C23.6237 44.1041 13.1974 39.2163 14.8022 36.6757V36.6768Z" fill="#FBBC04"/>
<path d="M48.0803 36.6764L36.498 16.849C34.8788 14.1543 31.3915 13.175 28.5271 14.7665C25.6628 16.3581 24.7906 19.7865 26.4098 22.6015L37.9921 42.4314C39.6113 45.1249 43.0988 46.104 45.9631 44.5126C48.7022 42.9209 49.6995 39.371 48.0803 36.6787V36.6764Z" fill="#4285F4"/>
<path d="M19.814 45.2789C23.025 45.2789 25.6281 42.7406 25.6281 39.6093C25.6281 36.4781 23.025 33.9398 19.814 33.9398C16.603 33.9398 14 36.4781 14 39.6093C14 42.7406 16.603 45.2789 19.814 45.2789Z" fill="#34A853"/>
</g>
<defs>
<filter id="filter0_d_277_1219" x="0" y="0" width="62" height="62" filterUnits="userSpaceOnUse" color-interpolation-filters="sRGB">
<feFlood flood-opacity="0" result="BackgroundImageFix"/>
<feColorMatrix in="SourceAlpha" type="matrix" values="0 0 0 0 0 0 0 0 0 0 0 0 0 0 0 0 0 0 127 0" result="hardAlpha"/>
<feOffset dy="1"/>
<feGaussianBlur stdDeviation="3"/>
<feComposite in2="hardAlpha" operator="out"/>
<feColorMatrix type="matrix" values="0 0 0 0 0 0 0 0 0 0 0 0 0 0 0 0 0 0 0.12 0"/>
<feBlend mode="normal" in2="BackgroundImageFix" result="effect1_dropShadow_277_1219"/>
<feBlend mode="normal" in="SourceGraphic" in2="effect1_dropShadow_277_1219" result="shape"/>
</filter>
</defs>
</svg>
