<svg width="62" height="62" viewBox="0 0 62 62" fill="none" xmlns="http://www.w3.org/2000/svg">
<g filter="url(#filter0_d_277_1199)">
<rect x="6" y="5" width="50" height="50" rx="8" fill="white"/>
<path d="M34.5718 34.9871C34.0115 35.6075 33.3801 36.1598 32.6908 36.6327C31.3756 37.4098 29.8807 37.8308 28.3532 37.8542C27.0026 37.8247 25.6951 37.3732 24.614 36.5631C23.7307 35.7556 23.0947 34.7141 22.7797 33.5596C22.4647 32.4051 22.4837 31.1849 22.8344 30.0407C23.1711 29.0271 23.7259 28.0997 24.4597 27.3236C25.1935 26.5476 26.0885 25.9418 27.0817 25.549C29.2909 24.8852 31.5846 24.5445 33.8915 24.5376V22.1141C33.8164 21.5785 33.5668 21.0825 33.1814 20.7029C32.796 20.3234 32.2962 20.0815 31.7594 20.0146C31.0721 19.921 30.3722 20.0126 29.7321 20.28C29.2821 20.4917 28.8881 20.806 28.5816 21.1976C28.2752 21.5892 28.0648 22.0473 27.9675 22.535C27.8958 22.6858 27.7777 22.8096 27.6304 22.8882C27.4831 22.9669 27.3145 22.9963 27.1493 22.972L23.8387 22.6794C23.6905 22.6393 23.5585 22.5542 23.4609 22.4358C23.3632 22.3174 23.3048 22.1716 23.2936 22.0185C23.5586 20.3989 24.4053 18.9316 25.6748 17.8916C27.3556 16.5906 29.4293 15.9006 31.5546 15.9352C33.5238 15.9532 35.439 16.5821 37.0356 17.7349C37.6957 18.2926 38.219 18.9944 38.5652 19.7863C38.9114 20.5781 39.0712 21.4388 39.0324 22.3021V30.6866C39.0734 31.3919 39.25 32.0827 39.5527 32.7211L40.5849 34.232C40.6395 34.346 40.6679 34.4708 40.6679 34.5972C40.6679 34.7236 40.6395 34.8484 40.5849 34.9624L37.5286 37.5452C37.4011 37.6145 37.2574 37.6484 37.1124 37.6433C36.9673 37.6383 36.8263 37.5945 36.7039 37.5166C35.9073 36.7498 35.1928 35.902 34.5718 34.9871ZM33.8824 27.3884C32.9248 27.3691 31.9674 27.432 31.0206 27.5763C30.4486 27.7048 29.9108 27.9546 29.4436 28.3087C28.9763 28.6628 28.5906 29.113 28.3122 29.629C28.0826 30.1926 27.9814 30.8001 28.016 31.4077C28.0505 32.0152 28.2199 32.6074 28.5119 33.1413C28.8684 33.5867 29.3597 33.9047 29.912 34.0476C30.4644 34.1905 31.0482 34.1507 31.576 33.9341C32.1993 33.5345 32.7283 33.0043 33.1265 32.3801C33.5247 31.7559 33.7826 31.0527 33.8824 30.3191V27.3884Z" fill="black"/>
<path d="M17.9712 38.4695C20.5684 41.5189 24.0397 43.6967 27.9154 44.7083C31.4016 45.423 35.024 45.0307 38.2765 43.5863C39.8985 42.8402 41.3707 41.8042 42.6206 40.5294C42.6742 40.4378 42.6905 40.3292 42.6663 40.226C42.6421 40.1227 42.5792 40.0327 42.4905 39.9746C42.3228 39.9127 42.1387 39.9116 41.9702 39.9713C39.5896 41.2081 37.0328 42.0712 34.3896 42.53C31.6178 42.8357 28.8136 42.6412 26.1105 41.9557C23.3457 41.0399 20.7344 39.7136 18.364 38.0214C18.3036 38.0018 18.2388 38.0003 18.1775 38.0171C18.1162 38.034 18.0613 38.0684 18.0193 38.1161C17.9774 38.1638 17.9504 38.2228 17.9416 38.2857C17.9328 38.3486 17.9427 38.4128 17.9699 38.4702L17.9712 38.4695Z" fill="#F89B1E"/>
<path d="M39.9981 39.1011C41.0464 38.8975 42.1188 38.8487 43.1813 38.956L43.2248 38.9645C43.3922 39.005 43.5367 39.1103 43.6266 39.2572C43.7164 39.4042 43.7443 39.5807 43.7042 39.7482C43.4961 40.7827 43.1657 41.7888 42.7201 42.7453C42.7072 42.7871 42.7114 42.8322 42.7316 42.8709C42.7518 42.9097 42.7865 42.9389 42.8281 42.9522C42.8525 42.9598 42.8783 42.9616 42.9035 42.9574C42.9287 42.9532 42.9525 42.9432 42.9731 42.9281C43.6004 42.4238 44.1075 41.7861 44.4575 41.0614C44.8075 40.3366 44.9916 39.543 44.9966 38.7381C45.0123 38.5379 44.9529 38.3389 44.8301 38.18C44.7072 38.0211 44.5296 37.9135 44.3318 37.8783C42.7743 37.6099 41.173 37.9438 39.8524 38.8123C39.817 38.8381 39.7932 38.8768 39.7863 38.9201C39.7793 38.9633 39.7898 39.0076 39.8154 39.0432C39.8359 39.0708 39.8646 39.0912 39.8974 39.1016C39.9302 39.112 39.9654 39.1118 39.9981 39.1011Z" fill="#F89B1E"/>
</g>
<defs>
<filter id="filter0_d_277_1199" x="0" y="0" width="62" height="62" filterUnits="userSpaceOnUse" color-interpolation-filters="sRGB">
<feFlood flood-opacity="0" result="BackgroundImageFix"/>
<feColorMatrix in="SourceAlpha" type="matrix" values="0 0 0 0 0 0 0 0 0 0 0 0 0 0 0 0 0 0 127 0" result="hardAlpha"/>
<feOffset dy="1"/>
<feGaussianBlur stdDeviation="3"/>
<feComposite in2="hardAlpha" operator="out"/>
<feColorMatrix type="matrix" values="0 0 0 0 0 0 0 0 0 0 0 0 0 0 0 0 0 0 0.12 0"/>
<feBlend mode="normal" in2="BackgroundImageFix" result="effect1_dropShadow_277_1199"/>
<feBlend mode="normal" in="SourceGraphic" in2="effect1_dropShadow_277_1199" result="shape"/>
</filter>
</defs>
</svg>
