<svg width="54" height="54" viewBox="0 0 54 54" fill="none" xmlns="http://www.w3.org/2000/svg">
<path d="M25.0069 31.0105C24.4762 31.0105 23.9673 30.7997 23.592 30.4245C23.2167 30.0492 23.0059 29.5402 23.0059 29.0095V17.1697C20.0443 17.6794 17.3814 19.2809 15.5429 21.6581C13.7044 24.0352 12.8239 27.0152 13.0752 30.0099C13.3265 33.0045 14.6913 35.7961 16.9003 37.8336C19.1092 39.8711 22.0018 41.0064 25.0069 41.0155C27.8443 41.0151 30.5899 40.0102 32.7571 38.1789C34.9243 36.3475 36.3731 33.8081 36.8468 31.0105H25.0069ZM23.0119 15.1427C24.1065 14.9866 25.0069 15.8991 25.0069 17.0036V29.0095H37.0129C38.1174 29.0095 39.0298 29.91 38.8738 31.0045C38.3611 34.5037 36.5441 37.6795 33.7873 39.8948C31.0306 42.1101 27.5381 43.2009 24.0106 42.9484C20.4831 42.696 17.1816 41.1189 14.7685 38.5336C12.3554 35.9483 11.0092 32.546 11 29.0095C11.0002 25.6401 12.2146 22.3835 14.4208 19.8367C16.6269 17.2899 19.6769 15.6234 23.0119 15.1427V15.1427ZM29.0089 25.0076V13.0016C32.1931 13.0016 35.2468 14.2665 37.4984 16.5181C39.7499 18.7696 41.0148 21.8234 41.0148 25.0076H29.0089ZM41.1389 27.0086C42.1354 27.0086 42.9938 26.2762 43.0138 25.2797L43.0158 25.0076C43.0159 23.1452 42.6446 21.3015 41.9236 19.5844C41.2026 17.8672 40.1464 16.3111 38.8168 15.007C37.4872 13.7029 35.9109 12.6771 34.1801 11.9895C32.4493 11.302 30.5988 10.9665 28.7368 11.0026C27.7403 11.0227 27.0079 11.8831 27.0079 12.8776V25.0076C27.0079 25.5383 27.2187 26.0472 27.594 26.4225C27.9692 26.7977 28.4782 27.0086 29.0089 27.0086H41.1389Z" fill="black"/>
</svg>
