<svg width="58" height="58" viewBox="0 0 58 58" fill="none" xmlns="http://www.w3.org/2000/svg">
<circle cx="29" cy="29" r="27.5" stroke="#EC3939" stroke-width="3"/>
<path d="M23.9325 18.0817C24.0725 18.1491 24.1907 18.2545 24.2734 18.3861C24.3561 18.5176 24.4 18.6698 24.4 18.8251C24.4 19.7379 24.7432 20.2636 25.1733 20.9036L25.2052 20.9498C25.5704 21.493 26.05 22.2045 26.05 23.224C26.05 24.2643 25.5253 25.1814 24.7256 25.7258C24.9357 25.9018 25.1216 26.1184 25.2822 26.3779C25.8058 27.2247 26.05 28.5191 26.05 30.3776C26.05 32.2603 25.797 34.5213 25.3845 36.327C25.1799 37.2243 24.9258 38.0524 24.6233 38.6738C24.4805 38.9829 24.2913 39.2684 24.0623 39.5205C23.8357 39.7526 23.487 40 23.025 40C22.563 40 22.2143 39.7526 21.9888 39.5205C21.7591 39.269 21.5699 38.9833 21.4278 38.6738C21.1242 38.0513 20.8701 37.2243 20.6655 36.3259C20.2364 34.3714 20.0134 32.3774 20 30.3765C20 28.518 20.2442 27.2247 20.7678 26.3779C20.9172 26.1321 21.1051 25.9119 21.3244 25.7258C20.9161 25.4486 20.5818 25.0757 20.351 24.6396C20.1201 24.2034 19.9996 23.7174 20 23.224C20 22.8193 20 22.1232 20.4213 21.2247C20.8338 20.3449 21.6181 19.3343 23.0591 18.1807C23.1805 18.0836 23.327 18.0228 23.4815 18.0052C23.6361 17.9877 23.7924 18.0143 23.9325 18.0817ZM21.65 23.2229V23.224C21.65 23.5885 21.7949 23.9382 22.0527 24.196C22.3106 24.4538 22.6603 24.5986 23.025 24.5986C23.3897 24.5986 23.7394 24.4538 23.9973 24.196C24.2551 23.9382 24.4 23.5885 24.4 23.224C24.4 22.7412 24.1965 22.4069 23.8038 21.8229L23.7906 21.8031C23.5387 21.4292 23.2406 20.9861 23.0294 20.4175C22.4321 21.0245 22.1021 21.5282 21.9162 21.9241C21.65 22.4916 21.65 22.8952 21.65 23.2218V23.2229ZM22.1714 27.2445C21.8986 27.6866 21.65 28.5927 21.65 30.3776C21.65 32.1382 21.8898 34.276 22.2737 35.9597C22.4673 36.8064 22.6873 37.4938 22.9106 37.9512C22.9513 38.0359 22.9898 38.1063 23.025 38.1657C23.0602 38.1063 23.0987 38.0359 23.1394 37.9512C23.3627 37.4938 23.5827 36.8053 23.7763 35.9597C24.1613 34.2771 24.4 32.1393 24.4 30.3776C24.4 28.5927 24.1514 27.6866 23.8786 27.2445C23.7963 27.0957 23.672 26.9744 23.5211 26.8959C23.3649 26.8279 23.1952 26.7963 23.025 26.8035C22.805 26.8035 22.6477 26.8376 22.5289 26.8959C22.378 26.9744 22.2537 27.0957 22.1714 27.2445ZM28.8 32.2064C28.2172 32.1086 27.6504 31.9326 27.1148 31.6829C27.147 31.0592 27.1562 30.4345 27.1423 29.8101C27.6384 30.1433 28.1983 30.3886 28.8 30.5249V27.3479C28.8 26.9104 28.9738 26.4908 29.2833 26.1815C29.5927 25.8721 30.0124 25.6983 30.45 25.6983H34.85C34.8499 24.7753 34.5917 23.8707 34.1044 23.0868C33.6172 22.3028 32.9203 21.6707 32.0926 21.2618C31.2649 20.853 30.3393 20.6837 29.4204 20.7732C28.5015 20.8626 27.6259 21.2072 26.8926 21.768C26.6726 21.1598 26.3591 20.6946 26.1413 20.3713L26.0973 20.3053C27.0856 19.6088 28.2463 19.1972 29.4527 19.1152C30.6591 19.0333 31.8648 19.2843 32.9383 19.8408C34.0117 20.3973 34.9116 21.2379 35.5397 22.2708C36.1678 23.3038 36.5 24.4894 36.5 25.6983H40.35C40.7876 25.6983 41.2073 25.8721 41.5167 26.1815C41.8262 26.4908 42 26.9104 42 27.3479V37.2452C42 37.6827 41.8262 38.1023 41.5167 38.4116C41.2073 38.721 40.7876 38.8948 40.35 38.8948H30.45C30.0124 38.8948 29.5927 38.721 29.2833 38.4116C28.9738 38.1023 28.8 37.6827 28.8 37.2452V32.2053V32.2064ZM30.45 32.2757V37.2463H40.35V27.349H36.291C35.9483 28.6741 35.2021 29.8601 34.1557 30.7427C33.1092 31.6253 31.8143 32.161 30.45 32.2757ZM34.5684 27.349H30.45V30.6184C31.3742 30.5148 32.2506 30.1532 32.9789 29.5751C33.7072 28.9969 34.2581 28.2254 34.5684 27.349Z" fill="#EC3939"/>
</svg>
