<svg width="58" height="58" viewBox="0 0 58 58" fill="none" xmlns="http://www.w3.org/2000/svg">
<circle cx="29" cy="29" r="27.5" stroke="#EC3939" stroke-width="3"/>
<path d="M40.7906 21.9177L36.1395 17.2118C36.0774 17.1438 36.0018 17.0898 35.9176 17.0533C35.8335 17.0168 35.7427 16.9987 35.6511 17.0001H26.3488C25.9171 17.0001 25.503 17.1736 25.1977 17.4825C24.8924 17.7914 24.7209 18.2103 24.7209 18.6471V20.7648H22.6279C22.1962 20.7648 21.7821 20.9383 21.4768 21.2472C21.1715 21.5561 21 21.975 21 22.4118V39.3529C21 39.7898 21.1715 40.2087 21.4768 40.5176C21.7821 40.8265 22.1962 41 22.6279 41H35.6511C36.0829 41 36.4969 40.8265 36.8022 40.5176C37.1075 40.2087 37.279 39.7898 37.279 39.3529V37.2353H39.372C39.8038 37.2353 40.2178 37.0618 40.5231 36.7529C40.8284 36.444 40.9999 36.0251 40.9999 35.5883V22.4118C41.0013 22.3192 40.9834 22.2273 40.9473 22.1422C40.9113 22.057 40.8579 21.9806 40.7906 21.9177ZM35.8837 39.3529C35.8837 39.4153 35.8592 39.4752 35.8155 39.5193C35.7719 39.5634 35.7128 39.5882 35.6511 39.5882H22.6279C22.5662 39.5882 22.5071 39.5634 22.4635 39.5193C22.4198 39.4752 22.3953 39.4153 22.3953 39.3529V22.4118C22.3953 22.3494 22.4198 22.2896 22.4635 22.2454C22.5071 22.2013 22.5662 22.1765 22.6279 22.1765H31.6395L35.8837 26.4706V39.3529ZM39.6046 35.5883C39.6046 35.6507 39.5801 35.7105 39.5365 35.7546C39.4929 35.7988 39.4337 35.8235 39.372 35.8235H37.279V26.1765C37.2804 26.0839 37.2625 25.992 37.2264 25.9069C37.1904 25.8217 37.137 25.7452 37.0697 25.6824L32.4186 20.9765C32.3564 20.9085 32.2808 20.8545 32.1967 20.818C32.1125 20.7815 32.0217 20.7633 31.9302 20.7648H26.1163V18.6471C26.1163 18.5847 26.1408 18.5249 26.1844 18.4808C26.228 18.4366 26.2871 18.4118 26.3488 18.4118H35.3604L39.6046 22.7059V35.5883ZM32.6279 31.8236C32.6279 32.0108 32.5544 32.1903 32.4235 32.3227C32.2927 32.4551 32.1152 32.5294 31.9302 32.5294H26.3488C26.1638 32.5294 25.9863 32.4551 25.8555 32.3227C25.7246 32.1903 25.6511 32.0108 25.6511 31.8236C25.6511 31.6363 25.7246 31.4568 25.8555 31.3244C25.9863 31.192 26.1638 31.1177 26.3488 31.1177H31.9302C32.1152 31.1177 32.2927 31.192 32.4235 31.3244C32.5544 31.4568 32.6279 31.6363 32.6279 31.8236ZM32.6279 35.5883C32.6279 35.7755 32.5544 35.955 32.4235 36.0874C32.2927 36.2198 32.1152 36.2941 31.9302 36.2941H26.3488C26.1638 36.2941 25.9863 36.2198 25.8555 36.0874C25.7246 35.955 25.6511 35.7755 25.6511 35.5883C25.6511 35.401 25.7246 35.2215 25.8555 35.0891C25.9863 34.9567 26.1638 34.8824 26.3488 34.8824H31.9302C32.1152 34.8824 32.2927 34.9567 32.4235 35.0891C32.5544 35.2215 32.6279 35.401 32.6279 35.5883Z" fill="#EC3939"/>
</svg>
