<svg width="20" height="20" viewBox="0 0 20 20" fill="none" xmlns="http://www.w3.org/2000/svg">
<path d="M19.8168 4.15553C19.5946 4.29998 19.2779 4.43331 19.1446 4.58331C19.0946 4.63331 19.0668 4.68887 19.0779 4.74442V5.31664L18.9113 5.87775L18.7446 6.4333L18.5613 7.04441L18.1835 8.2944L17.8168 9.52773L17.539 10.4555C17.539 10.5999 17.5335 10.7444 17.5224 10.8833C17.4835 11.4166 17.3724 11.9277 17.1946 12.4055C17.089 12.6999 16.9613 12.9833 16.8057 13.2499C16.7501 13.3555 16.6835 13.461 16.6168 13.561C16.3946 13.911 16.1279 14.2333 15.8335 14.5166C15.6057 14.7444 15.3557 14.9555 15.0835 15.1333C15.0835 15.1333 15.0835 15.1333 15.0779 15.1333C15.0335 15.1721 14.9835 15.2055 14.9279 15.2333C14.7557 15.3499 14.5724 15.4499 14.3835 15.5388C14.2557 15.6055 14.1279 15.661 13.9946 15.711C13.9668 15.7277 13.9335 15.7388 13.9057 15.7499C13.5891 15.8999 13.2224 15.9999 12.8557 16.0499C12.8335 16.0555 12.8168 16.0555 12.7946 16.061C12.5724 16.0999 12.3557 16.1333 12.1335 16.1499C12.0335 16.161 11.928 16.1666 11.828 16.1666L11.4335 16.1444L9.53352 16.0444C9.53352 16.0388 9.52796 16.0444 9.52796 16.0444L8.57241 15.9944C8.50019 15.9944 8.42241 15.9944 8.35019 15.9888C8.05019 15.9777 7.7613 15.9444 7.47242 15.8833C7.46686 15.8833 7.46686 15.8833 7.46686 15.8833C6.93909 15.7833 6.43353 15.6055 5.96131 15.3666C5.7002 15.2333 5.44465 15.0833 5.20576 14.911C5.10576 14.8388 5.01132 14.761 4.91687 14.6777C4.65021 14.4555 4.41132 14.2166 4.1891 13.9722C4.15577 13.9388 4.12799 13.9055 4.10021 13.8722C4.06688 13.8388 4.03354 13.7999 4.00577 13.7666C3.79466 13.4999 3.61688 13.2277 3.47244 12.9388C3.3391 12.6833 3.23355 12.411 3.15022 12.1111C3.11688 12.0055 3.08911 11.9055 3.06688 11.7944C3.06133 11.7888 3.05577 11.7777 3.05577 11.7666C3.00022 11.5388 2.95022 11.2999 2.92244 11.0611C2.88911 10.8777 2.87244 10.6944 2.87244 10.5055C2.86133 10.4333 2.86133 10.3555 2.86133 10.2833L3.92243 8.6444L4.96132 7.04441L5.43354 6.31664L5.86131 5.66108L6.00576 5.43331V4.86109C6.01687 4.73331 6.02242 4.59998 6.01687 4.47776C6.01131 4.08887 5.93354 3.71109 5.80576 3.34998C5.68354 2.96665 5.51132 2.60554 5.33354 2.27221C5.12243 1.88888 4.90021 1.54444 4.71687 1.23333C4.44465 0.777774 4.25577 0.405554 4.30577 0.144444C4.70576 0.0499999 5.12798 0 5.55576 0H14.4446C16.7668 0 18.7668 1.44444 19.5946 3.47776C19.6835 3.69443 19.7612 3.9222 19.8168 4.15553Z" fill="#304FFE"/>
<path d="M19.9993 5.55553V5.70553L19.2326 6.14997L18.7437 6.4333L18.2048 6.74441L17.1271 7.37219L16.0715 7.98329L14.9937 8.60551L14.566 8.85551C14.566 9.12218 14.4993 9.36662 14.3771 9.58884C14.2048 9.91106 13.916 10.1777 13.5493 10.4055C13.1771 10.6333 12.7215 10.8166 12.2104 10.9499C12.2104 10.9499 12.2104 10.9444 12.2049 10.9499C10.2271 11.4611 7.5271 11.2277 6.216 10.2499C5.84933 9.97773 5.59378 9.6444 5.48267 9.26106C5.44934 9.13329 5.43267 8.9944 5.43267 8.85551V4.86109C5.43823 4.77775 5.38267 4.69442 5.28267 4.61109C4.98267 4.3722 4.27712 4.14442 3.48823 3.91665C2.87157 3.74443 2.21046 3.5722 1.65491 3.40554C1.21602 3.27221 0.843803 3.13887 0.621582 3.0111C0.721582 2.81665 0.838248 2.62221 0.960469 2.43888C1.73824 1.29999 2.92713 0.461109 4.3049 0.144444C4.7049 0.0499999 5.12712 0 5.55489 0H11.5549C14.5382 0.52222 17.2882 1.73888 19.5937 3.47776C19.6826 3.69443 19.7604 3.9222 19.8159 4.15553C19.9159 4.5222 19.977 4.89998 19.9937 5.29442C19.9993 5.37775 19.9993 5.46664 19.9993 5.55553Z" fill="#4928F4"/>
<path d="M19.9997 5.55605V8.00604L19.8775 8.38382L19.4608 9.67826L19.0275 11.0116L18.7997 11.7227L18.5886 12.3838L18.383 13.0116L18.183 13.6338L18.0775 13.9616L17.9386 14.3949C17.9386 14.8171 17.9275 15.1893 17.8997 15.506C17.8942 15.5393 17.8886 15.5727 17.8886 15.606C17.8553 15.9004 17.8108 16.1504 17.7386 16.3616C17.733 16.3949 17.7219 16.4282 17.7108 16.456C17.5664 16.856 17.3497 17.1116 17.0275 17.2782C16.9497 17.3227 16.8608 17.356 16.7664 17.3893C16.4719 17.4893 16.0997 17.5393 15.6442 17.5671C15.3108 17.5893 14.9275 17.5949 14.4942 17.5949H14.1108L13.4497 17.5671L13.3331 17.5616L12.1275 17.5116L10.9053 17.4616L6.87754 17.2949L5.8331 17.2504H5.68866C5.25532 17.2449 4.8831 17.2171 4.56088 17.1727C4.09422 17.1004 3.73311 16.9782 3.46089 16.7949C3.072 16.5449 2.84422 16.1782 2.71089 15.6671C2.67756 15.5449 2.64978 15.4171 2.63311 15.2782C2.57756 14.956 2.54978 14.5838 2.53312 14.1671C2.53312 14.0838 2.53312 14.0005 2.52756 13.9116C2.522 13.906 2.52756 13.906 2.52756 13.906V13.5838C2.522 13.4227 2.522 13.256 2.522 13.0838L2.54978 12.1894L2.56645 11.5505L2.58867 10.806V10.7005L2.62756 9.33381L2.66645 7.96715L2.70534 6.68383L2.73867 5.42272L2.74978 5.08939C2.74978 4.91717 2.16645 4.81717 1.51645 4.73384C0.999789 4.66717 0.433126 4.60606 0.0942383 4.52828C0.122016 4.4005 0.149793 4.27273 0.183127 4.15051C0.283126 3.75051 0.433125 3.37273 0.622013 3.01162C0.722013 2.81718 0.838679 2.62273 0.960901 2.4394C2.16089 1.91163 3.41089 1.50052 4.71644 1.23385C5.86088 0.994965 7.05532 0.867188 8.28864 0.867188C12.3775 0.867188 16.1553 2.25051 19.1441 4.58384C19.433 4.80606 19.7164 5.04494 19.9941 5.29494C19.9997 5.37828 19.9997 5.46717 19.9997 5.55605Z" fill="#6200EA"/>
<path d="M19.9999 6.87201V9.39422L19.6943 9.98311L19.111 11.122L18.7999 11.722L18.5166 12.272L18.3944 12.5109C18.3944 12.6831 18.3944 12.8498 18.3832 13.0109C18.3832 13.2498 18.3721 13.4775 18.3555 13.6886C18.3332 13.9386 18.2999 14.1664 18.2666 14.3775C18.1832 14.8164 18.0666 15.1942 17.8999 15.5053C17.8777 15.5442 17.8555 15.5831 17.8332 15.6164C17.7721 15.7164 17.6999 15.8109 17.6221 15.8997C17.5221 16.022 17.411 16.1275 17.2832 16.2164C17.0944 16.3609 16.8721 16.4775 16.6166 16.5664C16.2999 16.6831 15.9333 16.7609 15.4999 16.8053C15.2166 16.8331 14.9055 16.8497 14.5666 16.8497L14.3333 16.8609L13.1777 16.9275H13.1722L11.9444 16.9997L10.6944 17.072L8.97218 17.172L6.87774 17.2942L6.57219 17.3109C6.28886 17.3109 6.02219 17.2942 5.76664 17.2609C5.73886 17.2553 5.71664 17.2497 5.68886 17.2497C5.31108 17.1886 4.96664 17.0886 4.65553 16.9497C4.27776 16.7831 3.94998 16.5609 3.6722 16.2942C3.42776 16.0553 3.21665 15.7831 3.04443 15.4775C3.00554 15.4053 2.96665 15.3386 2.93332 15.2609C2.76665 14.9331 2.63332 14.5664 2.53332 14.1664C2.51665 14.0998 2.49999 14.0275 2.48888 13.9553C2.45554 13.8275 2.42777 13.6942 2.4111 13.5553C2.34999 13.1998 2.31666 12.822 2.29999 12.4275V12.422C2.29443 12.2609 2.28888 12.1053 2.28888 11.9387L2.01666 11.2887L1.97777 11.1887L1.94443 11.1053L1.52777 10.1109L1.4611 9.94978L1.06111 8.98867L0.616664 7.91645C0.616664 7.91645 0.616664 7.91645 0.611108 7.91645L0.16111 6.83313L0 6.43868V5.55535C0 5.20536 0.0333332 4.86091 0.094444 4.52758C0.122222 4.3998 0.149999 4.27203 0.183332 4.14981C0.655552 3.87758 1.14999 3.62759 1.65555 3.40536C2.8111 2.8887 4.04998 2.50537 5.33331 2.27204C6.28886 2.09982 7.2833 2.00537 8.28885 2.00537C12.3499 2.00537 16.0333 3.47759 18.911 5.87757C19.0221 5.96646 19.1277 6.05535 19.2332 6.1498C19.4943 6.37757 19.7499 6.61646 19.9999 6.87201Z" fill="#673AB7"/>
<path d="M19.9999 8.52765V11.3832L19.6832 12.0443L19.0832 13.2943L19.0777 13.311C19.0777 13.5499 19.0666 13.7665 19.0499 13.961C18.9944 14.5998 18.8388 15.0054 18.5832 15.2554C18.3999 15.4443 18.1721 15.5498 17.8888 15.6054C17.8721 15.611 17.8499 15.611 17.8332 15.6165C17.7444 15.6332 17.6499 15.6443 17.5499 15.6443C17.2055 15.6776 16.7999 15.6554 16.3333 15.6221C16.2833 15.6221 16.2277 15.6165 16.1721 15.611C15.8333 15.5887 15.4721 15.5665 15.0721 15.5498C14.8555 15.5443 14.6277 15.5387 14.3944 15.5387H14.3833L13.8222 15.5832H13.8166L12.5555 15.6721L11.1166 15.7832L10.9055 15.7998L9.22218 15.9221L8.34996 15.9887L7.48885 16.0498C7.33885 16.0498 7.19441 16.0498 7.04996 16.0443C7.04996 16.0443 7.04441 16.0387 7.04441 16.0443C6.41663 16.0332 5.85553 15.9943 5.35553 15.8998C4.89442 15.8221 4.48887 15.6998 4.14442 15.5165C3.78887 15.3443 3.49443 15.0998 3.25554 14.7887C3.02776 14.4832 2.8611 14.0998 2.75554 13.6387C2.75554 13.6332 2.75554 13.6332 2.75554 13.6332C2.67776 13.261 2.63332 12.8276 2.63332 12.3387L2.54999 12.1887L2.05555 11.3054L1.98332 11.1832L1.94443 11.1054L1.42777 10.1888L1.17222 9.72765L0.849996 9.15543L0.294443 8.16099L0 7.63877V5.59433C0.488886 5.27211 0.994439 4.98878 1.51666 4.73323C2.14999 4.41101 2.80554 4.13879 3.48887 3.91657C4.23331 3.67212 5.01109 3.47768 5.80553 3.3499C6.61108 3.21657 7.43885 3.1499 8.28885 3.1499C12.0666 3.1499 15.5333 4.4999 18.2055 6.74433C18.3277 6.83877 18.4444 6.94433 18.561 7.04433C19.0277 7.46099 19.4721 7.91099 19.8777 8.38321C19.9221 8.43321 19.9666 8.47765 19.9999 8.52765Z" fill="#8E24AA"/>
<path d="M19.9999 10.3946V14.4112C19.8666 14.3335 19.6832 14.239 19.4555 14.139C19.3332 14.0779 19.1943 14.0168 19.0499 13.9612C18.8388 13.8668 18.611 13.7779 18.3555 13.689C18.2999 13.6668 18.2444 13.6501 18.1832 13.6335C18.0832 13.5946 17.9777 13.5612 17.8721 13.5279C17.5444 13.4279 17.1832 13.3335 16.8055 13.2501C16.661 13.2224 16.511 13.1946 16.361 13.1724C15.8777 13.089 15.361 13.039 14.8221 13.0335C14.7777 13.0279 14.7277 13.0279 14.6833 13.0279L13.2555 13.039L11.3111 13.0501H11.3055L7.14441 13.0835C5.82219 13.0835 5.01109 13.4001 4.5222 13.5279C4.5222 13.5279 4.51664 13.5279 4.51664 13.5335C3.99998 13.6668 3.83887 13.5835 3.79443 12.6779C3.78331 12.4279 3.77776 12.1057 3.77776 11.7112L3.46665 11.4724L2.92221 11.0613L2.58888 10.8057L2.52221 10.7557L1.59999 10.0557L1.4611 9.95015L1.17222 9.72793L0.638886 9.32793L0 8.83904V6.95016C0.0555553 6.90572 0.105555 6.86683 0.16111 6.83349C0.966662 6.27794 1.82777 5.80572 2.73888 5.42239C3.54998 5.07795 4.40553 4.80573 5.28331 4.61128C5.52219 4.56128 5.76664 4.51128 6.01664 4.47795C6.75552 4.35017 7.51663 4.28906 8.28885 4.28906C11.6277 4.28906 14.6944 5.45017 17.1277 7.37238C17.4944 7.66127 17.8499 7.96682 18.1832 8.2946C18.6388 8.72793 19.0666 9.18904 19.461 9.67793C19.5388 9.77793 19.6166 9.87792 19.6943 9.98348C19.7999 10.1168 19.8999 10.2557 19.9999 10.3946Z" fill="#C2185B"/>
<path d="M19.9999 12.622V14.4442C19.9999 14.8053 19.9666 15.1608 19.8999 15.5053C19.7999 16.0164 19.6277 16.5053 19.3943 16.9608C19.2721 16.9886 19.1332 16.9886 18.9777 16.9664C18.6277 16.9053 18.2166 16.7219 17.7721 16.4831C17.7499 16.4775 17.7277 16.4664 17.711 16.4553C17.5721 16.3831 17.4277 16.3053 17.2832 16.2164C16.9888 16.0553 16.6777 15.8775 16.3666 15.7108C16.2999 15.6775 16.2333 15.6442 16.1721 15.6108C15.8166 15.4275 15.4499 15.2608 15.0833 15.1331C15.0833 15.1331 15.0833 15.1331 15.0777 15.1331C14.9999 15.1053 14.9166 15.0775 14.8333 15.0553C14.5166 14.9664 14.1944 14.9108 13.8833 14.9108L13.2722 14.7331L10.5666 13.9497C10.5666 13.9497 10.5666 13.9497 10.5611 13.9497L8.89996 13.4664H8.8944L8.17218 13.2553C6.0833 13.2553 4.79998 14.1442 4.17776 13.8053C3.93331 13.6775 3.78887 13.3553 3.73887 12.722C3.7222 12.5442 3.71665 12.3442 3.71665 12.1109L3.06665 11.7942L3.03887 11.7831H3.03332L2.56665 11.5497L2.05555 11.3053L2.01666 11.2886L1.92221 11.2386L0.833329 10.7109L0 10.3053V8.39976C0.094444 8.31643 0.194444 8.23865 0.294443 8.16087C0.399998 8.07754 0.505553 7.99976 0.611108 7.91643C0.616664 7.91643 0.616664 7.91643 0.616664 7.91643C1.27222 7.44421 1.96666 7.02754 2.70554 6.6831C3.56665 6.27199 4.48331 5.95533 5.43331 5.74977C5.57219 5.71644 5.71664 5.6831 5.86108 5.66088C6.64997 5.51088 7.46107 5.43311 8.28885 5.43311C11.2166 5.43311 13.9055 6.3831 16.0721 7.98309C16.6999 8.44976 17.2832 8.96642 17.8166 9.52753C18.2555 9.98864 18.661 10.4886 19.0277 11.0109C19.0555 11.0497 19.0832 11.0886 19.111 11.122C19.3166 11.422 19.5055 11.7275 19.6832 12.0442C19.7999 12.2331 19.8999 12.4275 19.9999 12.622Z" fill="#D81B60"/>
<path d="M19.8999 15.5056C19.7999 16.0167 19.6277 16.5055 19.3943 16.9611C19.2888 17.1667 19.1721 17.3611 19.0443 17.55C18.9666 17.6667 18.8832 17.7778 18.7999 17.8833C18.5999 17.8055 18.3055 17.6944 17.9444 17.5722C17.9444 17.5722 17.9444 17.5722 17.9444 17.5667C17.6721 17.4722 17.361 17.3722 17.0277 17.2778C16.9333 17.25 16.8388 17.2222 16.7388 17.1944C16.3444 17.0889 15.9333 16.9944 15.5333 16.9389C15.1999 16.8833 14.8721 16.85 14.5666 16.85L14.311 16.7778H14.3055L12.961 16.3889L12.1333 16.15L11.2111 15.8833H11.2055L10.9055 15.8L7.27774 14.7556L6.2333 14.4556L5.45553 14.2722L4.18887 13.9722L4.03331 13.9333C4.03331 13.9333 4.03331 13.9333 4.02776 13.9333L2.75554 13.6389C2.75554 13.6333 2.75554 13.6333 2.75554 13.6333L2.52777 13.5833L2.4111 13.5556L1.48333 13.3389L1.37777 13.3111L0.588886 12.6611L0 12.1667V9.90003C0.205555 9.70003 0.416665 9.51114 0.638886 9.32781C0.705552 9.2667 0.777774 9.21114 0.849996 9.15559C0.916662 9.10003 0.988884 9.04448 1.06111 8.98892C1.56666 8.60559 2.09999 8.26115 2.66665 7.9667C3.38887 7.57782 4.15553 7.26671 4.96109 7.04449C5.11664 6.99449 5.2722 6.95004 5.43331 6.91671C6.34441 6.68893 7.29996 6.57227 8.28885 6.57227C10.7722 6.57227 13.0833 7.32226 14.9944 8.60559C15.9444 9.24447 16.7999 10.0111 17.5221 10.8834C17.8888 11.3222 18.2221 11.7834 18.5166 12.2722C18.5444 12.3111 18.5666 12.3445 18.5888 12.3833C18.7666 12.6778 18.9332 12.9833 19.0832 13.2945C19.2221 13.5722 19.3443 13.85 19.4555 14.1389C19.6332 14.5833 19.7777 15.0389 19.8999 15.5056Z" fill="#F50057"/>
<path d="M19.0444 17.5501C18.9666 17.6667 18.8832 17.7779 18.7999 17.8834C18.5555 18.189 18.2888 18.4667 17.9888 18.7112C17.7277 18.9279 17.4499 19.1223 17.1555 19.289C17.0444 19.2612 16.9333 19.2279 16.8166 19.1834C16.4499 19.0556 16.0666 18.8445 15.711 18.6223C15.1777 18.2834 14.7166 17.9167 14.511 17.7501C14.4333 17.6834 14.3944 17.6501 14.3944 17.6501L13.4499 17.5667L13.3333 17.5556L12.1111 17.4501L10.8444 17.339L8.97218 17.1723L6.00553 16.9112L5.99442 16.9056L4.94998 16.4001L3.89443 15.889L3.04443 15.4779L2.8611 15.389L2.63332 15.2779L1.84444 14.8945L0.79444 14.389L0.466664 14.2279L0 14.0834V11.6001C0.26111 11.289 0.538886 10.9946 0.833329 10.7112C1.02222 10.5335 1.22222 10.3557 1.42777 10.189C1.4611 10.1612 1.49444 10.1335 1.52777 10.1112C1.54999 10.0835 1.57777 10.0668 1.59999 10.0557C1.92777 9.78901 2.27221 9.55012 2.62776 9.33346C3.03887 9.07235 3.47221 8.83901 3.9222 8.64457C4.40553 8.4279 4.91109 8.24457 5.43331 8.10568C6.33886 7.85013 7.29996 7.7168 8.28885 7.7168C10.5555 7.7168 12.6499 8.40568 14.3777 9.58901C15.4833 10.3446 16.4388 11.3001 17.1944 12.4057C17.4444 12.7612 17.6666 13.139 17.8721 13.5279C17.9444 13.6723 18.0166 13.8168 18.0777 13.9612C18.1444 14.1001 18.2055 14.239 18.2666 14.3779C18.3832 14.6668 18.4888 14.9557 18.5832 15.2556C18.761 15.8112 18.8944 16.3779 18.9777 16.9668C19.0055 17.1612 19.0277 17.3556 19.0444 17.5501Z" fill="#FF1744"/>
<path d="M17.9944 18.5665C17.9944 18.611 17.9944 18.661 17.9888 18.711C17.7277 18.9276 17.4499 19.1221 17.1555 19.2888C17.0333 19.3554 16.911 19.4221 16.7833 19.4776C16.6555 19.5388 16.5277 19.5943 16.3944 19.6443C16.2055 19.5443 15.9499 19.4221 15.6777 19.3054C15.2944 19.1332 14.8777 18.9776 14.5555 18.9276C14.4777 18.911 14.4055 18.9054 14.3388 18.9054L13.4277 18.7888H13.4166L12.2833 18.6388L11.1388 18.4888L10.6055 18.4221L6.40552 17.8776C6.1333 17.8776 5.84442 17.861 5.54442 17.8221C5.17775 17.7888 4.79442 17.7332 4.41109 17.6554C4.03331 17.5888 3.64998 17.4999 3.28332 17.4054C2.89999 17.3165 2.52221 17.211 2.17221 17.111C1.76666 16.9888 1.38888 16.8721 1.07222 16.7665C0.811107 16.6832 0.588886 16.6054 0.416665 16.5443C0.316665 16.3054 0.233332 16.0554 0.172221 15.7999C0.0555553 15.3665 0 14.911 0 14.4443V13.5166C0.177777 13.2221 0.37222 12.9332 0.588886 12.661C0.983328 12.1388 1.43333 11.661 1.92221 11.2388C1.93888 11.2166 1.9611 11.1999 1.97777 11.1888L1.98332 11.1832C2.15554 11.0277 2.33332 10.8888 2.52221 10.7555C2.54443 10.7332 2.56665 10.7166 2.58888 10.6999C2.67776 10.6332 2.77221 10.5666 2.87221 10.5055C3.66665 9.96657 4.54442 9.54435 5.48331 9.26102C6.37219 8.99436 7.31108 8.85547 8.28885 8.85547C10.2277 8.85547 12.0388 9.42769 13.5499 10.4055C14.6666 11.1221 15.6277 12.0666 16.361 13.1721C16.4499 13.2999 16.5333 13.4277 16.6166 13.561C16.9999 14.211 17.3166 14.911 17.5499 15.6443C17.5777 15.7277 17.5999 15.811 17.6221 15.8999C17.6666 16.0499 17.7055 16.2054 17.7388 16.361C17.7499 16.3999 17.761 16.4388 17.7721 16.4832C17.8499 16.8332 17.9055 17.1999 17.9444 17.5665C17.9444 17.5721 17.9444 17.5721 17.9444 17.5721C17.9777 17.8999 17.9944 18.2332 17.9944 18.5665Z" fill="#FF5722"/>
<path d="M16.8501 18.5666C16.8501 18.7611 16.8389 18.9722 16.8167 19.1833C16.8056 19.2833 16.7945 19.3833 16.7834 19.4777C16.6556 19.5388 16.5278 19.5944 16.3945 19.6444C16.1445 19.7388 15.889 19.8166 15.6278 19.8722C15.4501 19.9111 15.2667 19.9444 15.0834 19.9611H15.0778C14.9056 19.8555 14.7056 19.7277 14.5001 19.5833C14.1279 19.3222 13.739 19.0277 13.4279 18.7888C13.4223 18.7833 13.4223 18.7833 13.4167 18.7777C13.089 18.5277 12.8556 18.3388 12.8556 18.3388L12.2667 18.3611L11.1334 18.4L10.6056 18.4222L8.48343 18.5L6.689 18.5666C6.57233 18.5722 6.43344 18.5722 6.26122 18.5666H6.25567C6.02234 18.5611 5.74456 18.5444 5.439 18.5166C5.08345 18.4888 4.69456 18.4555 4.30012 18.4166C3.91679 18.3722 3.5279 18.3277 3.15568 18.2833C2.74457 18.2388 2.35569 18.1888 2.02235 18.1444C1.76124 18.1111 1.53347 18.0833 1.35014 18.0611C1.19458 17.8833 1.05569 17.7 0.92236 17.5C0.722361 17.2 0.550139 16.8833 0.416807 16.5444C0.316807 16.3055 0.233474 16.0555 0.172363 15.8C0.333474 15.3055 0.544584 14.8389 0.794582 14.3889C0.994581 14.0222 1.22791 13.6722 1.48347 13.3389C1.73347 13.0111 2.00569 12.7055 2.30013 12.4278V12.4222C2.38346 12.3389 2.4668 12.2611 2.55013 12.1889C2.70568 12.0444 2.86679 11.9111 3.03346 11.7833H3.03902C3.04457 11.7722 3.05013 11.7722 3.05568 11.7667C3.18902 11.6611 3.3279 11.5667 3.46679 11.4722C4.28901 10.9111 5.21678 10.4944 6.21678 10.25C6.87789 10.0889 7.57233 10 8.28899 10C9.7001 10 11.0334 10.3389 12.2056 10.95H12.2112C13.2167 11.4667 14.1056 12.1778 14.8223 13.0333C15.2167 13.4889 15.5556 13.9889 15.8334 14.5166C16.0278 14.8722 16.1945 15.2444 16.3334 15.6222C16.3445 15.6555 16.3556 15.6833 16.3667 15.7111C16.4612 15.9889 16.5445 16.2777 16.6167 16.5666C16.6667 16.7722 16.7056 16.9833 16.739 17.1944C16.7501 17.2611 16.7612 17.3222 16.7667 17.3889C16.8223 17.7722 16.8501 18.1666 16.8501 18.5666Z" fill="#FF6F00"/>
<path d="M15.7112 18.5667V18.6223C15.7112 18.8112 15.6945 19.05 15.6778 19.3056C15.6612 19.4945 15.6445 19.6889 15.6278 19.8723C15.4501 19.9112 15.2667 19.9445 15.0834 19.9612H15.0778C14.8667 19.9889 14.6612 20 14.4445 20H13.4723L13.2612 19.9389L12.1668 19.6056L11.0556 19.2723L8.48344 18.5001L7.37233 18.1667C7.37233 18.1667 6.91122 18.3501 6.26123 18.5667H6.25567C6.00567 18.65 5.73345 18.7389 5.44456 18.8278C5.08345 18.9334 4.70012 19.0389 4.32235 19.1223C3.93346 19.2112 3.55013 19.2778 3.20569 19.3056C3.10013 19.3167 2.99458 19.3223 2.90013 19.3223C2.58902 19.15 2.28902 18.9445 2.0168 18.7167C1.77791 18.5167 1.55569 18.3001 1.35014 18.0612C1.19458 17.8834 1.0557 17.7001 0.922363 17.5001C0.961252 17.2501 1.0057 17.0056 1.07236 16.7667C1.23903 16.1056 1.50014 15.4723 1.84458 14.8945C2.03347 14.5667 2.24458 14.2501 2.48902 13.9556C2.49458 13.939 2.51124 13.9223 2.52791 13.9112C2.52236 13.9056 2.52791 13.9056 2.52791 13.9056C2.60013 13.8112 2.67791 13.7223 2.75569 13.639C2.75569 13.6334 2.75569 13.6334 2.75569 13.6334C2.98346 13.389 3.2168 13.1556 3.47235 12.939C3.56124 12.8667 3.64457 12.7945 3.73902 12.7223C3.75568 12.7056 3.77235 12.6945 3.79457 12.6779C5.04457 11.7223 6.60567 11.1445 8.28899 11.1445C10.2001 11.1445 11.939 11.8612 13.2556 13.039C13.889 13.6112 14.4279 14.2945 14.8334 15.0556C14.8667 15.1112 14.9001 15.1723 14.9278 15.2334C14.9778 15.3334 15.0279 15.439 15.0723 15.5501C15.2556 15.9501 15.4001 16.3723 15.5001 16.8056C15.5112 16.8501 15.5223 16.8945 15.5334 16.9389C15.5778 17.1445 15.6167 17.3556 15.6445 17.5667C15.689 17.8945 15.7112 18.2278 15.7112 18.5667Z" fill="#FF9800"/>
<path d="M14.5664 18.566C14.5664 18.6771 14.5609 18.7993 14.5553 18.9271C14.5442 19.1327 14.5275 19.3549 14.4998 19.5827C14.4886 19.7216 14.4664 19.8605 14.4442 19.9993H11.3998L10.8109 19.9049L8.51089 19.5382L8.18312 19.4882L7.43312 19.366C7.10535 19.366 6.39424 19.5105 5.64424 19.6493C5.2498 19.7216 4.8498 19.7993 4.48869 19.8493C4.44425 19.8549 4.3998 19.8605 4.36092 19.866H4.35536C3.96647 19.7827 3.5887 19.6549 3.23314 19.4882C3.12203 19.4382 3.01092 19.3827 2.89981 19.3216C2.5887 19.1493 2.2887 18.9438 2.01648 18.716C2.01093 18.6493 2.00537 18.5938 2.00537 18.566C2.00537 18.4216 2.01093 18.2827 2.02204 18.1438C2.04426 17.7882 2.09426 17.4438 2.17204 17.1105C2.29426 16.6049 2.47204 16.116 2.71092 15.666C2.75537 15.5716 2.80537 15.4771 2.86092 15.3883C2.88314 15.3438 2.91092 15.3049 2.93314 15.2605C3.03314 15.0994 3.14425 14.9438 3.25537 14.7883C3.4887 14.4827 3.74981 14.1938 4.02758 13.9327C4.03314 13.9327 4.03314 13.9327 4.03314 13.9327C4.05536 13.9105 4.07758 13.8883 4.09981 13.8716C4.12758 13.8494 4.14981 13.8216 4.17758 13.8049C4.28869 13.7049 4.3998 13.616 4.51647 13.5327C4.51647 13.5272 4.52203 13.5272 4.52203 13.5272C5.57202 12.7438 6.87201 12.2827 8.28867 12.2827C9.38867 12.2827 10.4109 12.5605 11.3053 13.0494H11.3109C12.0775 13.4716 12.7442 14.0438 13.272 14.7327C13.4775 14.9994 13.6609 15.2827 13.8164 15.5827H13.822C13.8498 15.6383 13.8775 15.6938 13.9053 15.7494C14.072 16.0771 14.2053 16.4216 14.3053 16.7771H14.3109C14.3164 16.8049 14.3275 16.8327 14.3331 16.8605C14.3998 17.0994 14.4553 17.3438 14.4942 17.5938C14.4998 17.6438 14.5053 17.6994 14.5109 17.7494C14.5498 18.016 14.5664 18.2882 14.5664 18.566Z" fill="#FFC107"/>
<path d="M13.4276 18.5055C13.4276 18.5944 13.4276 18.6888 13.4165 18.7777V18.7833C13.4165 18.7888 13.4165 18.7888 13.4165 18.7888C13.4054 19.1888 13.3499 19.5833 13.261 19.9388C13.261 19.961 13.2554 19.9777 13.2443 19.9999H10.6499L8.51099 19.5388L8.22765 19.4777L8.18321 19.4888L5.811 19.9777L5.70545 19.9999H5.55545C5.19989 19.9999 4.84989 19.9666 4.51101 19.8999C4.46101 19.8888 4.41101 19.8777 4.36101 19.8666H4.35545C3.96657 19.7833 3.58879 19.6555 3.23324 19.4888C3.22212 19.4277 3.21101 19.3666 3.20546 19.3055C3.16657 19.0666 3.1499 18.8166 3.1499 18.5666C3.1499 18.4722 3.1499 18.3777 3.15546 18.2833C3.17212 17.9833 3.21657 17.6888 3.28323 17.4055C3.32768 17.1944 3.38879 16.9888 3.46101 16.7944C3.52212 16.6222 3.59434 16.4555 3.67212 16.2944C3.73879 16.1555 3.81657 16.0222 3.89434 15.8888C3.97212 15.7611 4.05545 15.6388 4.14434 15.5166C4.36656 15.2111 4.62767 14.9277 4.91656 14.6777C5.08323 14.5333 5.26656 14.3944 5.45545 14.2722C6.26655 13.7388 7.23877 13.4277 8.28877 13.4277C8.49432 13.4277 8.69432 13.4388 8.88876 13.4666H8.89987C9.49432 13.5333 10.0499 13.7 10.561 13.95C10.5665 13.95 10.5665 13.95 10.5665 13.95C11.3721 14.3444 12.0554 14.9388 12.5554 15.6722C12.6387 15.7944 12.7221 15.9277 12.7943 16.0611C12.8554 16.1666 12.911 16.2777 12.961 16.3888C13.0387 16.5611 13.111 16.7444 13.1721 16.9277H13.1776C13.2387 17.1333 13.2943 17.3388 13.3332 17.5555V17.561C13.3943 17.8666 13.4276 18.1833 13.4276 18.5055Z" fill="#FFD54F"/>
<path d="M12.2835 18.6225V18.6392C12.2835 18.967 12.2446 19.2892 12.1668 19.6059C12.139 19.7392 12.1001 19.8725 12.0501 20.0003H9.56126L8.28904 19.6503L7.01683 20.0003H5.55572C5.20017 20.0003 4.85017 19.967 4.51128 19.9003C4.50017 19.8836 4.49462 19.867 4.48906 19.8503C4.41128 19.6114 4.35017 19.3725 4.3224 19.1225C4.30017 18.9614 4.28906 18.7948 4.28906 18.6225C4.28906 18.5559 4.28906 18.4837 4.30017 18.417C4.30573 18.1559 4.34462 17.9003 4.41128 17.6559C4.44462 17.4892 4.49462 17.3281 4.56128 17.1725C4.58351 17.0948 4.61684 17.0225 4.65573 16.9503C4.73906 16.7614 4.83906 16.5781 4.95017 16.4003C5.07239 16.2226 5.20572 16.0559 5.35572 15.9003C5.5335 15.7003 5.7335 15.517 5.96128 15.367C6.35016 15.0837 6.79461 14.8726 7.27794 14.7559C7.60016 14.667 7.93904 14.6226 8.28904 14.6226C9.40015 14.6226 10.3946 15.067 11.1168 15.7837C11.1446 15.8114 11.1779 15.8448 11.2057 15.8837H11.2113C11.289 15.967 11.3612 16.0503 11.4335 16.1448C11.639 16.4059 11.8112 16.6892 11.9446 17.0003C12.0112 17.1448 12.0668 17.2948 12.1112 17.4503C12.1168 17.4725 12.1224 17.4892 12.1279 17.5114C12.2057 17.7837 12.2557 18.067 12.2668 18.3614C12.2779 18.4448 12.2835 18.5337 12.2835 18.6225Z" fill="#FFE082"/>
<path d="M11.1442 18.6226C11.1442 18.8504 11.1164 19.0671 11.0553 19.2726C10.9997 19.4948 10.9164 19.706 10.8109 19.906C10.7942 19.9393 10.7553 20.0004 10.7553 20.0004H5.82199C5.81644 19.9948 5.81088 19.9837 5.81088 19.9782C5.74421 19.8726 5.68866 19.7671 5.64422 19.6504C5.53311 19.3948 5.46644 19.1171 5.44422 18.8282C5.43311 18.7615 5.43311 18.6893 5.43311 18.6226C5.43311 18.5893 5.43311 18.5504 5.43866 18.5171C5.44422 18.2726 5.47755 18.0393 5.54422 17.8226C5.59977 17.6226 5.67199 17.4393 5.76644 17.2615C5.76644 17.2615 5.77199 17.256 5.77199 17.2504C5.83866 17.1337 5.91088 17.0171 5.99421 16.906C6.26644 16.5393 6.62754 16.2393 7.04421 16.0449C7.04976 16.0449 7.04976 16.0449 7.04976 16.0449C7.1831 15.9782 7.32199 15.9226 7.46643 15.8838C7.46643 15.8838 7.46643 15.8838 7.47199 15.8838C7.72754 15.806 8.00532 15.7671 8.28865 15.7671C8.61642 15.7671 8.93309 15.8171 9.22198 15.9226C9.32753 15.9504 9.42753 15.9949 9.52753 16.0449C9.52753 16.0449 9.52753 16.0449 9.53309 16.0449C10.0109 16.2726 10.4164 16.6282 10.6942 17.0726C10.7497 17.156 10.7997 17.2449 10.8442 17.3393C10.8664 17.3782 10.8886 17.4226 10.9053 17.4615C11.0331 17.7504 11.1109 18.0671 11.1331 18.4004C11.1386 18.4282 11.1386 18.456 11.1386 18.4893C11.1442 18.5337 11.1442 18.5782 11.1442 18.6226Z" fill="#FFECB3"/>
<path d="M13.3333 2.77783H6.6667C4.50005 2.77783 2.77783 4.50005 2.77783 6.6667V13.3333C2.77783 15.5 4.50005 17.2222 6.6667 17.2222H13.3333C15.5 17.2222 17.2222 15.5 17.2222 13.3333V6.6667C17.2222 4.50005 15.5 2.77783 13.3333 2.77783Z" stroke="white" stroke-width="1.11111" stroke-miterlimit="10" stroke-linecap="round" stroke-linejoin="round"/>
<path d="M13.889 6.11111C14.1959 6.11111 14.4446 5.86238 14.4446 5.55555C14.4446 5.24873 14.1959 5 13.889 5C13.5822 5 13.3335 5.24873 13.3335 5.55555C13.3335 5.86238 13.5822 6.11111 13.889 6.11111Z" fill="white"/>
<path d="M9.99982 13.3331C11.8408 13.3331 13.3331 11.8408 13.3331 9.99982C13.3331 8.15888 11.8408 6.6665 9.99982 6.6665C8.15888 6.6665 6.6665 8.15888 6.6665 9.99982C6.6665 11.8408 8.15888 13.3331 9.99982 13.3331Z" stroke="white" stroke-width="1.11111" stroke-miterlimit="10" stroke-linecap="round" stroke-linejoin="round"/>
</svg>
