<svg width="21" height="21" viewBox="0 0 21 21" fill="none" xmlns="http://www.w3.org/2000/svg">
<path d="M10.2144 4.99882C7.31335 4.99882 4.9721 7.34008 4.9721 10.2411C4.9721 13.1421 7.31335 15.4834 10.2144 15.4834C13.1154 15.4834 15.4566 13.1421 15.4566 10.2411C15.4566 7.34008 13.1154 4.99882 10.2144 4.99882ZM10.2144 13.6482C8.33829 13.6482 6.80727 12.1172 6.80727 10.2411C6.80727 8.36502 8.33829 6.834 10.2144 6.834C12.0904 6.834 13.6215 8.36502 13.6215 10.2411C13.6215 12.1172 12.0904 13.6482 10.2144 13.6482ZM15.6713 3.56237C14.994 3.56237 14.447 4.10935 14.447 4.78668C14.447 5.46401 14.994 6.01098 15.6713 6.01098C16.3487 6.01098 16.8956 5.46656 16.8956 4.78668C16.8958 4.62584 16.8643 4.46655 16.8029 4.31792C16.7414 4.16929 16.6512 4.03424 16.5375 3.92051C16.4238 3.80679 16.2887 3.71661 16.1401 3.65516C15.9915 3.5937 15.8322 3.56217 15.6713 3.56237ZM20.4331 10.2411C20.4331 8.8302 20.4459 7.43209 20.3666 6.02376C20.2874 4.38795 19.9142 2.93616 18.718 1.73998C17.5193 0.541233 16.0701 0.17062 14.4342 0.091385C13.0234 0.0121504 11.6253 0.0249302 10.2169 0.0249302C8.80603 0.0249302 7.40792 0.0121504 5.99959 0.091385C4.36378 0.17062 2.912 0.543789 1.71581 1.73998C0.517064 2.93872 0.14645 4.38795 0.0672151 6.02376C-0.0120196 7.43465 0.000760254 8.83276 0.000760254 10.2411C0.000760254 11.6494 -0.0120196 13.0501 0.0672151 14.4584C0.14645 16.0942 0.51962 17.546 1.71581 18.7422C2.91455 19.9409 4.36378 20.3116 5.99959 20.3908C7.41048 20.47 8.80859 20.4572 10.2169 20.4572C11.6278 20.4572 13.0259 20.47 14.4342 20.3908C16.0701 20.3116 17.5218 19.9384 18.718 18.7422C19.9168 17.5435 20.2874 16.0942 20.3666 14.4584C20.4484 13.0501 20.4331 11.652 20.4331 10.2411ZM18.1838 16.268C17.9973 16.7332 17.7723 17.0808 17.4119 17.4387C17.0515 17.7991 16.7065 18.024 16.2413 18.2106C14.8969 18.7448 11.7045 18.6246 10.2144 18.6246C8.72424 18.6246 5.52929 18.7448 4.18486 18.2131C3.71968 18.0265 3.37207 17.8016 3.01423 17.4412C2.65384 17.0808 2.42892 16.7358 2.24233 16.2706C1.7107 14.9236 1.83083 11.7312 1.83083 10.2411C1.83083 8.75097 1.7107 5.55602 2.24233 4.21159C2.42892 3.7464 2.65384 3.39879 3.01423 3.04096C3.37462 2.68313 3.71968 2.45565 4.18486 2.26906C5.52929 1.73742 8.72424 1.85755 10.2144 1.85755C11.7045 1.85755 14.8994 1.73742 16.2439 2.26906C16.7091 2.45565 17.0567 2.68057 17.4145 3.04096C17.7749 3.40135 17.9998 3.7464 18.1864 4.21159C18.718 5.55602 18.5979 8.75097 18.5979 10.2411C18.5979 11.7312 18.718 14.9236 18.1838 16.268Z" fill="white"/>
</svg>
