<svg width="21" height="21" viewBox="0 0 21 21" fill="none" xmlns="http://www.w3.org/2000/svg">
<path fill-rule="evenodd" clip-rule="evenodd" d="M7.59029 7.48017H11.3849V9.37033C11.9315 8.28323 13.3333 7.30648 15.4391 7.30648C19.4759 7.30648 20.4342 9.47046 20.4342 13.4408V20.7941H16.3474V14.345C16.3474 12.084 15.8008 10.8089 14.4092 10.8089C12.4792 10.8089 11.6771 12.1831 11.6771 14.344V20.7941H7.59029V7.48017ZM0.582375 20.6204H4.66922V7.30648H0.582375V20.6204ZM5.25466 2.96523C5.25481 3.30778 5.18688 3.64695 5.0548 3.96302C4.92272 4.27908 4.72914 4.56575 4.48531 4.80635C3.99121 5.29741 3.32241 5.57228 2.6258 5.57059C1.93041 5.57012 1.26315 5.29595 0.768327 4.80737C0.525375 4.56595 0.33245 4.27897 0.200606 3.96286C0.0687626 3.64675 0.000591705 3.30773 0 2.96523C0 2.27353 0.275862 1.61146 0.769348 1.12308C1.26374 0.633844 1.93128 0.359558 2.62682 0.359864C3.32363 0.359864 3.99182 0.634704 4.48531 1.12308C4.97778 1.61146 5.25466 2.27353 5.25466 2.96523Z" fill="#0A66C2"/>
</svg>
