<svg width="21" height="21" viewBox="0 0 21 21" fill="none" xmlns="http://www.w3.org/2000/svg">
<path fill-rule="evenodd" clip-rule="evenodd" d="M7.59029 7.47992H11.3849V9.37009C11.9315 8.28299 13.3333 7.30623 15.4391 7.30623C19.4759 7.30623 20.4342 9.47022 20.4342 13.4406V20.7938H16.3474V14.3448C16.3474 12.0838 15.8008 10.8087 14.4092 10.8087C12.4792 10.8087 11.6771 12.1829 11.6771 14.3438V20.7938H7.59029V7.47992ZM0.582375 20.6201H4.66922V7.30623H0.582375V20.6201ZM5.25466 2.96498C5.25481 3.30754 5.18688 3.6467 5.0548 3.96277C4.92272 4.27884 4.72914 4.56551 4.48531 4.80611C3.99121 5.29716 3.32241 5.57203 2.6258 5.57035C1.93041 5.56988 1.26315 5.29571 0.768327 4.80713C0.525375 4.56571 0.33245 4.27872 0.200606 3.96261C0.0687626 3.6465 0.000591705 3.30748 0 2.96498C0 2.27328 0.275862 1.61122 0.769348 1.12284C1.26374 0.6336 1.93128 0.359313 2.62682 0.359619C3.32363 0.359619 3.99182 0.63446 4.48531 1.12284C4.97778 1.61122 5.25466 2.27328 5.25466 2.96498Z" fill="white"/>
</svg>
