<svg width="147" height="59" viewBox="0 0 147 59" fill="none" xmlns="http://www.w3.org/2000/svg">
<rect x="0.846191" y="0.747559" width="145.274" height="57.7887" rx="8.3324" fill="#F5F5F5"/>
<g clip-path="url(#clip0_53_3582)">
<path d="M106.547 42.2064L121.325 16.9181L128.718 29.5622L121.325 42.2064H106.547Z" fill="#FF1748"/>
<path d="M106.547 16.9181L121.325 42.2064L128.718 29.5622L121.325 16.9181H106.547Z" fill="#FF1748"/>
<path d="M112.052 32.789L113.94 29.5622L121.325 42.2063L112.052 32.789Z" fill="#8B001D"/>
<path d="M25.6941 20.3822V22.0728H22.7288V30.0819H21.0383V22.0728H18.073V20.3822H25.6941Z" fill="#181818"/>
<path d="M27.3552 30.0819V20.3822H33.085V22.0728H29.0457V24.0404H32.4198V25.7309H29.0457V30.0819H27.3552Z" fill="#181818"/>
<path d="M37.9368 30.0819L39.8213 20.3822H41.2208L43.5833 26.5969L45.9459 20.3822H47.3454L49.2299 30.0819H47.5047L46.3408 24.0819L44.1584 29.8601H43.0013L40.8189 24.0819L39.6619 30.0819H37.9368Z" fill="#181818"/>
<path d="M53.6756 20.3822H55.6224L59.1491 30.0819H57.3545L56.7309 28.3636H52.574L51.9504 30.0819H50.156L53.6756 20.3822ZM53.1906 26.6731H56.1074L54.6455 22.6755L53.1906 26.6731Z" fill="#181818"/>
<path d="M63.4986 30.262C62.9625 30.262 62.4478 30.1789 61.9536 30.0126C61.464 29.8417 61.0342 29.5992 60.6648 29.2851C60.2954 28.9664 60.0299 28.5853 59.8682 28.1419L61.4545 27.56C61.5194 27.7447 61.6507 27.9133 61.8494 28.0657C62.0481 28.2182 62.2906 28.3406 62.5771 28.4329C62.8632 28.5253 63.1706 28.5715 63.4986 28.5715C63.8356 28.5715 64.1495 28.5207 64.4406 28.4191C64.7365 28.3128 64.9741 28.1673 65.1543 27.9826C65.3345 27.7932 65.4244 27.5738 65.4244 27.3244C65.4244 27.0704 65.33 26.8625 65.1404 26.7009C64.9511 26.5346 64.7086 26.403 64.4131 26.306C64.1175 26.2089 63.8126 26.1351 63.4986 26.0842C62.8103 25.978 62.1938 25.814 61.6487 25.5923C61.1036 25.3706 60.6718 25.0635 60.3529 24.6709C60.0389 24.2783 59.8817 23.7702 59.8817 23.1466C59.8817 22.5601 60.0504 22.0474 60.3878 21.6086C60.7248 21.1698 61.1681 20.828 61.7181 20.5832C62.2676 20.3384 62.8611 20.216 63.4986 20.216C64.0297 20.216 64.5423 20.2991 65.0365 20.4654C65.5307 20.6317 65.9625 20.8742 66.3323 21.1929C66.7062 21.5116 66.9742 21.8949 67.136 22.343L65.5422 22.918C65.4778 22.7333 65.346 22.5646 65.1473 22.4123C64.9487 22.2598 64.7061 22.1397 64.42 22.052C64.1335 21.9596 63.8265 21.9134 63.4986 21.9134C63.1706 21.9088 62.8587 21.9619 62.5632 22.0728C62.2722 22.179 62.0341 22.3245 61.8494 22.5092C61.6647 22.694 61.5723 22.9065 61.5723 23.1466C61.5723 23.4561 61.6577 23.6894 61.8289 23.8464C62.0041 24.0034 62.2377 24.1189 62.5287 24.1928C62.8197 24.2621 63.1427 24.3267 63.4986 24.3868C64.145 24.4884 64.7431 24.6593 65.2931 24.8995C65.8426 25.1397 66.2835 25.4607 66.6163 25.8625C66.9488 26.2597 67.115 26.747 67.115 27.3244C67.115 27.911 66.9488 28.426 66.6163 28.8694C66.2835 29.3082 65.8426 29.65 65.2931 29.8948C64.7431 30.1396 64.145 30.262 63.4986 30.262Z" fill="#181818"/>
<path d="M75.9635 20.3822V22.0728H72.998V30.0819H71.3074V22.0728H68.3423V20.3822H75.9635Z" fill="#181818"/>
<path d="M77.6245 30.0819V20.3822H83.7073V22.0728H79.3151V24.0404H82.7998V25.7309H79.3151V28.3914H83.7073V30.0819H77.6245Z" fill="#181818"/>
<path d="M85.5469 30.0819V20.3822H89.2676C89.7942 20.3822 90.2699 20.5139 90.6947 20.7771C91.1195 21.0404 91.4569 21.3937 91.7061 21.8372C91.9556 22.276 92.0804 22.7632 92.0804 23.299C92.0804 23.7379 91.9995 24.142 91.8378 24.5115C91.681 24.8764 91.459 25.1928 91.1729 25.4607C90.8909 25.7286 90.5654 25.9318 90.196 26.0704L92.5167 30.0819H90.5699L88.3252 26.2228H87.2375V30.0819H85.5469ZM87.2375 24.5323H89.0734C89.3136 24.5323 89.5331 24.4722 89.7318 24.3521C89.9305 24.2321 90.0897 24.0704 90.2096 23.8671C90.3298 23.6639 90.3897 23.4376 90.3897 23.1882C90.3897 22.9342 90.3298 22.7055 90.2096 22.5023C90.0897 22.2991 89.9305 22.1374 89.7318 22.0173C89.5331 21.8972 89.3136 21.8372 89.0734 21.8372H87.2375V24.5323Z" fill="#181818"/>
<path d="M97.6111 30.262C97.0751 30.262 96.56 30.1789 96.0658 30.0126C95.5765 29.8417 95.1468 29.5992 94.7774 29.2851C94.4076 28.9664 94.142 28.5853 93.9807 28.1419L95.5671 27.56C95.6319 27.7447 95.7633 27.9133 95.9619 28.0657C96.1606 28.2182 96.4032 28.3406 96.6897 28.4329C96.9758 28.5253 97.2832 28.5715 97.6111 28.5715C97.9481 28.5715 98.2621 28.5207 98.5531 28.4191C98.8486 28.3128 99.0867 28.1673 99.2669 27.9826C99.4471 27.7932 99.5369 27.5738 99.5369 27.3244C99.5369 27.0704 99.4421 26.8625 99.2529 26.7009C99.0637 26.5346 98.8211 26.403 98.5256 26.306C98.2297 26.2089 97.9251 26.1351 97.6111 26.0842C96.9228 25.978 96.3063 25.814 95.7612 25.5923C95.2162 25.3706 94.7844 25.0635 94.4655 24.6709C94.1515 24.2783 93.9943 23.7702 93.9943 23.1466C93.9943 22.5601 94.163 22.0474 94.4999 21.6086C94.8373 21.1698 95.2806 20.828 95.8302 20.5832C96.3802 20.3384 96.9737 20.216 97.6111 20.216C98.1422 20.216 98.6549 20.2991 99.1491 20.4654C99.6433 20.6317 100.075 20.8742 100.444 21.1929C100.819 21.5116 101.087 21.8949 101.248 22.343L99.6547 22.918C99.5903 22.7333 99.4585 22.5646 99.2599 22.4123C99.0612 22.2598 98.8187 22.1397 98.5326 22.052C98.2461 21.9596 97.9391 21.9134 97.6111 21.9134C97.2832 21.9088 96.9712 21.9619 96.6757 22.0728C96.3847 22.179 96.1467 22.3245 95.9619 22.5092C95.7772 22.694 95.6849 22.9065 95.6849 23.1466C95.6849 23.4561 95.7703 23.6894 95.9414 23.8464C96.1167 24.0034 96.3498 24.1189 96.6408 24.1928C96.9318 24.2621 97.2553 24.3267 97.6111 24.3868C98.2576 24.4884 98.8556 24.6593 99.4052 24.8995C99.9552 25.1397 100.396 25.4607 100.728 25.8625C101.061 26.2597 101.228 26.747 101.228 27.3244C101.228 27.911 101.061 28.426 100.728 28.8694C100.396 29.3082 99.9552 29.65 99.4052 29.8948C98.8556 30.1396 98.2576 30.262 97.6111 30.262Z" fill="#181818"/>
<path d="M30.6094 35.6591V35.9536H29.3138V39.7815H28.9958V35.9536H27.7002V35.6591H30.6094Z" fill="#181818"/>
<path d="M31.1966 37.4141C31.3733 37.0018 31.7011 36.7957 32.18 36.7957V37.0784C31.9013 37.0784 31.6677 37.1687 31.4792 37.3493C31.2908 37.526 31.1966 37.791 31.1966 38.1443V39.7815H30.9021V36.837H31.1966V37.4141Z" fill="#181818"/>
<path d="M35.3078 36.8369H35.6081V39.7815H35.3078V39.116C35.1821 39.3437 35.0094 39.5223 34.7895 39.6519C34.5697 39.7815 34.3204 39.8463 34.0416 39.8463C33.6215 39.8463 33.2623 39.699 32.9639 39.4046C32.6656 39.1062 32.5164 38.741 32.5164 38.3092C32.5164 37.8773 32.6656 37.5142 32.9639 37.2197C33.2623 36.9214 33.6215 36.7722 34.0416 36.7722C34.3204 36.7722 34.5697 36.8369 34.7895 36.9665C35.0094 37.0961 35.1821 37.2747 35.3078 37.5024V36.8369ZM33.1759 39.1985C33.4193 39.4418 33.7158 39.5636 34.0652 39.5636C34.4146 39.5636 34.7091 39.4418 34.9485 39.1985C35.188 38.955 35.3078 38.6586 35.3078 38.3092C35.3078 37.9598 35.188 37.6634 34.9485 37.4199C34.7091 37.1765 34.4146 37.0548 34.0652 37.0548C33.7158 37.0548 33.4193 37.1765 33.1759 37.4199C32.9365 37.6634 32.8167 37.9598 32.8167 38.3092C32.8167 38.6586 32.9365 38.955 33.1759 39.1985Z" fill="#181818"/>
<path d="M39.227 35.6591H39.5214V39.7815H39.227V39.0983C39.1053 39.33 38.9325 39.5125 38.7087 39.646C38.4889 39.7795 38.2396 39.8463 37.9608 39.8463C37.5368 39.8463 37.1756 39.699 36.8772 39.4046C36.5828 39.1062 36.4355 38.741 36.4355 38.3092C36.4355 37.8773 36.5828 37.5142 36.8772 37.2197C37.1756 36.9214 37.5368 36.7722 37.9608 36.7722C38.2396 36.7722 38.4889 36.8389 38.7087 36.9724C38.9325 37.1059 39.1053 37.2884 39.227 37.5201V35.6591ZM37.0893 39.1985C37.3327 39.4418 37.6291 39.5636 37.9785 39.5636C38.3279 39.5636 38.6224 39.4418 38.8619 39.1985C39.1053 38.955 39.227 38.6586 39.227 38.3092C39.227 37.9598 39.1053 37.6634 38.8619 37.4199C38.6224 37.1765 38.3279 37.0548 37.9785 37.0548C37.6291 37.0548 37.3327 37.1765 37.0893 37.4199C36.8498 37.6634 36.73 37.9598 36.73 38.3092C36.73 38.6586 36.8498 38.955 37.0893 39.1985Z" fill="#181818"/>
<path d="M41.8685 36.7722C42.3004 36.7722 42.6498 36.9253 42.9168 37.2315C43.1877 37.5377 43.3231 37.9009 43.3231 38.321C43.3231 38.3367 43.3212 38.3602 43.3172 38.3916C43.3172 38.4231 43.3172 38.4466 43.3172 38.4623H40.6495C40.6848 38.7921 40.8163 39.0591 41.0441 39.2632C41.2757 39.4634 41.5603 39.5636 41.898 39.5636C42.1336 39.5636 42.3396 39.5145 42.5163 39.4164C42.693 39.3182 42.8265 39.1886 42.9168 39.0277L43.1759 39.1808C43.0542 39.3849 42.8814 39.5479 42.6577 39.6696C42.4339 39.7874 42.1787 39.8463 41.8921 39.8463C41.4406 39.8463 41.0696 39.7029 40.7791 39.4164C40.4885 39.1258 40.3433 38.7568 40.3433 38.3092C40.3433 37.8695 40.4846 37.5044 40.7673 37.2139C41.0539 36.9194 41.421 36.7722 41.8685 36.7722ZM41.8685 37.0548C41.5348 37.0548 41.2561 37.1589 41.0323 37.367C40.8085 37.575 40.6809 37.844 40.6495 38.1738H43.0169C42.9855 37.8244 42.8598 37.5515 42.64 37.3552C42.4241 37.155 42.1669 37.0548 41.8685 37.0548Z" fill="#181818"/>
<path d="M48.1607 35.9536H46.1878V37.6025H48.09V37.897H46.1878V39.7815H45.8757V35.6591H48.1607V35.9536Z" fill="#181818"/>
<path d="M49.295 36.0596C49.2479 36.1028 49.1929 36.1244 49.1301 36.1244C49.0673 36.1244 49.0123 36.1028 48.9652 36.0596C48.9181 36.0125 48.8945 35.9555 48.8945 35.8888C48.8945 35.826 48.9181 35.773 48.9652 35.7298C49.0123 35.6827 49.0673 35.6591 49.1301 35.6591C49.1929 35.6591 49.2479 35.6827 49.295 35.7298C49.3421 35.773 49.3656 35.826 49.3656 35.8888C49.3656 35.9555 49.3421 36.0125 49.295 36.0596ZM48.9829 39.7815V36.8369H49.2773V39.7815H48.9829Z" fill="#181818"/>
<path d="M51.6511 36.7722C52.0005 36.7722 52.2773 36.8801 52.4814 37.0961C52.6895 37.3081 52.7935 37.5927 52.7935 37.95V39.7815H52.4932V37.95C52.4932 37.6752 52.4167 37.4573 52.2635 37.2963C52.1144 37.1353 51.9023 37.0548 51.6275 37.0548C51.3252 37.0548 51.0779 37.155 50.8855 37.3552C50.6931 37.5554 50.5969 37.8459 50.5969 38.2268V39.7815H50.3025V36.8369H50.5969V37.3964C50.8089 36.9802 51.1603 36.7722 51.6511 36.7722Z" fill="#181818"/>
<path d="M56.3356 36.8369H56.636V39.7815H56.3356V39.116C56.21 39.3437 56.0372 39.5223 55.8174 39.6519C55.5975 39.7815 55.3482 39.8463 55.0695 39.8463C54.6494 39.8463 54.2901 39.699 53.9918 39.4046C53.6934 39.1062 53.5442 38.741 53.5442 38.3092C53.5442 37.8773 53.6934 37.5142 53.9918 37.2197C54.2901 36.9214 54.6494 36.7722 55.0695 36.7722C55.3482 36.7722 55.5975 36.8369 55.8174 36.9665C56.0372 37.0961 56.21 37.2747 56.3356 37.5024V36.8369ZM54.2038 39.1985C54.4472 39.4418 54.7436 39.5636 55.093 39.5636C55.4424 39.5636 55.7369 39.4418 55.9764 39.1985C56.2159 38.955 56.3356 38.6586 56.3356 38.3092C56.3356 37.9598 56.2159 37.6634 55.9764 37.4199C55.7369 37.1765 55.4424 37.0548 55.093 37.0548C54.7436 37.0548 54.4472 37.1765 54.2038 37.4199C53.9643 37.6634 53.8446 37.9598 53.8446 38.3092C53.8446 38.6586 53.9643 38.955 54.2038 39.1985Z" fill="#181818"/>
<path d="M59.0065 36.7722C59.3559 36.7722 59.6326 36.8801 59.837 37.0961C60.0451 37.3081 60.1489 37.5927 60.1489 37.95V39.7815H59.8485V37.95C59.8485 37.6752 59.7721 37.4573 59.619 37.2963C59.4696 37.1353 59.2578 37.0548 58.983 37.0548C58.6807 37.0548 58.4333 37.155 58.241 37.3552C58.0486 37.5554 57.9524 37.8459 57.9524 38.2268V39.7815H57.658V36.8369H57.9524V37.3964C58.1644 36.9802 58.5158 36.7722 59.0065 36.7722Z" fill="#181818"/>
<path d="M62.4483 39.8463C62.005 39.8463 61.6356 39.699 61.3413 39.4046C61.047 39.1101 60.8997 38.745 60.8997 38.3092C60.8997 37.8734 61.047 37.5083 61.3413 37.2139C61.6356 36.9194 62.005 36.7722 62.4483 36.7722C62.7352 36.7722 62.9942 36.8409 63.2257 36.9783C63.4576 37.1118 63.6263 37.2943 63.7322 37.526L63.4908 37.6673C63.4046 37.4788 63.2671 37.3296 63.0787 37.2197C62.894 37.1098 62.6839 37.0548 62.4483 37.0548C62.0953 37.0548 61.7985 37.1765 61.5592 37.4199C61.3195 37.6594 61.2001 37.9559 61.2001 38.3092C61.2001 38.6625 61.3195 38.9609 61.5592 39.2043C61.7985 39.4438 62.0953 39.5636 62.4483 39.5636C62.6839 39.5636 62.894 39.5086 63.0787 39.3987C63.2671 39.2888 63.4104 39.1396 63.5085 38.9511L63.756 39.0983C63.6382 39.3261 63.4613 39.5086 63.2257 39.646C62.9942 39.7795 62.7352 39.8463 62.4483 39.8463Z" fill="#181818"/>
<path d="M65.8152 36.7722C66.247 36.7722 66.5963 36.9253 66.8631 37.2315C67.134 37.5377 67.2694 37.9009 67.2694 38.321C67.2694 38.3367 67.2678 38.3602 67.2637 38.3916C67.2637 38.4231 67.2637 38.4466 67.2637 38.4623H64.5962C64.6315 38.7921 64.7628 39.0591 64.9906 39.2632C65.2221 39.4634 65.5069 39.5636 65.8443 39.5636C66.0799 39.5636 66.286 39.5145 66.4629 39.4164C66.6394 39.3182 66.7728 39.1886 66.8631 39.0277L67.1225 39.1808C67.0006 39.3849 66.8278 39.5479 66.6041 39.6696C66.3804 39.7874 66.1251 39.8463 65.8386 39.8463C65.3871 39.8463 65.016 39.7029 64.7254 39.4164C64.4349 39.1258 64.2896 38.7568 64.2896 38.3092C64.2896 37.8695 64.4312 37.5044 64.7135 37.2139C65.0004 36.9194 65.3674 36.7722 65.8152 36.7722ZM65.8152 37.0548C65.4815 37.0548 65.2024 37.1589 64.9787 37.367C64.755 37.575 64.6274 37.844 64.5962 38.1738H66.9632C66.932 37.8244 66.8064 37.5515 66.5864 37.3552C66.3705 37.155 66.1136 37.0548 65.8152 37.0548Z" fill="#181818"/>
<path d="M71.7304 39.8463C71.1098 39.8463 70.5976 39.6421 70.1933 39.2338C69.789 38.8215 69.5867 38.3171 69.5867 37.7203C69.5867 37.1236 69.789 36.621 70.1933 36.2127C70.5976 35.8005 71.1098 35.5943 71.7304 35.5943C72.1072 35.5943 72.4528 35.6846 72.7668 35.8652C73.0808 36.0419 73.3242 36.2814 73.497 36.5837L73.2204 36.7427C73.0829 36.4875 72.8805 36.2834 72.6137 36.1303C72.3465 35.9732 72.0522 35.8947 71.7304 35.8947C71.1964 35.8947 70.7564 36.0714 70.4113 36.4247C70.0694 36.7741 69.8986 37.206 69.8986 37.7203C69.8986 38.2346 70.0694 38.6684 70.4113 39.0218C70.7564 39.3712 71.1964 39.5459 71.7304 39.5459C72.0522 39.5459 72.3486 39.4674 72.6195 39.3103C72.8904 39.1533 73.0944 38.9433 73.2319 38.6802L73.5089 38.8392C73.3398 39.1455 73.0964 39.3908 72.7783 39.5754C72.4606 39.756 72.1109 39.8463 71.7304 39.8463Z" fill="#181818"/>
<path d="M75.6235 39.8463C75.1917 39.8463 74.8244 39.699 74.5223 39.4046C74.2239 39.1062 74.0745 38.741 74.0745 38.3092C74.0745 37.8773 74.2239 37.5142 74.5223 37.2197C74.8244 36.9214 75.1917 36.7722 75.6235 36.7722C76.0512 36.7722 76.4144 36.9214 76.7128 37.2197C77.0153 37.5142 77.1664 37.8773 77.1664 38.3092C77.1664 38.741 77.0153 39.1062 76.7128 39.4046C76.4144 39.699 76.0512 39.8463 75.6235 39.8463ZM74.7341 39.1985C74.9774 39.4418 75.2742 39.5636 75.6235 39.5636C75.9728 39.5636 76.2675 39.4418 76.5068 39.1985C76.7461 38.955 76.8659 38.6586 76.8659 38.3092C76.8659 37.9598 76.7461 37.6634 76.5068 37.4199C76.2675 37.1765 75.9728 37.0548 75.6235 37.0548C75.2742 37.0548 74.9774 37.1765 74.7341 37.4199C74.4948 37.6634 74.3749 37.9598 74.3749 38.3092C74.3749 38.6586 74.4948 38.955 74.7341 39.1985Z" fill="#181818"/>
<path d="M81.1375 36.7722C81.4593 36.7722 81.7187 36.8723 81.9149 37.0725C82.1111 37.2727 82.2092 37.5535 82.2092 37.9147V39.7815H81.9149V37.9147C81.9149 37.6398 81.8423 37.4278 81.697 37.2786C81.5558 37.1294 81.3674 37.0548 81.1318 37.0548C80.8687 37.0548 80.6548 37.1451 80.4898 37.3257C80.329 37.5063 80.2485 37.7772 80.2485 38.1384V39.7815H79.9538V37.9147C79.9538 37.6398 79.8853 37.4278 79.7478 37.2786C79.6144 37.1294 79.4317 37.0548 79.2002 37.0548C78.9408 37.0548 78.7233 37.1471 78.5464 37.3316C78.3736 37.5122 78.2874 37.7811 78.2874 38.1384V39.7815H77.9927V36.8369H78.2874V37.3434C78.4914 36.9626 78.8074 36.7722 79.2355 36.7722C79.4514 36.7722 79.6398 36.8252 79.8007 36.9312C79.9616 37.0333 80.0794 37.1805 80.1541 37.3729C80.2563 37.1726 80.3938 37.0234 80.5662 36.9253C80.7431 36.8232 80.9335 36.7722 81.1375 36.7722Z" fill="#181818"/>
<path d="M86.3046 36.7722C86.6268 36.7722 86.8858 36.8723 87.082 37.0725C87.2782 37.2727 87.3767 37.5535 87.3767 37.9147V39.7815H87.082V37.9147C87.082 37.6398 87.0093 37.4278 86.864 37.2786C86.7228 37.1294 86.5344 37.0548 86.2989 37.0548C86.0358 37.0548 85.8219 37.1451 85.6569 37.3257C85.496 37.5063 85.4156 37.7772 85.4156 38.1384V39.7815H85.1209V37.9147C85.1209 37.6398 85.0523 37.4278 84.9148 37.2786C84.7814 37.1294 84.5988 37.0548 84.3673 37.0548C84.1083 37.0548 83.8903 37.1471 83.7134 37.3316C83.5406 37.5122 83.4544 37.7811 83.4544 38.1384V39.7815H83.1602V36.8369H83.4544V37.3434C83.6584 36.9626 83.9745 36.7722 84.4026 36.7722C84.6185 36.7722 84.8069 36.8252 84.9678 36.9312C85.1287 37.0333 85.2465 37.1805 85.3212 37.3729C85.4234 37.1726 85.5609 37.0234 85.7337 36.9253C85.9102 36.8232 86.1006 36.7722 86.3046 36.7722Z" fill="#181818"/>
<path d="M90.4472 36.8369H90.7415V39.7814H90.4472V39.222C90.235 39.6382 89.8837 39.8463 89.3932 39.8463C89.0435 39.8463 88.7648 39.7402 88.5567 39.5282C88.3527 39.3123 88.2505 39.0257 88.2505 38.6684V36.8369H88.5509V38.6684C88.5509 38.9433 88.6256 39.1611 88.7746 39.3221C88.9277 39.4831 89.1416 39.5636 89.4166 39.5636C89.7191 39.5636 89.9662 39.4634 90.1587 39.2632C90.3512 39.063 90.4472 38.7725 90.4472 38.3916V36.8369Z" fill="#181818"/>
<path d="M93.1175 36.7722C93.4668 36.7722 93.7439 36.8801 93.9479 37.0961C94.156 37.3081 94.2598 37.5927 94.2598 37.95V39.7815H93.9598V37.95C93.9598 37.6752 93.883 37.4573 93.7299 37.2963C93.5809 37.1353 93.3687 37.0548 93.0941 37.0548C92.7916 37.0548 92.5441 37.155 92.352 37.3552C92.1595 37.5554 92.0635 37.8459 92.0635 38.2268V39.7815H91.7688V36.8369H92.0635V37.3964C92.2753 36.9802 92.6266 36.7722 93.1175 36.7722Z" fill="#181818"/>
<path d="M95.5227 36.0596C95.476 36.1028 95.421 36.1244 95.3582 36.1244C95.2954 36.1244 95.2404 36.1028 95.1932 36.0596C95.146 36.0125 95.1226 35.9555 95.1226 35.8888C95.1226 35.826 95.146 35.773 95.1932 35.7298C95.2404 35.6827 95.2954 35.6591 95.3582 35.6591C95.421 35.6591 95.476 35.6827 95.5227 35.7298C95.5699 35.773 95.5938 35.826 95.5938 35.8888C95.5938 35.9555 95.5699 36.0125 95.5227 36.0596ZM95.2108 39.7815V36.8369H95.5051V39.7815H95.2108Z" fill="#181818"/>
<path d="M98.0382 37.1255H97.161V39.0394C97.161 39.2083 97.1922 39.33 97.255 39.4046C97.3178 39.4792 97.4143 39.5223 97.5436 39.5341C97.6733 39.542 97.8383 39.5361 98.0382 39.5165V39.7814C97.6417 39.8403 97.3453 39.8129 97.1491 39.699C96.9566 39.5852 96.8606 39.3653 96.8606 39.0394V37.1255H96.2129V36.8369H96.8606V36.1008L97.161 36.0125V36.8369H98.0382V37.1255Z" fill="#181818"/>
<path d="M101.076 36.8369H101.394L100.122 40.0523C100.008 40.3429 99.8466 40.5706 99.6385 40.7355C99.4304 40.9043 99.2031 40.9789 98.9556 40.9593V40.6825C99.1439 40.6982 99.3126 40.6432 99.462 40.5176C99.6151 40.3959 99.7387 40.2212 99.8331 39.9935L99.8979 39.8345L98.5435 36.8369H98.8611L100.051 39.4576L101.076 36.8369Z" fill="#181818"/>
<path d="M18.2117 39.7199H25.8328" stroke="#181818" stroke-width="0.123134"/>
</g>
<defs>
<clipPath id="clip0_53_3582">
<rect width="110.821" height="25.4478" fill="white" transform="translate(18.073 16.9181)"/>
</clipPath>
</defs>
</svg>
