<svg width="62" height="62" viewBox="0 0 62 62" fill="none" xmlns="http://www.w3.org/2000/svg">
<g filter="url(#filter0_d_277_1217)">
<rect x="6" y="5" width="50" height="50" rx="8" fill="white"/>
<path d="M29.8413 12.013C23.0436 12.514 10.6676 27.4279 15.4059 31.4297L16.5908 32.4347C16.2708 33.2917 16.1578 34.2121 16.2609 35.1211C16.5309 37.7985 19.1468 39.9659 21.6757 39.9644C26.3045 50.6335 43.1548 50.65 47.5182 40.2044C47.6562 39.8444 48.2471 38.2275 48.2471 36.8025C48.2471 35.3776 47.4372 34.7776 46.9197 34.7776C46.6512 33.8386 46.4787 33.7291 46.1532 33.2867C46.3482 32.9927 47.3772 31.3622 45.9057 29.8188C45.0718 28.9428 43.4113 28.3383 42.8338 28.1779C42.7138 27.2644 43.2058 23.471 41.1089 21.5226C42.7723 19.7962 43.7488 17.8927 43.7473 16.2608C43.7428 13.1214 39.9525 12.1705 35.2021 14.1369L34.1942 14.5644C34.1897 14.5599 32.3717 12.7794 32.3447 12.7569C31.6698 12.166 30.8118 11.941 29.8398 12.013H29.8413ZM30.4593 13.3104C30.6543 13.3194 30.8388 13.3494 31.0098 13.3959C31.4553 13.5219 32.9297 15.2288 32.9297 15.2288C32.9297 15.2288 30.1908 16.7468 27.6529 18.8647C24.2316 21.5001 21.6472 25.3295 20.0992 29.4813C18.8843 29.7183 17.8103 30.4083 17.1548 31.3622C16.7648 31.0352 16.0344 30.3993 15.9069 30.1578C14.8644 28.1658 17.0468 24.305 18.5768 22.1226C22.1166 17.0678 27.5389 13.1679 30.4593 13.3104ZM35.2366 18.2152C35.2711 18.2122 35.2981 18.2407 35.3011 18.2737C35.302 18.2837 35.3005 18.2937 35.2965 18.3028C35.2926 18.312 35.2865 18.32 35.2786 18.3262C35.0463 18.5058 34.8381 18.7145 34.6592 18.9472C34.6546 18.9536 34.6514 18.9608 34.6497 18.9684C34.648 18.976 34.6478 18.9839 34.6492 18.9916C34.6506 18.9993 34.6536 19.0066 34.6578 19.0132C34.6621 19.0197 34.6677 19.0253 34.6742 19.0297C34.685 19.0364 34.6974 19.04 34.7102 19.0402C35.6971 19.0477 37.0861 19.3942 37.9965 19.9027C38.058 19.9372 38.016 20.0542 37.947 20.0392C32.3702 18.7612 28.0774 21.5286 27.1594 22.1931C27.1309 22.2111 27.0964 22.2006 27.0784 22.1721C27.0712 22.1616 27.0676 22.1491 27.0681 22.1363C27.0687 22.1236 27.0733 22.1114 27.0814 22.1016H27.0754C28.4179 20.5506 30.0708 19.2037 31.5513 18.4462C31.5578 18.4422 31.5651 18.4396 31.5727 18.4385C31.5803 18.4374 31.5881 18.4378 31.5955 18.4398C31.6029 18.4417 31.6099 18.4452 31.6159 18.4499C31.622 18.4546 31.627 18.4605 31.6308 18.4672C31.6359 18.4761 31.6386 18.4862 31.6386 18.4965C31.6386 18.5067 31.6359 18.5168 31.6308 18.5257C31.5138 18.7387 31.2858 19.1932 31.2153 19.5382C31.2133 19.5461 31.2128 19.5543 31.214 19.5623C31.2152 19.5704 31.2179 19.5781 31.2221 19.5851C31.2263 19.592 31.2318 19.5981 31.2384 19.6029C31.2449 19.6078 31.2524 19.6112 31.2603 19.6132C31.2686 19.6149 31.2771 19.6149 31.2854 19.6131C31.2937 19.6113 31.3015 19.6077 31.3083 19.6027C32.2292 18.9742 33.8327 18.3022 35.2381 18.2152H35.2366ZM40.0095 23.042C40.1954 23.072 40.3739 23.141 40.5359 23.2445C41.3384 23.777 41.4509 25.067 41.4914 26.0104C41.5154 26.5489 41.5814 27.8524 41.6024 28.2243C41.6534 29.0793 41.8799 29.2008 42.3359 29.3463C42.5909 29.4303 42.8263 29.4948 43.1758 29.5938C44.2348 29.8908 44.6368 30.3468 45.0388 30.7353C45.2433 30.9352 45.377 31.1964 45.4197 31.4792C45.5442 32.3912 44.9353 33.3632 42.7303 34.3861C38.985 36.1245 35.2186 35.5426 34.6757 35.4811C33.0587 35.2636 32.1378 37.353 33.1067 38.7824C34.9216 41.4613 42.9193 40.3874 45.2413 37.0725C45.2967 36.993 45.2503 36.942 45.1828 36.99C41.8334 39.2819 37.404 40.0544 34.8856 39.0749C34.5032 38.9279 33.7022 38.5604 33.6047 37.74C37.1011 38.8214 39.297 37.8 39.297 37.8C39.297 37.8 39.4605 37.5735 39.252 37.5945C39.252 37.5945 36.3871 38.0175 33.6782 37.0245C34.1762 35.4091 35.8411 37.5135 41.4059 35.9176C42.6313 35.5666 44.0203 35.0326 45.2742 34.0396C45.6447 34.4251 45.9582 35.1646 46.0677 35.8336C46.3617 35.7811 47.2092 35.7886 46.9842 37.2825C46.7202 38.8754 46.0452 40.1699 44.9068 41.3623C44.1952 42.1327 43.3482 42.7656 42.4079 43.2298C41.8848 43.5043 41.34 43.7351 40.7789 43.9197C36.4891 45.3192 32.0943 43.7787 30.6753 40.4699C30.56 40.2173 30.4647 39.956 30.3903 39.6884C29.7873 37.5075 30.3003 34.8901 31.9038 33.2432C32.0028 33.1382 32.1018 33.0152 32.1018 32.8592C32.0878 32.7254 32.034 32.5989 31.9473 32.4962C31.3863 31.6862 29.4484 30.2988 29.8383 27.6184C30.1188 25.6939 31.8003 24.338 33.3707 24.419L33.7727 24.443C34.4522 24.4835 35.0446 24.5705 35.6056 24.593C36.5431 24.6335 37.3861 24.497 38.3835 23.666C38.721 23.3855 38.991 23.1425 39.447 23.066C39.6308 23.0196 39.8223 23.0114 40.0095 23.042ZM39.708 26.2939C39.2085 26.3749 39.189 26.9959 39.3675 27.8539C39.468 28.3338 39.6465 28.7433 39.8475 28.9983C40.0944 28.9668 40.3444 28.9668 40.5914 28.9983C40.7264 28.6908 40.7504 28.1644 40.6304 27.5884C40.4504 26.7334 40.2074 26.2129 39.708 26.2939ZM33.9797 28.6263C33.5496 28.6775 33.1399 28.8387 32.7902 29.0943C32.5502 29.2698 32.3252 29.5143 32.3567 29.6598C32.4242 29.9598 33.1607 29.4438 34.1717 29.3823C34.7312 29.3478 35.1961 29.5218 35.5531 29.6778C35.9131 29.8383 36.1306 29.9403 36.2176 29.8503C36.3691 29.6943 35.9386 29.0958 35.2456 28.8003C34.8457 28.6343 34.4096 28.5743 33.9797 28.6263ZM40.4309 29.8188V29.8218C39.8175 29.8113 39.7935 31.0877 40.4099 31.0982C41.0264 31.1087 41.0489 29.8308 40.4309 29.8188ZM34.8331 30.0918C34.1057 30.2058 33.6287 30.6138 33.7517 30.9002C33.8237 30.9272 33.8447 30.9647 34.1672 30.8357C34.6465 30.6557 35.164 30.602 35.6701 30.6798C35.9041 30.7068 36.0151 30.7233 36.0661 30.6423C36.1831 30.4623 35.6101 30.0003 34.8331 30.0918ZM38.3625 30.6768C38.2921 30.6815 38.2241 30.7046 38.1654 30.7438C38.1067 30.7831 38.0594 30.837 38.028 30.9002C37.7565 31.4537 38.898 32.0102 39.174 31.4627C39.378 31.0487 38.787 30.6273 38.364 30.6768H38.3625ZM21.0922 30.7218C22.5471 30.7668 23.9736 31.7942 24.3156 34.0021C24.68 36.378 23.9406 38.6924 21.5797 38.6369L21.5827 38.6399C19.7527 38.5905 17.7773 36.942 17.5808 34.9891C17.3018 32.2247 19.2217 30.6618 21.0922 30.7203V30.7218ZM20.9872 32.1017C20.7372 32.0939 20.4882 32.1383 20.2563 32.232C20.0244 32.3257 19.8146 32.4668 19.6402 32.6462C18.9413 33.4156 18.9398 34.5331 19.2382 34.5766C19.5802 34.6216 19.5667 34.0591 19.8307 33.6451C19.9793 33.4162 20.2126 33.2556 20.4795 33.1986C20.7463 33.1415 21.0249 33.1926 21.2542 33.3407L21.2632 33.3452C22.1931 33.9541 21.3712 34.7686 21.4432 35.6401C21.5557 36.978 22.9221 36.951 23.1756 36.36C23.1917 36.3306 23.1986 36.2969 23.1953 36.2635C23.1921 36.2301 23.179 36.1984 23.1576 36.1725C23.1606 36.2445 23.2146 36.072 22.8921 36.1425L22.8891 36.147C22.7826 36.1725 22.4076 36.2655 22.2096 35.9596C21.7926 35.3176 23.1006 34.3246 22.4496 33.0917C22.0851 32.3912 21.5272 32.1167 20.9872 32.1017Z" fill="black"/>
</g>
<defs>
<filter id="filter0_d_277_1217" x="0" y="0" width="62" height="62" filterUnits="userSpaceOnUse" color-interpolation-filters="sRGB">
<feFlood flood-opacity="0" result="BackgroundImageFix"/>
<feColorMatrix in="SourceAlpha" type="matrix" values="0 0 0 0 0 0 0 0 0 0 0 0 0 0 0 0 0 0 127 0" result="hardAlpha"/>
<feOffset dy="1"/>
<feGaussianBlur stdDeviation="3"/>
<feComposite in2="hardAlpha" operator="out"/>
<feColorMatrix type="matrix" values="0 0 0 0 0 0 0 0 0 0 0 0 0 0 0 0 0 0 0.12 0"/>
<feBlend mode="normal" in2="BackgroundImageFix" result="effect1_dropShadow_277_1217"/>
<feBlend mode="normal" in="SourceGraphic" in2="effect1_dropShadow_277_1217" result="shape"/>
</filter>
</defs>
</svg>
