<svg width="62" height="62" viewBox="0 0 62 62" fill="none" xmlns="http://www.w3.org/2000/svg">
<g filter="url(#filter0_d_277_1185)">
<rect x="6" y="5" width="50" height="50" rx="8" fill="white"/>
<path fill-rule="evenodd" clip-rule="evenodd" d="M16 30.0838C16 37.5413 21.4163 43.7425 28.5 45V34.1663H24.75V30H28.5V26.6663C28.5 22.9163 30.9163 20.8337 34.3337 20.8337C35.4163 20.8337 36.5837 21 37.6663 21.1663V25H35.75C33.9163 25 33.5 25.9163 33.5 27.0837V30H37.5L36.8337 34.1663H33.5V45C40.5837 43.7425 46 37.5425 46 30.0838C46 21.7875 39.25 15 31 15C22.75 15 16 21.7875 16 30.0838Z" fill="#3A5897"/>
</g>
<defs>
<filter id="filter0_d_277_1185" x="0" y="0" width="62" height="62" filterUnits="userSpaceOnUse" color-interpolation-filters="sRGB">
<feFlood flood-opacity="0" result="BackgroundImageFix"/>
<feColorMatrix in="SourceAlpha" type="matrix" values="0 0 0 0 0 0 0 0 0 0 0 0 0 0 0 0 0 0 127 0" result="hardAlpha"/>
<feOffset dy="1"/>
<feGaussianBlur stdDeviation="3"/>
<feComposite in2="hardAlpha" operator="out"/>
<feColorMatrix type="matrix" values="0 0 0 0 0 0 0 0 0 0 0 0 0 0 0 0 0 0 0.12 0"/>
<feBlend mode="normal" in2="BackgroundImageFix" result="effect1_dropShadow_277_1185"/>
<feBlend mode="normal" in="SourceGraphic" in2="effect1_dropShadow_277_1185" result="shape"/>
</filter>
</defs>
</svg>
